<?xml version="1.0" standalone="no"?>
<!DOCTYPE svg PUBLIC "-//W3C//DTD SVG 1.1//EN" "http://www.w3.org/Graphics/SVG/1.1/DTD/svg11.dtd" >
<svg xmlns="http://www.w3.org/2000/svg">
<metadata></metadata>
<defs>
<font id="plutolight" horiz-adv-x="1228" >
<font-face units-per-em="2048" ascent="1536" descent="-512" />
<missing-glyph horiz-adv-x="512" />
<glyph horiz-adv-x="0" />
<glyph horiz-adv-x="682" />
<glyph unicode=" "  horiz-adv-x="512" />
<glyph unicode="&#x09;" horiz-adv-x="512" />
<glyph unicode="&#xa0;" horiz-adv-x="512" />
<glyph unicode="!" horiz-adv-x="571" d="M174 92q0 56 28.5 85.5t82.5 29.5t83 -30t29 -85q0 -115 -112 -115q-111 0 -111 115zM215 1391h141l-18 -918h-107z" />
<glyph unicode="&#x22;" horiz-adv-x="866" d="M166 1393h115l-5 -492h-106zM586 1393h114l-6 -492h-104z" />
<glyph unicode="#" horiz-adv-x="1427" d="M92 330v110h221l131 521h-182v110h209l82 322h113v-13l-78 -309h428l82 322h110v-13l-78 -309h209v-110h-235l-131 -521h196v-110h-223l-82 -330h-112v12l79 318h-428l-81 -330h-115v12l80 318h-195zM430 440h428l131 521h-428z" />
<glyph unicode="$" d="M94 1022q0 73 29 138t85.5 119t149.5 88.5t211 41.5v166h95v-164q125 -4 245 -36.5t201 -76.5l-45 -131q-67 43 -179.5 76t-221.5 37v-516l94 -23q189 -47 283 -128t94 -222q0 -171 -129 -280.5t-342 -126.5v-248h-95v244q-131 3 -255.5 40t-196.5 82l35 131 q75 -46 187 -83.5t230 -40.5v538l-163 41q-150 36 -231 120.5t-81 213.5zM238 1030q0 -84 56 -136t167 -79l108 -27v492q-163 -11 -247 -81.5t-84 -168.5zM664 113q150 15 237.5 86t87.5 182q0 90 -70.5 145t-216.5 90l-38 9v-512z" />
<glyph unicode="%" horiz-adv-x="1740" d="M90 1059q0 151 100.5 251.5t255.5 100.5q156 0 256.5 -100t100.5 -252q0 -151 -100.5 -250.5t-256.5 -99.5q-155 0 -255.5 99.5t-100.5 250.5zM203 1059q0 -105 68.5 -174.5t174.5 -69.5q107 0 175.5 69.5t68.5 174.5t-69 175.5t-175 70.5t-174.5 -70.5t-68.5 -175.5z M428 0v12l737 1381h127v-13l-737 -1380h-127zM940 330q0 152 101 253t255 101q156 0 256.5 -101t100.5 -253q0 -151 -100.5 -250.5t-256.5 -99.5q-155 0 -255.5 99.5t-100.5 250.5zM1053 330q0 -105 68.5 -174.5t174.5 -69.5q107 0 175.5 69.5t68.5 174.5t-69 175t-175 70 t-174.5 -70t-68.5 -175z" />
<glyph unicode="&#x26;" horiz-adv-x="1490" d="M125 356q0 73 27.5 133.5t78 105t104 75t124.5 59.5q-52 52 -78 80.5t-60.5 75.5t-49.5 93.5t-15 98.5q0 149 109.5 242.5t298.5 93.5q175 0 292 -94.5t117 -235.5q0 -73 -21 -131t-61.5 -100t-88 -70.5t-111.5 -52.5l-103 -39l371 -350q148 184 209 438l112 -67 q-76 -275 -229 -457l248 -234v-20h-180l-164 156q-202 -174 -463 -174q-216 0 -341.5 100t-125.5 274zM264 362q0 -118 92 -189t248 -71q197 0 361 142l-412 395q-49 -19 -86 -36t-77 -42.5t-66 -53t-43 -65t-17 -80.5zM393 1073q0 -33 14.5 -68.5t30.5 -61t50.5 -62 t50.5 -51.5t55 -50l141 51q103 37 152 94.5t49 145.5q0 93 -78 156t-194 63q-131 0 -201 -60t-70 -157z" />
<glyph unicode="'" horiz-adv-x="446" d="M166 1393h115l-5 -492h-106z" />
<glyph unicode="(" horiz-adv-x="579" d="M117 535q0 141 22.5 276t55 234.5t76 187t79.5 141t70 90.5l86 -51q-32 -45 -63 -97t-68.5 -137t-65 -176.5t-46.5 -215t-19 -252.5q0 -157 27 -304.5t70.5 -257.5t83.5 -184.5t81 -130.5l-86 -53q-34 37 -70.5 90.5t-79 142t-75.5 188t-55.5 234t-22.5 275.5z" />
<glyph unicode=")" horiz-adv-x="579" d="M74 -342q32 43 63.5 96.5t69 138t65 177t46 215.5t18.5 250q0 159 -26.5 306.5t-70.5 257.5t-83.5 183.5t-81.5 130.5l86 51q34 -37 70 -90.5t79.5 -141t76 -187t55 -234.5t22.5 -276t-22.5 -275.5t-55.5 -234t-75.5 -188t-79 -142t-70.5 -90.5z" />
<glyph unicode="*" horiz-adv-x="1083" d="M139 1139q0 34 25 52.5t67 4.5q50 -18 134 -59.5t143 -77.5q-27 175 -27 313q0 36 18 56t42 20q26 0 42.5 -19.5t16.5 -54.5q0 -154 -31 -309q161 86 283 127q42 12 66 -6.5t24 -48.5q0 -50 -53 -66q-137 -41 -305 -63q92 -85 223 -236q28 -38 13 -71t-50 -33 q-41 0 -65 34q-38 50 -90.5 133.5t-75.5 135.5q-36 -76 -152 -264q-29 -41 -72 -41q-37 0 -49 35.5t15 72.5q36 48 98.5 117t107.5 110q-95 14 -294 78q-54 15 -54 60z" />
<glyph unicode="+" d="M147 561v115h410v411h115v-411h409v-115h-409v-409h-115v409h-410z" />
<glyph unicode="," horiz-adv-x="530" d="M152 82q0 58 29 88.5t83 30.5t84.5 -33t30.5 -86q0 -82 -48 -220t-89 -210l-84 35l96 288q-50 4 -76 33.5t-26 73.5z" />
<glyph unicode="-" horiz-adv-x="1085" d="M164 561v117h760v-117h-760z" />
<glyph unicode="." horiz-adv-x="528" d="M152 92q0 56 28 85.5t82 29.5t83.5 -30t29.5 -85q0 -56 -29.5 -85.5t-83.5 -29.5q-110 0 -110 115z" />
<glyph unicode="/" horiz-adv-x="999" d="M68 0v12l739 1381h125v-13l-737 -1380h-127z" />
<glyph unicode="0" horiz-adv-x="1482" d="M154 694q0 161 34.5 291t104.5 226.5t183 149t263 52.5q151 0 265.5 -52.5t184.5 -149t105 -226.5t35 -291q0 -160 -35 -288.5t-105 -224.5t-184.5 -148.5t-265.5 -52.5q-150 0 -263 52.5t-183 148.5t-104.5 224.5t-34.5 288.5zM289 694q0 -101 15 -187t48.5 -160 t85 -125.5t128 -81t173.5 -29.5q98 0 175.5 29.5t129.5 81t86 126t49 160t15 186.5q0 102 -15 189t-49 162t-86 127.5t-129.5 82t-175.5 29.5q-120 0 -209 -45t-140.5 -126.5t-76 -185.5t-24.5 -233z" />
<glyph unicode="1" horiz-adv-x="983" d="M45 1112l592 281h111v-1393h-140v1235l-512 -231z" />
<glyph unicode="2" horiz-adv-x="1312" d="M133 940q6 215 141 344t377 129q121 0 216.5 -35.5t154.5 -96.5t89 -139.5t30 -168.5q0 -144 -67 -261t-224 -233l-475 -354h809v-125h-1028v111l589 446q133 100 193.5 195.5t60.5 210.5q0 141 -89.5 231t-260.5 90q-184 0 -284 -100.5t-103 -263.5z" />
<glyph unicode="3" horiz-adv-x="1323" d="M141 76l39 119q197 -93 426 -93q186 0 307 78.5t121 214.5q0 123 -93 192.5t-269 69.5h-363v125h363q148 0 230.5 74t82.5 180q0 120 -105.5 187t-271.5 67q-125 0 -239 -31.5t-183 -68.5l-39 121q85 40 206 71t253 31q242 0 381 -95.5t139 -270.5q0 -118 -71.5 -209 t-192.5 -111q314 -64 314 -350q0 -184 -155 -290.5t-415 -106.5q-227 0 -465 96z" />
<glyph unicode="4" horiz-adv-x="1447" d="M80 309v103l794 981h177v-965h303v-119h-303v-309h-133v309h-838zM227 428h691v848z" />
<glyph unicode="5" horiz-adv-x="1314" d="M117 80l41 119q194 -97 436 -97q69 0 131.5 11t120 36.5t99.5 63.5t66.5 95.5t24.5 129.5q0 76 -32.5 131.5t-92.5 87.5t-136 47t-171 15h-397l-8 10l57 664h877v-125h-760l-35 -439h272q128 0 229.5 -22t178.5 -67.5t118.5 -121t41.5 -176.5q0 -96 -31 -174t-85 -131 t-128.5 -88.5t-158 -52t-177.5 -16.5q-257 0 -481 100z" />
<glyph unicode="6" horiz-adv-x="1437" d="M150 698q0 324 166 519.5t460 195.5q149 0 273 -40.5t196 -90.5l-51 -115q-64 49 -171.5 86t-234.5 37q-160 0 -274 -76t-169.5 -208t-55.5 -308v-26q32 42 72 81t102 82t147.5 69t180.5 26q238 0 375 -122t137 -339q0 -216 -150.5 -352.5t-380.5 -136.5 q-293 0 -457.5 195t-164.5 523zM301 539q35 -198 157 -314t314 -116q168 0 279.5 103t111.5 257q0 165 -107.5 253.5t-283.5 88.5q-73 0 -141.5 -20.5t-117.5 -50t-94.5 -69.5t-70.5 -70t-47 -62z" />
<glyph unicode="7" horiz-adv-x="1099" d="M55 1268v125h998v-105l-627 -1288h-156v14l623 1254h-838z" />
<glyph unicode="8" horiz-adv-x="1421" d="M147 377q0 147 92.5 236t260.5 114q-137 18 -220 110t-83 210q0 175 138 270.5t376 95.5t376 -95.5t138 -270.5q0 -118 -83 -210t-220 -110q167 -25 259.5 -114t92.5 -236q0 -184 -153.5 -290.5t-409.5 -106.5t-410 106.5t-154 290.5zM289 389q0 -132 119 -210.5 t303 -78.5t303 78.5t119 210.5q0 124 -103 195t-315 71q-214 0 -320 -71t-106 -195zM336 1040q0 -50 21.5 -93.5t65 -80t118.5 -57.5t174 -21q187 0 278.5 73t91.5 179q0 124 -102 189t-272 65t-272.5 -65t-102.5 -189z" />
<glyph unicode="9" horiz-adv-x="1437" d="M135 924q0 216 150.5 352.5t380.5 136.5q292 0 457 -195t165 -524q0 -324 -166 -519t-460 -195q-149 0 -273 40.5t-196 90.5l49 114q66 -49 173 -86t234 -37q160 0 274 76t170 208t56 308v27q-33 -43 -73 -81.5t-102.5 -81.5t-147 -69t-179.5 -26q-238 0 -375 122 t-137 339zM274 924q0 -165 108 -253.5t284 -88.5q73 0 141.5 20.5t117.5 49.5t94 69t70 70t46 61q-35 199 -156 315.5t-313 116.5q-170 0 -281 -103t-111 -257z" />
<glyph unicode=":" horiz-adv-x="544" d="M160 92q0 54 28 83.5t82 29.5t82.5 -29.5t28.5 -83.5q0 -115 -111 -115q-110 0 -110 115zM160 989q0 54 28 83.5t82 29.5t82.5 -29.5t28.5 -83.5q0 -115 -111 -115q-110 0 -110 115z" />
<glyph unicode=";" horiz-adv-x="561" d="M166 989q0 54 28 83.5t82 29.5t82.5 -29.5t28.5 -83.5q0 -115 -111 -115q-110 0 -110 115zM172 82q0 57 29.5 87t83.5 30q52 0 82 -33t30 -84q0 -82 -47.5 -220t-87.5 -206l-84 35l96 284q-50 4 -76 33.5t-26 73.5z" />
<glyph unicode="&#x3c;" d="M147 561v113l920 424h14v-113l-817 -364l817 -365v-115h-14z" />
<glyph unicode="=" d="M147 272v115h934v-115h-934zM147 852v115h934v-115h-934z" />
<glyph unicode="&#x3e;" d="M147 141v115l816 365l-816 364v113h13l919 -424v-113l-919 -420h-13z" />
<glyph unicode="?" horiz-adv-x="989" d="M94 1231q127 182 387 182q170 0 277.5 -97.5t107.5 -252.5q0 -65 -14.5 -116.5t-45.5 -91t-57 -63.5t-71 -57l-127 -90q-46 -33 -62 -56.5t-16 -60.5q0 -28 8 -55h-119q-12 38 -12 84q0 53 26 91.5t83 76.5l121 88q48 35 75 62t48.5 74t21.5 106q0 108 -74.5 173.5 t-187.5 65.5q-110 0 -190 -47t-126 -119zM315 92q0 55 28 85t81 30q54 0 83.5 -30t29.5 -85q0 -56 -29.5 -85.5t-83.5 -29.5q-109 0 -109 115z" />
<glyph unicode="@" horiz-adv-x="2054" d="M115 539q0 266 120 479.5t332.5 334t476.5 120.5q199 0 370 -62t290 -170.5t186.5 -259.5t67.5 -324q0 -155 -37 -278.5t-100.5 -200t-143.5 -116t-170 -39.5q-86 0 -129 33.5t-59 101.5q-56 -61 -143 -98t-189 -37q-210 0 -338.5 138t-128.5 357q0 222 128.5 363 t338.5 141q101 0 185 -34.5t139 -92.5v111h135v-758q0 -63 22.5 -93t83.5 -30q42 0 83.5 19.5t81 62t69.5 103.5t48.5 150.5t18.5 196.5q0 152 -58.5 283.5t-163.5 226.5t-256.5 149t-330.5 54q-238 0 -426 -106t-293.5 -296t-105.5 -429q0 -178 61.5 -333t170 -265 t262 -173t331.5 -63q212 0 388 84l38 -92q-196 -94 -426 -94q-198 0 -370.5 71.5t-295 195.5t-193 297.5t-70.5 371.5zM657 518q0 -166 99 -270.5t264 -104.5q87 0 163.5 36t127.5 89v504q-47 54 -125 91.5t-166 37.5q-166 0 -264.5 -106t-98.5 -277z" />
<glyph unicode="A" horiz-adv-x="1423" d="M41 0l598 1393h160l567 -1393h-141l-140 338h-757l-146 -338h-141zM369 446h680l-330 805z" />
<glyph unicode="B" horiz-adv-x="1425" d="M229 0v1393h494q220 0 341.5 -90t121.5 -271q0 -116 -67 -194t-185 -115q173 -26 267.5 -115t94.5 -246q0 -169 -123 -265.5t-356 -96.5h-588zM369 123h434q169 0 257.5 66t88.5 188q0 274 -391 274h-389v-528zM369 776h323q161 0 255.5 61.5t94.5 182.5q0 250 -335 250 h-338v-494z" />
<glyph unicode="C" horiz-adv-x="1544" d="M139 694q0 222 91 386t250 248.5t366 84.5q265 0 414 -140t155 -386l-129 -27q-6 200 -119.5 311t-322.5 111q-254 0 -407.5 -156.5t-153.5 -431.5q0 -272 154 -427.5t411 -155.5q139 0 271.5 57.5t223.5 142.5l74 -106q-101 -96 -254 -160.5t-317 -64.5 q-206 0 -365.5 84t-250.5 247t-91 383z" />
<glyph unicode="D" horiz-adv-x="1622" d="M229 0v1393h535q155 -1 286 -47t227.5 -132.5t151 -220t54.5 -299.5q0 -165 -54.5 -297.5t-151 -218.5t-227.5 -132t-286 -46h-535zM369 125h389q261 0 421 149t160 420q0 274 -160 424t-421 150h-389v-1143z" />
<glyph unicode="E" horiz-adv-x="1433" d="M229 0v1393h1059v-125h-923v-480h774v-124h-774v-539h923v-125h-1059z" />
<glyph unicode="F" horiz-adv-x="1327" d="M229 0v1393h1018v-125h-882v-566h772v-124h-772v-578h-136z" />
<glyph unicode="G" horiz-adv-x="1615" d="M137 694q0 166 58 303t158.5 227t235.5 139.5t290 49.5q301 0 526 -196l-72 -107q-196 172 -452 172q-168 0 -303 -68.5t-216 -204t-81 -315.5q0 -179 81 -313t217.5 -202t307.5 -68q121 0 237.5 33.5t194.5 88.5v381h-500v123h639v-577q-99 -77 -261 -128.5t-318 -51.5 q-155 0 -290 49t-235.5 139t-158.5 226t-58 300z" />
<glyph unicode="H" horiz-adv-x="1718" d="M229 0v1393h140v-631h981v631h139v-1393h-139v637h-981v-637h-140z" />
<glyph unicode="I" horiz-adv-x="598" d="M229 0v1393h140v-1393h-140z" />
<glyph unicode="J" horiz-adv-x="1343" d="M66 512l137 14q29 -420 395 -420q191 0 292 115.5t101 315.5v856h142v-863q0 -250 -141.5 -402.5t-395.5 -152.5q-250 0 -382 142.5t-148 394.5z" />
<glyph unicode="K" horiz-adv-x="1572" d="M229 0v1393h140v-637h366l459 637h147v-21l-497 -680q27 -28 61.5 -87t66 -121.5t74 -132t85.5 -123.5t100.5 -89t118.5 -35q89 0 180 43l18 -114q-104 -53 -221 -53q-82 0 -156 40.5t-126 101.5t-101.5 139.5t-84 148.5t-72 133t-66.5 90h-352v-633h-140z" />
<glyph unicode="L" horiz-adv-x="1222" d="M229 0v1393h140v-1268h800v-125h-940z" />
<glyph unicode="M" horiz-adv-x="1941" d="M229 0v1393h129l613 -744l614 744h127v-1393h-139v1169l-586 -708h-33l-585 708v-1169h-140z" />
<glyph unicode="N" horiz-adv-x="1712" d="M229 0v1393h125l989 -1174v1174h140v-1393h-125l-989 1169v-1169h-140z" />
<glyph unicode="O" horiz-adv-x="1703" d="M135 694q0 152 54.5 285.5t149.5 228.5t227.5 150t283.5 55q152 0 285.5 -55t228.5 -150t150 -228.5t55 -285.5q0 -201 -93 -364.5t-258 -256.5t-368 -93q-201 0 -365 93t-257 256.5t-93 364.5zM272 694q0 -165 75 -298.5t207 -209t296 -75.5q166 0 299.5 75.5t208 209 t74.5 298.5q0 254 -164.5 420t-417.5 166q-249 0 -413.5 -166.5t-164.5 -419.5z" />
<glyph unicode="P" horiz-adv-x="1413" d="M229 0v1393h598q100 0 186.5 -30t154 -88t106.5 -153.5t39 -216.5q0 -146 -67.5 -257t-177 -167.5t-241.5 -56.5h-458v-424h-140zM369 549h440q153 0 256.5 96t103.5 260q0 176 -101.5 269.5t-258.5 93.5h-440v-719z" />
<glyph unicode="Q" horiz-adv-x="1703" d="M135 694q0 152 54.5 285.5t149.5 228.5t227.5 150t283.5 55q152 0 285.5 -55t228.5 -150t150 -228.5t55 -285.5q0 -260 -152.5 -449t-396.5 -239q16 -13 64.5 -56.5t83 -69.5t87.5 -58.5t112.5 -49t123.5 -16.5q126 0 227 33l21 -119q-115 -39 -256 -39q-97 0 -188.5 33 t-158 81.5t-120 97.5t-97.5 89t-69 48q-201 0 -365 93t-257 256.5t-93 364.5zM272 694q0 -250 164.5 -415.5t413.5 -165.5q167 0 300 75t207.5 208t74.5 298q0 254 -164.5 420t-417.5 166q-249 0 -413.5 -166.5t-164.5 -419.5z" />
<glyph unicode="R" horiz-adv-x="1564" d="M229 0v1393h600q97 0 182.5 -25.5t155.5 -76.5t111 -138t41 -199q0 -128 -64 -227.5t-168.5 -151t-228.5 -51.5h-24q30 -31 86.5 -97t101.5 -115t101.5 -101t116 -80.5t116.5 -28.5q85 0 180 45l18 -114q-104 -53 -217 -53q-73 0 -147.5 33.5t-133.5 84.5t-120 116 t-107.5 123.5t-95 111t-82.5 75.5h-282v-524h-140zM369 639h473q141 0 237.5 83.5t96.5 227.5q0 155 -95 236.5t-239 81.5h-473v-629z" />
<glyph unicode="S" horiz-adv-x="1308" d="M135 1022q0 78 33 147t97.5 123.5t169.5 86.5t239 32q133 0 263.5 -33t213.5 -80l-43 -131q-74 46 -199 80.5t-239 34.5q-191 0 -291 -73t-100 -179q0 -84 56 -136t167 -79l297 -74q189 -47 283 -128t94 -222q0 -187 -151 -299t-396 -112q-135 0 -264 37.5t-207 84.5 l35 131q81 -49 198.5 -86.5t239.5 -37.5q180 0 290.5 74t110.5 198q0 89 -71.5 144.5t-217.5 90.5l-297 72q-148 36 -229.5 120.5t-81.5 213.5z" />
<glyph unicode="T" horiz-adv-x="1284" d="M49 1253v140h1188v-140h-510v-1253h-139v1253h-539z" />
<glyph unicode="U" horiz-adv-x="1613" d="M211 565v828h139v-822q0 -214 114 -339.5t341 -125.5q116 0 205 36t144 100.5t82.5 148t27.5 182.5v820h139v-828q0 -120 -38 -225.5t-110.5 -187.5t-188.5 -129.5t-261 -47.5q-288 0 -441 162t-153 428z" />
<glyph unicode="V" horiz-adv-x="1429" d="M55 1393h152l500 -1268l532 1268h150l-596 -1393h-170z" />
<glyph unicode="W" horiz-adv-x="2201" d="M55 1393h150l502 -1235l335 757l-194 478h149l490 -1217l524 1217h150l-598 -1393h-150l-311 752l-330 -752h-149z" />
<glyph unicode="X" horiz-adv-x="1431" d="M70 0v12l546 684l-546 684v13h159l488 -602l485 602h160v-13l-549 -684l549 -684v-12h-162l-483 600l-486 -600h-161z" />
<glyph unicode="Y" horiz-adv-x="1366" d="M31 1380v13h155l496 -676l498 676h153v-13l-581 -790v-590h-140v588z" />
<glyph unicode="Z" horiz-adv-x="1261" d="M117 0v104l848 1164h-848v125h1026v-105l-846 -1163h846v-125h-1026z" />
<glyph unicode="[" horiz-adv-x="663" d="M197 -385v1839h405v-115h-289v-1607h289v-117h-405z" />
<glyph unicode="\" horiz-adv-x="999" d="M68 1380v13h125l739 -1381v-12h-127z" />
<glyph unicode="]" horiz-adv-x="663" d="M61 -268h289v1607h-289v115h404v-1839h-404v117z" />
<glyph unicode="^" d="M180 831v15l373 547h109l378 -547v-15h-131l-303 451l-295 -451h-131z" />
<glyph unicode="_" horiz-adv-x="1540" d="M258 -86h1024v-115h-1024v115z" />
<glyph unicode="`" d="M473 1518h143l168 -281h-127z" />
<glyph unicode="a" horiz-adv-x="1411" d="M117 530q0 247 144 403.5t378 156.5q109 0 203 -40.5t159 -105.5v127h140v-835q0 -136 98 -136q51 0 119 45l16 -112q-82 -53 -180 -53q-159 0 -184 159q-65 -70 -162 -114.5t-209 -44.5q-235 0 -378.5 153.5t-143.5 396.5zM258 530q0 -189 113.5 -307.5t300.5 -118.5 q97 0 184.5 42t144.5 102v571q-55 61 -142.5 103.5t-186.5 42.5q-188 0 -301 -120.5t-113 -314.5z" />
<glyph unicode="b" horiz-adv-x="1337" d="M195 0v1454h139v-508q66 65 159.5 104.5t204.5 39.5q235 0 379 -154t144 -399t-144.5 -401t-378.5 -156q-114 0 -206.5 40.5t-157.5 106.5v-127h-139zM334 250q52 -60 142 -103t190 -43q186 0 299.5 120.5t113.5 312.5q0 190 -113.5 309t-299.5 119q-99 0 -187.5 -43.5 t-144.5 -106.5v-565z" />
<glyph unicode="c" horiz-adv-x="1245" d="M115 532q0 249 154 408.5t407 159.5q215 0 335 -110t128 -296l-127 -28q-8 144 -92.5 226.5t-243.5 82.5q-192 0 -305 -122.5t-113 -315.5q0 -96 25.5 -174t77 -139t138.5 -94.5t203 -33.5q94 0 191.5 38t177.5 99l57 -112q-88 -70 -201.5 -110t-238.5 -40 q-147 0 -258.5 42t-179.5 118.5t-101.5 177t-33.5 223.5z" />
<glyph unicode="d" horiz-adv-x="1413" d="M115 537q0 244 145 398.5t379 154.5q110 0 204 -40.5t161 -105.5v510h139v-1221q0 -67 22 -100t76 -33q49 0 117 45l18 -112q-35 -23 -85.5 -38t-96.5 -15q-160 0 -186 153q-146 -153 -369 -153q-233 0 -378.5 156t-145.5 401zM256 537q0 -192 114 -312.5t302 -120.5 q100 0 190 43t142 103v565q-56 63 -144.5 106.5t-187.5 43.5q-187 0 -301.5 -119t-114.5 -309z" />
<glyph unicode="e" horiz-adv-x="1261" d="M113 532q0 156 67 284.5t196 206t296 77.5q119 0 210.5 -35t147.5 -97t84.5 -141.5t28.5 -173.5t-19 -168h-870q11 -178 120.5 -286.5t317.5 -108.5q207 0 375 131l59 -104q-184 -146 -438 -146q-147 0 -259.5 44t-180 122t-101.5 177.5t-34 217.5zM258 598h746 q6 69 6 76q0 62 -20 116.5t-60 97.5t-107 68t-153 25q-182 0 -292.5 -110t-119.5 -273z" />
<glyph unicode="f" horiz-adv-x="913" d="M84 893v113h225v106q0 78 19 142.5t58 114.5t104.5 78t152.5 28q88 0 157.5 -32t112.5 -75l-41 -115q-92 97 -217 97q-206 0 -206 -238v-106h401v-113h-401v-893h-140v893h-225z" />
<glyph unicode="g" horiz-adv-x="1337" d="M117 573q0 142 64.5 259.5t185 187.5t274.5 70q112 0 205 -40.5t158 -105.5v127h139v-977q0 -119 -38 -214.5t-104 -157.5t-154.5 -95t-191.5 -33q-43 0 -83 4t-76 13t-62.5 16.5t-57 22t-45 21t-41 21.5t-30.5 17l35 127q47 -30 86 -51t116.5 -43.5t157.5 -22.5 q95 0 172.5 37t127 118.5t49.5 195.5v135q-66 -64 -159.5 -104t-203.5 -40q-154 0 -274.5 69.5t-185 186t-64.5 256.5zM260 573q0 -166 114 -276.5t298 -110.5q100 0 188 41.5t144 102.5v485q-52 61 -142 105.5t-190 44.5q-185 0 -298.5 -112t-113.5 -280z" />
<glyph unicode="h" horiz-adv-x="1388" d="M195 0v1454h139v-580q56 103 157 159.5t234 56.5q134 0 227.5 -63.5t137 -168.5t43.5 -242v-380q0 -136 98 -136q49 0 121 45l16 -112q-82 -53 -182 -53q-193 0 -193 229v389q0 162 -79 261t-232 99q-131 0 -224 -77t-124 -193v-688h-139z" />
<glyph unicode="i" horiz-adv-x="612" d="M166 1376q0 94 100 94q96 0 96 -94t-96 -94q-100 0 -100 94zM195 209v862h139v-835q0 -136 98 -136q56 0 117 45l18 -112q-25 -20 -77.5 -36.5t-104.5 -16.5q-190 0 -190 229z" />
<glyph unicode="j" horiz-adv-x="526" d="M-27 -307q108 59 165 138t57 208v1032h139v-1028q0 -310 -283 -446zM168 1376q0 94 98 94q46 0 70 -22t24 -72q0 -94 -94 -94q-98 0 -98 94z" />
<glyph unicode="k" horiz-adv-x="1239" d="M195 0v1454h139v-866q102 1 181 12t159 42.5t138 83.5t105.5 139t73.5 206h139q-74 -384 -354 -524l383 -524v-23h-158l-350 500q-136 -39 -317 -39v-461h-139z" />
<glyph unicode="l" horiz-adv-x="630" d="M188 221v1233h140v-1204q0 -75 34 -112.5t93 -37.5q65 0 133 45l18 -112q-82 -53 -196 -53q-104 0 -163 58.5t-59 182.5z" />
<glyph unicode="m" horiz-adv-x="2129" d="M195 0v1071h139v-201q57 103 152 161.5t225 58.5q150 0 238.5 -64.5t127.5 -189.5q52 115 155.5 184.5t246.5 69.5q101 0 178 -36t123.5 -101t70 -149.5t23.5 -187.5v-380q0 -66 21.5 -101t74.5 -35q51 0 119 45l18 -112q-35 -23 -85.5 -38t-96.5 -15q-190 0 -190 229 v389q0 164 -74.5 262t-226.5 98q-128 0 -214 -78.5t-116 -195.5v-684h-139v598q0 167 -72.5 263.5t-224.5 96.5q-129 0 -216 -77.5t-118 -196.5v-684h-139z" />
<glyph unicode="n" horiz-adv-x="1388" d="M195 0v1071h139v-197q57 102 157.5 159t233.5 57q134 0 227.5 -63.5t137 -168.5t43.5 -242v-380q0 -136 98 -136q53 0 121 45l16 -112q-80 -53 -182 -53q-193 0 -193 229v389q0 162 -79 261t-232 99q-131 0 -224 -77t-124 -193v-688h-139z" />
<glyph unicode="o" horiz-adv-x="1363" d="M113 532q0 161 72 291t202 203.5t293 73.5q124 0 230.5 -43t181 -118.5t117 -180.5t42.5 -226q0 -160 -72 -287.5t-203 -200.5t-296 -73q-163 0 -293 73t-202 201t-72 287zM248 532q0 -186 121.5 -309t310.5 -123q192 0 314 123t122 309q0 189 -122 314t-314 125 q-189 0 -310.5 -125t-121.5 -314z" />
<glyph unicode="p" horiz-adv-x="1411" d="M35 1040q27 20 78.5 37t103.5 17q162 0 186 -158q65 69 160 111.5t209 42.5q234 0 379 -156t145 -402q0 -243 -145.5 -397.5t-378.5 -154.5q-111 0 -204.5 38.5t-157.5 102.5v-506h-140v1221q0 68 -22.5 101.5t-75.5 33.5q-61 0 -121 -43zM410 246q56 -60 143.5 -101 t185.5 -41q188 0 302 119t114 309q0 192 -114 312.5t-302 120.5q-99 0 -186.5 -43t-142.5 -105v-571z" />
<glyph unicode="q" horiz-adv-x="1335" d="M117 532q0 246 144 402t378 156q112 0 205 -41t157 -109v131h140v-1456h-140v506q-65 -64 -158.5 -102.5t-203.5 -38.5q-234 0 -378 154.5t-144 397.5zM258 532q0 -191 113 -309.5t301 -118.5q99 0 186 41.5t143 102.5v567q-52 61 -141 105.5t-188 44.5 q-187 0 -300.5 -120.5t-113.5 -312.5z" />
<glyph unicode="r" horiz-adv-x="937" d="M37 1036q25 22 76 38t104 16q190 0 193 -222q47 107 115 164.5t175 57.5q145 0 197 -86l-35 -119q-48 73 -178 73q-60 0 -107 -26t-78.5 -74t-52 -100t-36.5 -119v-639h-140v834q0 135 -98 135q-57 0 -119 -43z" />
<glyph unicode="s" horiz-adv-x="1062" d="M111 762q0 145 122 236.5t326 91.5q96 0 205.5 -24.5t171.5 -55.5l-37 -123q-69 34 -164.5 58t-183.5 24q-133 0 -216 -54.5t-83 -144.5q0 -69 42 -98.5t148 -55.5l236 -53q135 -30 202.5 -92.5t67.5 -169.5q0 -143 -109 -232t-302 -89q-220 0 -400 92l31 123 q185 -97 362 -97q132 0 206.5 54t74.5 139q0 64 -51 97t-152 56l-227 52q-138 33 -204 92.5t-66 173.5z" />
<glyph unicode="t" horiz-adv-x="966" d="M53 956v115h215l15 272h125v-272h444v-115h-446v-626q0 -226 200 -226q62 0 134 24t120 60l49 -110q-151 -98 -342 -98q-142 0 -221.5 84t-79.5 241v651h-213z" />
<glyph unicode="u" horiz-adv-x="1386" d="M176 451v620h139v-602q0 -170 77 -265t237 -95q129 0 220 70t128 173v719h139v-835q0 -136 96 -136q49 0 121 45l17 -112q-77 -53 -183 -53q-175 0 -190 192q-59 -92 -159.5 -142t-231.5 -50q-201 0 -305.5 128t-104.5 343z" />
<glyph unicode="v" horiz-adv-x="1394" d="M35 1038q82 54 180 54q193 0 193 -230v-395q0 -171 89.5 -264.5t243.5 -93.5q160 0 264.5 108.5t104.5 294.5q0 277 -119 559h148q110 -287 110 -565q0 -236 -142.5 -381t-365.5 -145q-220 0 -346.5 125.5t-126.5 345.5v385q0 67 -22 100t-76 33q-57 0 -119 -41z" />
<glyph unicode="w" horiz-adv-x="2115" d="M35 1040q98 50 186 50q189 0 189 -226v-397q0 -176 77 -267t228 -91q152 0 242 99t90 263v600h139v-606q0 -162 78 -259t227 -97q162 0 250 115.5t88 291.5q0 251 -117 555h146q110 -287 110 -565q0 -239 -127.5 -382.5t-341.5 -143.5q-158 0 -249.5 65t-137.5 205 q-98 -270 -412 -270q-211 0 -320.5 122.5t-109.5 348.5v385q0 69 -21.5 102t-78.5 33q-59 0 -119 -43z" />
<glyph unicode="x" horiz-adv-x="1161" d="M70 0v12l413 520l-413 527v12h153l359 -453l358 453h154v-12l-416 -527l416 -520v-12h-158l-354 446l-355 -446h-157z" />
<glyph unicode="y" horiz-adv-x="1179" d="M20 -332l27 117q106 -70 217 -70q94 0 149 50.5t101 160.5l35 84l-514 1061h153l424 -917l387 917h142l-492 -1145q-35 -84 -68 -141t-78.5 -102.5t-104 -67t-134.5 -21.5q-130 0 -244 74z" />
<glyph unicode="z" horiz-adv-x="1064" d="M104 0v104l680 852h-680v115h857v-104l-678 -852h678v-115h-857z" />
<glyph unicode="{" horiz-adv-x="602" d="M96 483v92q199 0 199 154q0 58 -20 130.5t-44.5 129t-44.5 124.5t-20 118q0 97 64.5 160t197.5 63h76v-104h-64q-73 0 -116 -41.5t-43 -104.5q0 -43 20 -107.5t44.5 -122.5t44.5 -131t20 -130q0 -79 -35.5 -122.5t-118.5 -60.5q84 -17 119 -61.5t35 -128.5 q0 -70 -32 -164.5t-64.5 -182t-32.5 -140.5q0 -63 43 -104.5t116 -41.5h64v-104h-76q-133 0 -197.5 63.5t-64.5 163.5q0 50 20 118.5t44.5 125.5t44.5 129.5t20 130.5q0 76 -48 112.5t-151 36.5z" />
<glyph unicode="|" horiz-adv-x="509" d="M197 -385v1839h116v-1839h-116z" />
<glyph unicode="}" horiz-adv-x="600" d="M96 -293h66q73 0 115 41t42 105q0 53 -31.5 140.5t-63 182t-31.5 164.5q0 85 34.5 129t118.5 61q-83 17 -118 60t-35 123q0 72 31.5 167.5t63 183t31.5 140.5q0 64 -42 105t-115 41h-66v104h76q133 0 197.5 -63t64.5 -160q0 -50 -20 -118t-43.5 -124.5t-43.5 -129 t-20 -130.5q0 -77 47.5 -115.5t149.5 -38.5v-92q-103 0 -150 -36.5t-47 -112.5q0 -58 20 -130.5t43.5 -129.5t43.5 -125.5t20 -118.5q0 -100 -64.5 -163.5t-197.5 -63.5h-76v104z" />
<glyph unicode="~" horiz-adv-x="1058" d="M152 575q13 78 66.5 131.5t131.5 53.5q40 0 80.5 -18t74 -44t65.5 -52t66.5 -44t65.5 -18q113 0 146 137l59 -59q-18 -84 -71 -135.5t-129 -51.5q-39 0 -78 18t-71.5 44t-64 52t-68 44t-71.5 18q-50 0 -91 -35.5t-52 -101.5z" />
<glyph unicode="&#xa1;" horiz-adv-x="538" d="M154 983q0 57 30 87t86 30q54 0 83.5 -30t29.5 -87t-29.5 -88t-83.5 -31q-56 0 -86 31t-30 88zM199 -322l16 918h109l16 -918h-141z" />
<glyph unicode="&#xa2;" d="M102 532q0 249 154.5 408.5t407.5 159.5q58 0 102 -8l59 215l90 -23l-59 -215q124 -42 193 -140t75 -235l-116 -24q-13 218 -185 284l-237 -856q47 -6 100 -6q188 0 373 137l57 -108q-192 -150 -440 -150q-35 0 -123 9l-70 -256l-90 24l70 252q-183 51 -272 190.5 t-89 341.5zM236 537q0 -155 64.5 -264.5t195.5 -153.5l237 858q-34 6 -69 6q-195 0 -311.5 -124.5t-116.5 -321.5z" />
<glyph unicode="&#xa3;" d="M80 170q0 85 56.5 138.5t148.5 53.5q70 0 110 -24v20q0 86 -53 308h-205v94h185q-27 135 -27 254q0 176 102.5 287.5t298.5 111.5q72 0 140.5 -20.5t119.5 -52.5t83.5 -59t54.5 -52l-54 -117q-62 69 -99 97q-99 75 -222 75q-140 0 -212.5 -82t-72.5 -215q0 -81 23 -227 h479v-94h-461q41 -223 41 -310q0 -41 -2 -59q29 -16 95 -69.5t126.5 -90.5t108.5 -37q102 0 144 85t42 249h113v-45q0 -193 -68.5 -301t-210.5 -108q-63 0 -129.5 38t-141.5 101.5t-101 79.5q-28 -102 -82 -160.5t-150 -58.5q-87 0 -133.5 52t-46.5 138zM174 168 q0 -98 88 -98q59 0 86.5 47.5t38.5 130.5q-40 28 -92 28t-86.5 -29.5t-34.5 -78.5z" />
<glyph unicode="&#xa4;" horiz-adv-x="1161" d="M176 297l115 111q-72 88 -72 208q0 123 72 211l-115 115l84 82l115 -119q85 66 200 66q123 0 209 -70l119 123l84 -82l-123 -121q68 -87 68 -205q0 -115 -66 -200l121 -119l-84 -82l-119 119q-89 -66 -209 -66q-116 0 -200 62l-115 -115zM324 616q0 -107 71 -178t180 -71 q111 0 181.5 71t70.5 178q0 109 -70.5 181.5t-181.5 72.5q-109 0 -180 -73t-71 -181z" />
<glyph unicode="&#xa5;" d="M88 1380v13h145l379 -688l381 688h148v-13l-422 -725h319v-94h-356v-149h356v-95h-356v-317h-139v317h-357v95h357v149h-357v94h318z" />
<glyph unicode="&#xa6;" horiz-adv-x="532" d="M209 326h115v-711h-115v711zM209 768v686h115v-686h-115z" />
<glyph unicode="&#xa7;" horiz-adv-x="1343" d="M158 596q0 91 54.5 167t162.5 120q-211 49 -211 223q0 130 131 218.5t371 88.5q149 0 277.5 -26.5t215.5 -63.5l-39 -119q-80 36 -211 65t-256 29q-169 0 -261.5 -53.5t-92.5 -128.5q0 -103 156 -127l358 -59q178 -29 276.5 -113.5t98.5 -208.5q0 -96 -59 -168t-168 -112 q110 -31 168.5 -84.5t58.5 -137.5q0 -140 -144 -222.5t-374 -82.5q-147 0 -277 28.5t-213 64.5l33 122q81 -37 209 -67.5t260 -30.5q159 0 262 45.5t103 130.5q0 63 -58 94.5t-188 55.5l-334 61q-161 30 -235 100.5t-74 190.5zM289 610q0 -80 49.5 -124.5t171.5 -67.5 l207 -39q153 2 243.5 60.5t90.5 156.5q0 177 -279 221l-174 27q-154 -7 -231.5 -76.5t-77.5 -157.5z" />
<glyph unicode="&#xa8;" d="M281 1374q0 92 94 92q92 0 92 -92q0 -45 -25.5 -67.5t-66.5 -22.5q-43 0 -68.5 22.5t-25.5 67.5zM791 1374q0 92 96 92q90 0 90 -92q0 -45 -24.5 -67.5t-65.5 -22.5q-44 0 -70 22.5t-26 67.5z" />
<glyph unicode="&#xa9;" horiz-adv-x="1718" d="M141 694q0 152 54.5 285.5t149.5 228.5t227.5 150t283.5 55q152 0 285.5 -55t228.5 -150t150 -228.5t55 -285.5q0 -201 -93 -364.5t-258 -256.5t-368 -93q-201 0 -365 93t-257 256.5t-93 364.5zM231 694q0 -177 81 -320.5t224.5 -225.5t319.5 -82q178 0 323 82 t226.5 225.5t81.5 320.5q0 134 -48 251.5t-131.5 201t-200.5 132t-251 48.5q-132 0 -248 -48.5t-199 -132t-130.5 -201t-47.5 -251.5zM508 694q0 166 98.5 262.5t255.5 96.5q132 0 207 -70t78 -192l-94 -23q-2 87 -51.5 134.5t-139.5 47.5q-109 0 -175 -68t-66 -188 t66.5 -188t178.5 -68q61 0 120 25.5t99 62.5l64 -77q-51 -48 -127.5 -80.5t-159.5 -32.5q-157 0 -255.5 96t-98.5 262z" />
<glyph unicode="&#xaa;" horiz-adv-x="1015" d="M172 922q0 114 92 173.5t248 59.5q46 0 104 -12v35q0 76 -36.5 108.5t-118.5 32.5q-117 0 -207 -49l-21 92q40 20 106.5 32.5t119.5 12.5q123 0 191.5 -54t68.5 -167v-309q0 -80 59 -80q28 0 72 26l8 -82q-58 -32 -119 -32q-92 0 -114 90q-90 -90 -219 -90 q-107 0 -170.5 57t-63.5 156zM201 440v88h620v-88h-620zM270 928q0 -61 44.5 -96t117.5 -35q102 0 184 73v199q-34 12 -100 12q-246 0 -246 -153z" />
<glyph unicode="&#xab;" horiz-adv-x="1058" d="M109 604v31l325 407h12l50 -43l-267 -378l269 -381l-52 -41h-12zM530 604v31l326 407h12l50 -43l-267 -378l269 -381l-52 -41h-12z" />
<glyph unicode="&#xac;" d="M145 684v115h936v-525h-114v410h-822z" />
<glyph unicode="&#xad;" horiz-adv-x="1085" d="M164 561v117h760v-117h-760z" />
<glyph unicode="&#xae;" horiz-adv-x="1718" d="M141 694q0 152 54.5 285.5t149.5 228.5t227.5 150t283.5 55q152 0 285.5 -55t228.5 -150t150 -228.5t55 -285.5q0 -201 -93 -364.5t-258 -256.5t-368 -93q-201 0 -365 93t-257 256.5t-93 364.5zM231 694q0 -177 81 -320.5t224.5 -225.5t319.5 -82q178 0 323 82 t226.5 225.5t81.5 320.5q0 134 -48 251.5t-131.5 201t-200.5 132t-251 48.5q-132 0 -248 -48.5t-199 -132t-130.5 -201t-47.5 -251.5zM580 346v696h264q293 0 293 -225q0 -99 -62.5 -151t-161.5 -64q10 -10 41 -41.5t48.5 -47.5t45 -37.5t53 -31.5t50.5 -10q41 0 88 21 l12 -93q-54 -26 -112 -26q-47 0 -95 24.5t-86.5 60.5t-72.5 72t-65 65t-52 34v8h-80v-254h-108zM688 680h201q60 0 100.5 36.5t40.5 96.5q0 67 -40 102t-101 35h-201v-270z" />
<glyph unicode="&#xaf;" d="M383 1303v102h489v-102h-489z" />
<glyph unicode="&#xb0;" horiz-adv-x="946" d="M117 1059q0 151 100.5 251.5t255.5 100.5q156 0 256 -100t100 -252t-100 -251t-256 -99q-155 0 -255.5 99.5t-100.5 250.5zM221 1059q0 -108 71 -179t181 -71q111 0 181.5 71t70.5 179t-70.5 180t-181.5 72q-110 0 -181 -72t-71 -180z" />
<glyph unicode="&#xb1;" d="M147 166v115h934v-115h-934zM147 788v115h410v410h115v-410h409v-115h-409v-321h-115v321h-410z" />
<glyph unicode="&#xb2;" horiz-adv-x="675" d="M86 1391q3 103 68 165t180 62q116 0 175.5 -59t59.5 -156q0 -128 -139 -229l-192 -142h352v-78h-490v70l269 203q112 81 112 174q0 60 -38 97.5t-109 37.5q-80 0 -122 -43.5t-44 -114.5z" />
<glyph unicode="&#xb3;" horiz-adv-x="669" d="M86 987l23 76q97 -41 196 -41q79 0 130.5 33t51.5 90q0 51 -40.5 78.5t-116.5 27.5h-168v76h168q63 0 100 32t37 75q0 106 -162 106q-104 0 -196 -45l-21 78q115 45 217 45q118 0 184 -46t66 -130q0 -55 -32.5 -96.5t-90.5 -51.5q70 -12 108 -53t38 -108 q0 -88 -73.5 -138.5t-199.5 -50.5q-101 0 -219 43z" />
<glyph unicode="&#xb4;" d="M473 1237l168 281h143l-184 -281h-127z" />
<glyph unicode="&#xb5;" horiz-adv-x="1318" d="M213 -385v1456h139v-608q7 -354 312 -354q131 0 223 72t127 177v713h139v-1071h-139v174q-61 -93 -161.5 -143.5t-231.5 -50.5q-165 0 -269 90v-455h-139z" />
<glyph unicode="&#xb6;" horiz-adv-x="1077" d="M82 836q0 110 68 171.5t176 63.5h231v-1456h-113v987h-118q-108 0 -176 61.5t-68 172.5zM766 -385v1456h115v-1456h-115z" />
<glyph unicode="&#xb7;" horiz-adv-x="538" d="M158 610q0 56 28 85.5t82 29.5t83.5 -30t29.5 -85q0 -114 -113 -114q-110 0 -110 114z" />
<glyph unicode="&#xb8;" d="M436 -381l17 62q73 -25 131 -25q59 0 95 21.5t36 62.5q0 72 -119 72q-70 0 -123 -17l-6 8l53 197h72l-37 -137q36 8 68 8q78 0 124 -35.5t46 -93.5q0 -70 -58.5 -109t-148.5 -39q-73 0 -150 25z" />
<glyph unicode="&#xb9;" horiz-adv-x="516" d="M37 1468l276 138h72v-654h-88v557l-225 -110z" />
<glyph unicode="&#xba;" horiz-adv-x="1042" d="M166 1059q0 151 100.5 251.5t255.5 100.5q156 0 256.5 -100t100.5 -252q0 -151 -100.5 -250.5t-256.5 -99.5q-155 0 -255.5 99.5t-100.5 250.5zM213 440v88h621v-88h-621zM262 1059q0 -111 73 -184.5t187 -73.5t186 73.5t72 184.5q0 112 -72 186t-186 74t-187 -74.5 t-73 -185.5z" />
<glyph unicode="&#xbb;" horiz-adv-x="1058" d="M141 999l52 43h12l325 -407v-31l-325 -405h-12l-50 41l265 381zM563 999l51 43h13l325 -407v-31l-325 -405h-13l-49 41l264 381z" />
<glyph unicode="&#xbc;" horiz-adv-x="1548" d="M72 1264l276 137h72v-653h-88v557l-226 -111zM268 0v12l756 1381h90v-13l-754 -1380h-92zM852 137v64l367 452l20 -4v4h88v-446h137v-70h-137v-137h-88v137h-387zM946 207h293v360z" />
<glyph unicode="&#xbd;" horiz-adv-x="1501" d="M72 1253l276 138h72v-654h-88v557l-226 -110zM268 0v12l756 1381h90v-13l-754 -1380h-92zM891 436q3 104 68 166t180 62q116 0 175.5 -59t59.5 -156q0 -129 -139 -230l-193 -141h353v-78h-490v70l269 202q112 81 112 174q0 60 -38 98t-109 38q-80 0 -122 -43.5 t-44 -114.5z" />
<glyph unicode="&#xbe;" horiz-adv-x="1679" d="M117 782l22 76q97 -41 197 -41q79 0 130.5 33t51.5 90q0 51 -41 79t-117 28h-167v75h167q63 0 100.5 32t37.5 75q0 106 -162 106q-105 0 -197 -45l-20 78q115 45 217 45q118 0 184 -46t66 -130q0 -55 -32.5 -96t-90.5 -51q70 -12 107.5 -53.5t37.5 -108.5 q0 -88 -73 -138.5t-199 -50.5q-101 0 -219 43zM406 0v12l755 1381h90v-13l-753 -1380h-92zM989 137v64l367 452l20 -4v4h88v-446h138v-70h-138v-137h-88v137h-387zM1083 207h293v360z" />
<glyph unicode="&#xbf;" horiz-adv-x="972" d="M113 6q0 65 14.5 116.5t45.5 91t57 63.5t71 57l127 90q45 33 60.5 56t15.5 61q0 28 -8 55h120q13 -41 13 -84q0 -52 -26.5 -91t-82.5 -77l-121 -88q-48 -35 -75 -62t-48.5 -74t-21.5 -106q0 -108 74.5 -173.5t185.5 -65.5q112 0 191 47t124 119l56 -103 q-127 -182 -387 -182q-170 0 -277.5 97.5t-107.5 252.5zM438 983q0 57 30.5 87t86.5 30q54 0 83.5 -30t29.5 -87t-29.5 -88t-83.5 -31q-56 0 -86.5 31t-30.5 88z" />
<glyph unicode="&#xc0;" horiz-adv-x="1423" d="M41 0l598 1393h160l567 -1393h-141l-140 338h-757l-146 -338h-141zM369 446h680l-330 805zM479 1839h144l168 -280h-127z" />
<glyph unicode="&#xc1;" horiz-adv-x="1423" d="M41 0l598 1393h160l567 -1393h-141l-140 338h-757l-146 -338h-141zM369 446h680l-330 805zM629 1559l168 280h143l-184 -280h-127z" />
<glyph unicode="&#xc2;" horiz-adv-x="1423" d="M41 0l598 1393h160l567 -1393h-141l-140 338h-757l-146 -338h-141zM369 446h680l-330 805zM424 1559l223 280h141l224 -280h-123l-172 200l-170 -200h-123z" />
<glyph unicode="&#xc3;" horiz-adv-x="1423" d="M41 0l598 1393h160l567 -1393h-141l-140 338h-757l-146 -338h-141zM369 446h680l-330 805zM373 1665q30 59 81.5 101t114.5 42q38 0 82 -21.5t76.5 -48t70 -48t64.5 -21.5q95 0 144 100l53 -59q-31 -63 -82.5 -103t-112.5 -40q-37 0 -81 21.5t-77 48t-71 48t-64 21.5 q-88 0 -145 -102z" />
<glyph unicode="&#xc4;" horiz-adv-x="1423" d="M41 0l598 1393h160l567 -1393h-141l-140 338h-757l-146 -338h-141zM369 446h680l-330 805zM371 1696q0 92 94 92q92 0 92 -92q0 -45 -25.5 -67.5t-66.5 -22.5q-43 0 -68.5 22.5t-25.5 67.5zM881 1696q0 92 96 92q90 0 90 -92q0 -45 -24.5 -67.5t-65.5 -22.5 q-44 0 -70 22.5t-26 67.5z" />
<glyph unicode="&#xc5;" horiz-adv-x="1423" d="M41 0l582 1354q-49 27 -78 74t-29 104q0 83 59 142t142 59t142 -59t59 -142q0 -56 -29 -103.5t-76 -72.5l553 -1356h-141l-140 338h-757l-146 -338h-141zM369 446h680l-330 805zM588 1532q0 -54 37.5 -91.5t91.5 -37.5t91.5 37.5t37.5 91.5t-37.5 91.5t-91.5 37.5 t-91.5 -37.5t-37.5 -91.5z" />
<glyph unicode="&#xc6;" horiz-adv-x="2170" d="M12 0l885 1393h1128v-125h-923v-484h774v-116h-774v-543h923v-125h-1058v338h-584l-217 -338h-154zM444 446h523v826z" />
<glyph unicode="&#xc7;" horiz-adv-x="1546" d="M141 694q0 222 91 386t250 248.5t366 84.5q265 0 414 -140t155 -386l-129 -27q-6 200 -119.5 311t-322.5 111q-254 0 -407.5 -156.5t-153.5 -431.5q0 -272 154 -427.5t411 -155.5q139 0 272 57.5t224 142.5l73 -106q-101 -96 -254 -160.5t-317 -64.5q-27 0 -41 2 l-31 -119q36 8 68 8q78 0 124 -35.5t46 -93.5q0 -70 -58.5 -109t-148.5 -39q-73 0 -150 25l17 62q73 -25 131 -25q59 0 95 21.5t36 62.5q0 72 -119 72q-70 0 -123 -17l-6 8l49 185q-270 33 -433 219.5t-163 486.5z" />
<glyph unicode="&#xc8;" horiz-adv-x="1433" d="M229 0v1393h1059v-125h-923v-480h774v-124h-774v-539h923v-125h-1059zM518 1839h144l167 -280h-127z" />
<glyph unicode="&#xc9;" horiz-adv-x="1433" d="M229 0v1393h1059v-125h-923v-480h774v-124h-774v-539h923v-125h-1059zM674 1559l168 280h143l-184 -280h-127z" />
<glyph unicode="&#xca;" horiz-adv-x="1433" d="M229 0v1393h1059v-125h-923v-480h774v-124h-774v-539h923v-125h-1059zM463 1559l223 280h141l224 -280h-123l-172 200l-170 -200h-123z" />
<glyph unicode="&#xcb;" horiz-adv-x="1433" d="M229 0v1393h1059v-125h-923v-480h774v-124h-774v-539h923v-125h-1059zM410 1696q0 92 94 92q92 0 92 -92q0 -45 -25.5 -67.5t-66.5 -22.5q-43 0 -68.5 22.5t-25.5 67.5zM920 1696q0 92 96 92q90 0 90 -92q0 -45 -24.5 -67.5t-65.5 -22.5q-44 0 -70 22.5t-26 67.5z" />
<glyph unicode="&#xcc;" horiz-adv-x="598" d="M68 1839h143l168 -280h-127zM229 0v1393h140v-1393h-140z" />
<glyph unicode="&#xcd;" horiz-adv-x="598" d="M229 0v1393h140v-1393h-140zM229 1559l168 280h144l-185 -280h-127z" />
<glyph unicode="&#xce;" horiz-adv-x="598" d="M4 1559l223 280h142l223 -280h-123l-172 200l-170 -200h-123zM229 0v1393h140v-1393h-140z" />
<glyph unicode="&#xcf;" horiz-adv-x="598" d="M-51 1696q0 92 94 92q92 0 92 -92q0 -45 -25.5 -67.5t-66.5 -22.5q-43 0 -68.5 22.5t-25.5 67.5zM229 0v1393h140v-1393h-140zM459 1696q0 92 96 92q90 0 90 -92q0 -45 -24.5 -67.5t-65.5 -22.5q-44 0 -70 22.5t-26 67.5z" />
<glyph unicode="&#xd0;" horiz-adv-x="1622" d="M98 641v115h133v637h533q155 -1 286 -47t227.5 -132.5t151 -220t54.5 -299.5q0 -165 -54.5 -297.5t-151 -218.5t-227.5 -132t-286 -46h-533v641h-133zM371 125h389q170 0 300 64t205.5 194t75.5 311q0 183 -76 314.5t-205.5 195.5t-299.5 64h-389v-512h358v-115h-358 v-516z" />
<glyph unicode="&#xd1;" horiz-adv-x="1712" d="M229 0v1393h125l989 -1174v1174h140v-1393h-125l-989 1169v-1169h-140zM526 1665q29 59 81.5 101t115.5 42q38 0 82 -21.5t76.5 -48t70 -48t64.5 -21.5q94 0 143 100l53 -59q-31 -63 -82 -103t-112 -40q-37 0 -81 21.5t-77 48t-71 48t-64 21.5q-88 0 -145 -102z" />
<glyph unicode="&#xd2;" horiz-adv-x="1703" d="M135 694q0 152 54.5 285.5t149.5 228.5t227.5 150t283.5 55q152 0 285.5 -55t228.5 -150t150 -228.5t55 -285.5q0 -201 -93 -364.5t-258 -256.5t-368 -93q-201 0 -365 93t-257 256.5t-93 364.5zM272 694q0 -165 75 -298.5t207 -209t296 -75.5q166 0 299.5 75.5t208 209 t74.5 298.5q0 254 -164.5 420t-417.5 166q-249 0 -413.5 -166.5t-164.5 -419.5zM608 1839h144l168 -280h-127z" />
<glyph unicode="&#xd3;" horiz-adv-x="1703" d="M135 694q0 152 54.5 285.5t149.5 228.5t227.5 150t283.5 55q152 0 285.5 -55t228.5 -150t150 -228.5t55 -285.5q0 -201 -93 -364.5t-258 -256.5t-368 -93q-201 0 -365 93t-257 256.5t-93 364.5zM272 694q0 -165 75 -298.5t207 -209t296 -75.5q166 0 299.5 75.5t208 209 t74.5 298.5q0 254 -164.5 420t-417.5 166q-249 0 -413.5 -166.5t-164.5 -419.5zM780 1559l168 280h144l-185 -280h-127z" />
<glyph unicode="&#xd4;" horiz-adv-x="1703" d="M135 694q0 152 54.5 285.5t149.5 228.5t227.5 150t283.5 55q152 0 285.5 -55t228.5 -150t150 -228.5t55 -285.5q0 -201 -93 -364.5t-258 -256.5t-368 -93q-201 0 -365 93t-257 256.5t-93 364.5zM272 694q0 -165 75 -298.5t207 -209t296 -75.5q166 0 299.5 75.5t208 209 t74.5 298.5q0 254 -164.5 420t-417.5 166q-249 0 -413.5 -166.5t-164.5 -419.5zM555 1559l223 280h142l223 -280h-123l-172 200l-170 -200h-123z" />
<glyph unicode="&#xd5;" horiz-adv-x="1703" d="M135 694q0 152 54.5 285.5t149.5 228.5t227.5 150t283.5 55q152 0 285.5 -55t228.5 -150t150 -228.5t55 -285.5q0 -201 -93 -364.5t-258 -256.5t-368 -93q-201 0 -365 93t-257 256.5t-93 364.5zM272 694q0 -165 75 -298.5t207 -209t296 -75.5q166 0 299.5 75.5t208 209 t74.5 298.5q0 254 -164.5 420t-417.5 166q-249 0 -413.5 -166.5t-164.5 -419.5zM506 1665q30 59 81.5 101t114.5 42q38 0 82 -21.5t76.5 -48t70 -48t64.5 -21.5q95 0 144 100l53 -59q-31 -63 -82.5 -103t-112.5 -40q-37 0 -81 21.5t-77 48t-70.5 48t-63.5 21.5 q-89 0 -146 -102z" />
<glyph unicode="&#xd6;" horiz-adv-x="1703" d="M135 694q0 152 54.5 285.5t149.5 228.5t227.5 150t283.5 55q152 0 285.5 -55t228.5 -150t150 -228.5t55 -285.5q0 -201 -93 -364.5t-258 -256.5t-368 -93q-201 0 -365 93t-257 256.5t-93 364.5zM272 694q0 -165 75 -298.5t207 -209t296 -75.5q166 0 299.5 75.5t208 209 t74.5 298.5q0 254 -164.5 420t-417.5 166q-249 0 -413.5 -166.5t-164.5 -419.5zM502 1696q0 92 94 92q92 0 92 -92q0 -45 -25.5 -67.5t-66.5 -22.5q-43 0 -68.5 22.5t-25.5 67.5zM1012 1696q0 92 96 92q90 0 90 -92q0 -45 -24.5 -67.5t-65.5 -22.5q-44 0 -70 22.5t-26 67.5z " />
<glyph unicode="&#xd7;" d="M244 330l288 288l-288 289l82 82l288 -289l289 289l82 -82l-291 -289l291 -288l-82 -82l-289 291l-288 -291z" />
<glyph unicode="&#xd8;" horiz-adv-x="1703" d="M135 694q0 152 54.5 285.5t149.5 228.5t227.5 150t283.5 55q240 0 424 -129l88 109h111v-13l-127 -155q106 -98 164.5 -235t58.5 -296q0 -201 -93 -364.5t-258 -256.5t-368 -93q-234 0 -414 122l-84 -102h-108v12l121 148q-109 98 -169.5 236t-60.5 298zM270 694 q0 -129 46.5 -240t132.5 -190l741 916q-152 102 -340 102q-165 0 -297.5 -76t-207.5 -210.5t-75 -301.5zM520 207q145 -96 330 -96q166 0 299.5 75.5t208 209t74.5 298.5q0 256 -170 426z" />
<glyph unicode="&#xd9;" horiz-adv-x="1613" d="M211 565v828h139v-822q0 -214 114 -339.5t341 -125.5q116 0 205 36t144 100.5t82.5 148t27.5 182.5v820h139v-828q0 -120 -38 -225.5t-110.5 -187.5t-188.5 -129.5t-261 -47.5q-288 0 -441 162t-153 428zM563 1839h144l167 -280h-126z" />
<glyph unicode="&#xda;" horiz-adv-x="1613" d="M211 565v828h139v-822q0 -214 114 -339.5t341 -125.5q116 0 205 36t144 100.5t82.5 148t27.5 182.5v820h139v-828q0 -120 -38 -225.5t-110.5 -187.5t-188.5 -129.5t-261 -47.5q-288 0 -441 162t-153 428zM737 1559l168 280h144l-185 -280h-127z" />
<glyph unicode="&#xdb;" horiz-adv-x="1613" d="M211 565v828h139v-822q0 -214 114 -339.5t341 -125.5q116 0 205 36t144 100.5t82.5 148t27.5 182.5v820h139v-828q0 -120 -38 -225.5t-110.5 -187.5t-188.5 -129.5t-261 -47.5q-288 0 -441 162t-153 428zM510 1559l223 280h141l224 -280h-123l-172 200l-170 -200h-123z " />
<glyph unicode="&#xdc;" horiz-adv-x="1613" d="M211 565v828h139v-822q0 -214 114 -339.5t341 -125.5q116 0 205 36t144 100.5t82.5 148t27.5 182.5v820h139v-828q0 -120 -38 -225.5t-110.5 -187.5t-188.5 -129.5t-261 -47.5q-288 0 -441 162t-153 428zM457 1696q0 92 94 92q92 0 92 -92q0 -45 -25.5 -67.5t-66.5 -22.5 q-43 0 -68.5 22.5t-25.5 67.5zM967 1696q0 92 96 92q90 0 90 -92q0 -45 -24.5 -67.5t-65.5 -22.5q-44 0 -70 22.5t-26 67.5z" />
<glyph unicode="&#xdd;" horiz-adv-x="1366" d="M31 1380v13h155l496 -676l498 676h153v-13l-581 -790v-590h-140v588zM612 1559l168 280h144l-185 -280h-127z" />
<glyph unicode="&#xde;" horiz-adv-x="1413" d="M229 0v1393h140v-226h458q102 0 187 -25t153.5 -77t107 -142.5t38.5 -211.5q0 -110 -39 -197t-106 -141t-154 -82.5t-187 -28.5h-458v-262h-140zM369 385h442q157 0 258.5 83.5t101.5 244.5q0 89 -28 154.5t-78.5 103t-113.5 55.5t-140 18h-442v-659z" />
<glyph unicode="&#xdf;" horiz-adv-x="1349" d="M195 0v930q0 255 136.5 400t354.5 145q199 0 321.5 -115t122.5 -279q0 -55 -19.5 -106.5t-47.5 -88t-56 -66t-47.5 -52.5t-19.5 -37q0 -12 31.5 -36t76 -58.5t89.5 -78t76.5 -107t31.5 -132.5q0 -162 -110 -250.5t-285 -88.5q-186 0 -309 67l24 117q107 -64 250 -64 q124 0 202.5 62.5t78.5 167.5q0 58 -32 111t-77.5 91t-91 70.5t-77.5 62.5t-32 54q0 25 21 53.5t51 58t59.5 63.5t50.5 81.5t21 99.5q0 121 -90.5 198t-220.5 77q-160 0 -252 -110.5t-92 -299.5v-940h-139z" />
<glyph unicode="&#xe0;" horiz-adv-x="1411" d="M117 530q0 247 144 403.5t378 156.5q109 0 203 -40.5t159 -105.5v127h140v-835q0 -136 98 -136q51 0 119 45l16 -112q-82 -53 -180 -53q-159 0 -184 159q-65 -70 -162 -114.5t-209 -44.5q-235 0 -378.5 153.5t-143.5 396.5zM258 530q0 -189 113.5 -307.5t300.5 -118.5 q97 0 184.5 42t144.5 102v571q-55 61 -142.5 103.5t-186.5 42.5q-188 0 -301 -120.5t-113 -314.5zM479 1518h144l168 -281h-127z" />
<glyph unicode="&#xe1;" horiz-adv-x="1411" d="M117 530q0 247 144 403.5t378 156.5q109 0 203 -40.5t159 -105.5v127h140v-835q0 -136 98 -136q51 0 119 45l16 -112q-82 -53 -180 -53q-159 0 -184 159q-65 -70 -162 -114.5t-209 -44.5q-235 0 -378.5 153.5t-143.5 396.5zM258 530q0 -189 113.5 -307.5t300.5 -118.5 q97 0 184.5 42t144.5 102v571q-55 61 -142.5 103.5t-186.5 42.5q-188 0 -301 -120.5t-113 -314.5zM631 1237l168 281h143l-184 -281h-127z" />
<glyph unicode="&#xe2;" horiz-adv-x="1411" d="M117 530q0 247 144 403.5t378 156.5q109 0 203 -40.5t159 -105.5v127h140v-835q0 -136 98 -136q51 0 119 45l16 -112q-82 -53 -180 -53q-159 0 -184 159q-65 -70 -162 -114.5t-209 -44.5q-235 0 -378.5 153.5t-143.5 396.5zM258 530q0 -189 113.5 -307.5t300.5 -118.5 q97 0 184.5 42t144.5 102v571q-55 61 -142.5 103.5t-186.5 42.5q-188 0 -301 -120.5t-113 -314.5zM391 1237l223 281h142l223 -281h-123l-172 201l-170 -201h-123z" />
<glyph unicode="&#xe3;" horiz-adv-x="1411" d="M117 530q0 247 144 403.5t378 156.5q109 0 203 -40.5t159 -105.5v127h140v-835q0 -136 98 -136q51 0 119 45l16 -112q-82 -53 -180 -53q-159 0 -184 159q-65 -70 -162 -114.5t-209 -44.5q-235 0 -378.5 153.5t-143.5 396.5zM258 530q0 -189 113.5 -307.5t300.5 -118.5 q97 0 184.5 42t144.5 102v571q-55 61 -142.5 103.5t-186.5 42.5q-188 0 -301 -120.5t-113 -314.5zM346 1343q30 59 82 101.5t115 42.5q38 0 82 -21.5t76.5 -48t70 -48t64.5 -21.5q94 0 143 100l53 -59q-32 -63 -82.5 -103.5t-111.5 -40.5q-37 0 -81 21.5t-77 48t-71 48 t-64 21.5q-89 0 -146 -102z" />
<glyph unicode="&#xe4;" horiz-adv-x="1411" d="M117 530q0 247 144 403.5t378 156.5q109 0 203 -40.5t159 -105.5v127h140v-835q0 -136 98 -136q51 0 119 45l16 -112q-82 -53 -180 -53q-159 0 -184 159q-65 -70 -162 -114.5t-209 -44.5q-235 0 -378.5 153.5t-143.5 396.5zM258 530q0 -189 113.5 -307.5t300.5 -118.5 q97 0 184.5 42t144.5 102v571q-55 61 -142.5 103.5t-186.5 42.5q-188 0 -301 -120.5t-113 -314.5zM373 1374q0 92 94 92q92 0 92 -92q0 -45 -25.5 -67.5t-66.5 -22.5q-43 0 -68.5 22.5t-25.5 67.5zM883 1374q0 92 96 92q90 0 90 -92q0 -45 -24.5 -67.5t-65.5 -22.5 q-44 0 -70 22.5t-26 67.5z" />
<glyph unicode="&#xe5;" horiz-adv-x="1411" d="M117 530q0 247 144 403.5t378 156.5q109 0 203 -40.5t159 -105.5v127h140v-835q0 -136 98 -136q51 0 119 45l16 -112q-82 -53 -180 -53q-159 0 -184 159q-65 -70 -162 -114.5t-209 -44.5q-235 0 -378.5 153.5t-143.5 396.5zM258 530q0 -189 113.5 -307.5t300.5 -118.5 q97 0 184.5 42t144.5 102v571q-55 61 -142.5 103.5t-186.5 42.5q-188 0 -301 -120.5t-113 -314.5zM500 1372q0 83 58.5 142t141.5 59t142 -59t59 -142t-59 -142t-142 -59t-141.5 59t-58.5 142zM571 1372q0 -54 37.5 -91.5t91.5 -37.5t91.5 37.5t37.5 91.5t-37.5 91.5 t-91.5 37.5t-91.5 -37.5t-37.5 -91.5z" />
<glyph unicode="&#xe6;" horiz-adv-x="1904" d="M94 305q0 124 68 210.5t186.5 127.5t280.5 41q133 0 213 -18q0 86 -11 141t-39.5 96t-80 58.5t-131.5 17.5q-95 0 -189.5 -20.5t-165.5 -55.5l-28 123q166 74 397 74q77 0 135 -15t94 -38t61 -60t37 -72.5t21 -83.5q20 48 52.5 92.5t80.5 86t116 66t146 24.5 q113 0 200.5 -35.5t141 -98t80.5 -142t27 -171.5q0 -98 -17 -168h-786q2 -90 21.5 -158.5t61 -123.5t115 -84t177.5 -29q186 0 352 129l59 -102q-184 -146 -421 -146q-158 0 -261.5 56t-152.5 157q-42 -41 -76.5 -69.5t-93.5 -66.5t-130.5 -58.5t-150.5 -20.5 q-178 0 -283.5 92.5t-105.5 243.5zM233 315q0 -103 75 -164t202 -61q56 0 106.5 14.5t95.5 44t68.5 49t59.5 52.5v301q-97 23 -213 20q-86 -1 -155.5 -15t-124 -43.5t-84.5 -79.5t-30 -118zM993 598h660q1 8 2.5 21.5t2.5 25t1 21.5q0 136 -83 225.5t-237 89.5 q-85 0 -152.5 -34t-108 -90t-62 -122t-23.5 -137z" />
<glyph unicode="&#xe7;" horiz-adv-x="1247" d="M117 532q0 249 154 408.5t407 159.5q215 0 335 -110t128 -296l-127 -28q-8 144 -92.5 226.5t-243.5 82.5q-192 0 -305 -122.5t-113 -315.5q0 -96 25.5 -174t77.5 -139t139 -94.5t203 -33.5q94 0 191 38t177 99l57 -112q-88 -70 -201.5 -110t-238.5 -40q-27 0 -41 2 l-28 -110q36 8 67 8q78 0 124 -35.5t46 -93.5q0 -70 -58.5 -109t-148.5 -39q-72 0 -149 25l16 62q73 -25 131 -25q59 0 95 21.5t36 62.5q0 72 -118 72q-70 0 -123 -17l-7 8l48 177q-119 14 -208.5 61t-145 120.5t-82.5 166.5t-27 204z" />
<glyph unicode="&#xe8;" horiz-adv-x="1261" d="M113 532q0 156 67 284.5t196 206t296 77.5q119 0 210.5 -35t147.5 -97t84.5 -141.5t28.5 -173.5t-19 -168h-870q11 -178 120.5 -286.5t317.5 -108.5q207 0 375 131l59 -104q-184 -146 -438 -146q-147 0 -259.5 44t-180 122t-101.5 177.5t-34 217.5zM258 598h746 q6 69 6 76q0 62 -20 116.5t-60 97.5t-107 68t-153 25q-182 0 -292.5 -110t-119.5 -273zM461 1518h143l168 -281h-127z" />
<glyph unicode="&#xe9;" horiz-adv-x="1261" d="M113 532q0 156 67 284.5t196 206t296 77.5q119 0 210.5 -35t147.5 -97t84.5 -141.5t28.5 -173.5t-19 -168h-870q11 -178 120.5 -286.5t317.5 -108.5q207 0 375 131l59 -104q-184 -146 -438 -146q-147 0 -259.5 44t-180 122t-101.5 177.5t-34 217.5zM258 598h746 q6 69 6 76q0 62 -20 116.5t-60 97.5t-107 68t-153 25q-182 0 -292.5 -110t-119.5 -273zM594 1237l168 281h143l-184 -281h-127z" />
<glyph unicode="&#xea;" horiz-adv-x="1261" d="M113 532q0 156 67 284.5t196 206t296 77.5q119 0 210.5 -35t147.5 -97t84.5 -141.5t28.5 -173.5t-19 -168h-870q11 -178 120.5 -286.5t317.5 -108.5q207 0 375 131l59 -104q-184 -146 -438 -146q-147 0 -259.5 44t-180 122t-101.5 177.5t-34 217.5zM258 598h746 q6 69 6 76q0 62 -20 116.5t-60 97.5t-107 68t-153 25q-182 0 -292.5 -110t-119.5 -273zM387 1237l223 281h142l223 -281h-123l-172 201l-170 -201h-123z" />
<glyph unicode="&#xeb;" horiz-adv-x="1261" d="M113 532q0 156 67 284.5t196 206t296 77.5q119 0 210.5 -35t147.5 -97t84.5 -141.5t28.5 -173.5t-19 -168h-870q11 -178 120.5 -286.5t317.5 -108.5q207 0 375 131l59 -104q-184 -146 -438 -146q-147 0 -259.5 44t-180 122t-101.5 177.5t-34 217.5zM258 598h746 q6 69 6 76q0 62 -20 116.5t-60 97.5t-107 68t-153 25q-182 0 -292.5 -110t-119.5 -273zM332 1374q0 92 94 92q92 0 92 -92q0 -45 -25.5 -67.5t-66.5 -22.5q-43 0 -68.5 22.5t-25.5 67.5zM842 1374q0 92 96 92q90 0 90 -92q0 -45 -24.5 -67.5t-65.5 -22.5q-44 0 -70 22.5 t-26 67.5z" />
<glyph unicode="&#xec;" horiz-adv-x="612" d="M49 1518h144l167 -281h-127zM195 209v862h139v-835q0 -136 98 -136q56 0 117 45l18 -112q-25 -20 -77.5 -36.5t-104.5 -16.5q-190 0 -190 229z" />
<glyph unicode="&#xed;" horiz-adv-x="612" d="M195 209v862h139v-835q0 -136 98 -136q56 0 117 45l18 -112q-25 -20 -77.5 -36.5t-104.5 -16.5q-190 0 -190 229zM197 1237l168 281h143l-184 -281h-127z" />
<glyph unicode="&#xee;" horiz-adv-x="612" d="M-31 1237l224 281h141l223 -281h-123l-172 201l-170 -201h-123zM195 209v862h139v-835q0 -136 98 -136q56 0 117 45l18 -112q-25 -20 -77.5 -36.5t-104.5 -16.5q-190 0 -190 229z" />
<glyph unicode="&#xef;" horiz-adv-x="612" d="M-84 1374q0 92 94 92q92 0 92 -92q0 -45 -25.5 -67.5t-66.5 -22.5q-43 0 -68.5 22.5t-25.5 67.5zM195 209v862h139v-835q0 -136 98 -136q56 0 117 45l18 -112q-25 -20 -77.5 -36.5t-104.5 -16.5q-190 0 -190 229zM426 1374q0 92 96 92q90 0 90 -92q0 -45 -24.5 -67.5 t-65.5 -22.5q-44 0 -70 22.5t-26 67.5z" />
<glyph unicode="&#xf0;" horiz-adv-x="1282" d="M115 469q0 212 120 336.5t324 124.5q82 0 155.5 -25.5t128 -68t91 -81.5t65.5 -83v26q0 160 -60 292.5t-161 230.5l-137 -142l-47 43l135 142q-102 79 -213 118l55 93q129 -35 246 -121l127 133l49 -43l-127 -131q125 -108 199 -266.5t74 -348.5q0 -216 -64 -377.5 t-190 -251t-299 -89.5q-204 0 -337.5 136.5t-133.5 352.5zM254 467q0 -153 94.5 -255.5t241.5 -102.5q163 0 266 116.5t133 317.5q-19 32 -41.5 62.5t-61.5 69.5t-80.5 67.5t-100 48.5t-119.5 20q-149 0 -240.5 -90.5t-91.5 -253.5z" />
<glyph unicode="&#xf1;" horiz-adv-x="1388" d="M195 0v1071h139v-197q57 102 157.5 159t233.5 57q134 0 227.5 -63.5t137 -168.5t43.5 -242v-380q0 -136 98 -136q53 0 121 45l16 -112q-80 -53 -182 -53q-193 0 -193 229v389q0 162 -79 261t-232 99q-131 0 -224 -77t-124 -193v-688h-139zM338 1343q30 59 82 101.5 t115 42.5q38 0 81.5 -21.5t76 -48t70 -48t64.5 -21.5q95 0 144 100l53 -59q-31 -63 -82.5 -103.5t-112.5 -40.5q-37 0 -81 21.5t-77 48t-70.5 48t-63.5 21.5q-89 0 -146 -102z" />
<glyph unicode="&#xf2;" horiz-adv-x="1363" d="M113 532q0 161 72 291t202 203.5t293 73.5q124 0 230.5 -43t181 -118.5t117 -180.5t42.5 -226q0 -160 -72 -287.5t-203 -200.5t-296 -73q-163 0 -293 73t-202 201t-72 287zM248 532q0 -186 121.5 -309t310.5 -123q192 0 314 123t122 309q0 189 -122 314t-314 125 q-189 0 -310.5 -125t-121.5 -314zM438 1518h144l168 -281h-127z" />
<glyph unicode="&#xf3;" horiz-adv-x="1363" d="M113 532q0 161 72 291t202 203.5t293 73.5q124 0 230.5 -43t181 -118.5t117 -180.5t42.5 -226q0 -160 -72 -287.5t-203 -200.5t-296 -73q-163 0 -293 73t-202 201t-72 287zM248 532q0 -186 121.5 -309t310.5 -123q192 0 314 123t122 309q0 189 -122 314t-314 125 q-189 0 -310.5 -125t-121.5 -314zM610 1237l168 281h144l-185 -281h-127z" />
<glyph unicode="&#xf4;" horiz-adv-x="1363" d="M113 532q0 161 72 291t202 203.5t293 73.5q124 0 230.5 -43t181 -118.5t117 -180.5t42.5 -226q0 -160 -72 -287.5t-203 -200.5t-296 -73q-163 0 -293 73t-202 201t-72 287zM248 532q0 -186 121.5 -309t310.5 -123q192 0 314 123t122 309q0 189 -122 314t-314 125 q-189 0 -310.5 -125t-121.5 -314zM385 1237l223 281h142l223 -281h-123l-172 201l-170 -201h-123z" />
<glyph unicode="&#xf5;" horiz-adv-x="1363" d="M113 532q0 161 72 291t202 203.5t293 73.5q124 0 230.5 -43t181 -118.5t117 -180.5t42.5 -226q0 -160 -72 -287.5t-203 -200.5t-296 -73q-163 0 -293 73t-202 201t-72 287zM248 532q0 -186 121.5 -309t310.5 -123q192 0 314 123t122 309q0 189 -122 314t-314 125 q-189 0 -310.5 -125t-121.5 -314zM336 1343q30 59 81.5 101.5t114.5 42.5q38 0 82 -21.5t76.5 -48t70 -48t64.5 -21.5q95 0 144 100l53 -59q-31 -63 -82.5 -103.5t-112.5 -40.5q-37 0 -81 21.5t-77 48t-70.5 48t-63.5 21.5q-89 0 -146 -102z" />
<glyph unicode="&#xf6;" horiz-adv-x="1363" d="M113 532q0 161 72 291t202 203.5t293 73.5q124 0 230.5 -43t181 -118.5t117 -180.5t42.5 -226q0 -160 -72 -287.5t-203 -200.5t-296 -73q-163 0 -293 73t-202 201t-72 287zM248 532q0 -186 121.5 -309t310.5 -123q192 0 314 123t122 309q0 189 -122 314t-314 125 q-189 0 -310.5 -125t-121.5 -314zM332 1374q0 92 94 92q92 0 92 -92q0 -45 -25.5 -67.5t-66.5 -22.5q-43 0 -68.5 22.5t-25.5 67.5zM842 1374q0 92 96 92q90 0 90 -92q0 -45 -24.5 -67.5t-65.5 -22.5q-44 0 -70 22.5t-26 67.5z" />
<glyph unicode="&#xf7;" d="M147 561v115h934v-115h-934zM494 260q0 53 26.5 81t77.5 28t80 -28.5t29 -80.5q0 -55 -28.5 -82.5t-80.5 -27.5q-104 0 -104 110zM494 979q0 53 26.5 82t77.5 29t80 -29.5t29 -81.5q0 -53 -28.5 -82t-80.5 -29q-104 0 -104 111z" />
<glyph unicode="&#xf8;" horiz-adv-x="1363" d="M113 532q0 161 72 291t202 203.5t293 73.5q204 0 352 -113l68 82h84v-12l-97 -117q78 -76 121 -181.5t43 -226.5q0 -160 -72 -287.5t-203 -200.5t-296 -73q-174 0 -313 84l-45 -55h-86v12l71 86q-93 77 -143.5 188.5t-50.5 245.5zM248 532q0 -100 37.5 -185t105.5 -144 l557 682q-113 86 -268 86q-189 0 -310.5 -125t-121.5 -314zM451 160q102 -60 229 -60q192 0 314 123t122 309q0 183 -112 304z" />
<glyph unicode="&#xf9;" horiz-adv-x="1386" d="M176 451v620h139v-602q0 -170 77 -265t237 -95q129 0 220 70t128 173v719h139v-835q0 -136 96 -136q49 0 121 45l17 -112q-77 -53 -183 -53q-175 0 -190 192q-59 -92 -159.5 -142t-231.5 -50q-201 0 -305.5 128t-104.5 343zM412 1518h143l168 -281h-127z" />
<glyph unicode="&#xfa;" horiz-adv-x="1386" d="M176 451v620h139v-602q0 -170 77 -265t237 -95q129 0 220 70t128 173v719h139v-835q0 -136 96 -136q49 0 121 45l17 -112q-77 -53 -183 -53q-175 0 -190 192q-59 -92 -159.5 -142t-231.5 -50q-201 0 -305.5 128t-104.5 343zM588 1237l168 281h143l-184 -281h-127z" />
<glyph unicode="&#xfb;" horiz-adv-x="1386" d="M176 451v620h139v-602q0 -170 77 -265t237 -95q129 0 220 70t128 173v719h139v-835q0 -136 96 -136q49 0 121 45l17 -112q-77 -53 -183 -53q-175 0 -190 192q-59 -92 -159.5 -142t-231.5 -50q-201 0 -305.5 128t-104.5 343zM365 1237l223 281h141l223 -281h-123l-172 201 l-170 -201h-122z" />
<glyph unicode="&#xfc;" horiz-adv-x="1386" d="M176 451v620h139v-602q0 -170 77 -265t237 -95q129 0 220 70t128 173v719h139v-835q0 -136 96 -136q49 0 121 45l17 -112q-77 -53 -183 -53q-175 0 -190 192q-59 -92 -159.5 -142t-231.5 -50q-201 0 -305.5 128t-104.5 343zM307 1374q0 92 94 92q93 0 93 -92 q0 -45 -26 -67.5t-67 -22.5q-43 0 -68.5 22.5t-25.5 67.5zM817 1374q0 92 96 92q91 0 91 -92q0 -45 -25 -67.5t-66 -22.5q-44 0 -70 22.5t-26 67.5z" />
<glyph unicode="&#xfd;" horiz-adv-x="1179" d="M20 -332l27 117q106 -70 217 -70q94 0 149 50.5t101 160.5l35 84l-514 1061h153l424 -917l387 917h142l-492 -1145q-35 -84 -68 -141t-78.5 -102.5t-104 -67t-134.5 -21.5q-130 0 -244 74zM528 1237l168 281h144l-185 -281h-127z" />
<glyph unicode="&#xfe;" horiz-adv-x="1337" d="M195 -385v1839h139v-508q66 65 159.5 104.5t204.5 39.5q235 0 379 -154t144 -399t-144.5 -401t-378.5 -156q-114 0 -206.5 40.5t-157.5 106.5v-512h-139zM334 250q52 -60 142 -103t190 -43q186 0 299.5 120.5t113.5 312.5q0 190 -113.5 309t-299.5 119 q-100 0 -188.5 -44.5t-143.5 -107.5v-563z" />
<glyph unicode="&#xff;" horiz-adv-x="1179" d="M20 -332l27 117q106 -70 217 -70q94 0 149 50.5t101 160.5l35 84l-514 1061h153l424 -917l387 917h142l-492 -1145q-35 -84 -68 -141t-78.5 -102.5t-104 -67t-134.5 -21.5q-130 0 -244 74zM256 1374q0 92 94 92q92 0 92 -92q0 -45 -25.5 -67.5t-66.5 -22.5 q-43 0 -68.5 22.5t-25.5 67.5zM766 1374q0 92 96 92q90 0 90 -92q0 -45 -24.5 -67.5t-65.5 -22.5q-44 0 -70 22.5t-26 67.5z" />
<glyph unicode="&#x152;" horiz-adv-x="2482" d="M135 694q0 152 54.5 285.5t148.5 228.5t226.5 150t283.5 55q238 0 430 -151v131h1057v-125h-924v-484h774v-116h-774v-543h924v-125h-1057v129q-189 -149 -430 -149q-201 0 -364.5 93t-256 256.5t-92.5 364.5zM270 694q0 -165 75 -298.5t208.5 -209t300.5 -75.5 q125 0 235.5 45t188.5 123v831q-79 79 -188.5 124.5t-235.5 45.5q-167 0 -300.5 -76t-208.5 -210t-75 -300z" />
<glyph unicode="&#x153;" horiz-adv-x="2291" d="M113 532q0 161 72 291t202 203.5t293 73.5q186 0 323.5 -95.5t192.5 -256.5q53 158 186 255t320 97q95 0 173.5 -23.5t133 -64.5t92 -98t55 -122.5t17.5 -138.5q0 -102 -16 -168h-875q4 -87 31 -157t79 -124.5t137.5 -84t199.5 -29.5q202 0 368 129l60 -102 q-184 -146 -439 -146q-213 0 -344.5 92t-179.5 248q-56 -156 -193 -248t-321 -92q-163 0 -293 73t-202 201t-72 287zM248 532q0 -186 121.5 -309t310.5 -123q192 0 314 123t122 309q0 189 -122 314t-314 125q-189 0 -310.5 -125t-121.5 -314zM1284 598h754q6 34 6 74 q0 135 -92 222t-258 87q-179 0 -290 -109t-120 -274z" />
<glyph unicode="&#x178;" horiz-adv-x="1366" d="M31 1380v13h155l496 -676l498 676h153v-13l-581 -790v-590h-140v588zM332 1696q0 92 94 92q92 0 92 -92q0 -45 -25.5 -67.5t-66.5 -22.5q-43 0 -68.5 22.5t-25.5 67.5zM842 1696q0 92 96 92q90 0 90 -92q0 -45 -24.5 -67.5t-65.5 -22.5q-44 0 -70 22.5t-26 67.5z" />
<glyph unicode="&#x2c6;" d="M334 1237l223 281h141l224 -281h-123l-172 201l-170 -201h-123z" />
<glyph unicode="&#x2dc;" d="M285 1343q30 59 81.5 101.5t114.5 42.5q38 0 82 -21.5t76.5 -48t70 -48t64.5 -21.5q95 0 144 100l53 -59q-31 -63 -82.5 -103.5t-112.5 -40.5q-37 0 -81 21.5t-77 48t-71 48t-64 21.5q-88 0 -145 -102z" />
<glyph unicode="&#x2000;" horiz-adv-x="919" />
<glyph unicode="&#x2001;" horiz-adv-x="1839" />
<glyph unicode="&#x2002;" horiz-adv-x="919" />
<glyph unicode="&#x2003;" horiz-adv-x="1839" />
<glyph unicode="&#x2004;" horiz-adv-x="613" />
<glyph unicode="&#x2005;" horiz-adv-x="459" />
<glyph unicode="&#x2006;" horiz-adv-x="306" />
<glyph unicode="&#x2007;" horiz-adv-x="306" />
<glyph unicode="&#x2008;" horiz-adv-x="229" />
<glyph unicode="&#x2009;" horiz-adv-x="367" />
<glyph unicode="&#x200a;" horiz-adv-x="102" />
<glyph unicode="&#x2010;" horiz-adv-x="1085" d="M164 561v117h760v-117h-760z" />
<glyph unicode="&#x2011;" horiz-adv-x="1085" d="M164 561v117h760v-117h-760z" />
<glyph unicode="&#x2012;" horiz-adv-x="1085" d="M164 561v117h760v-117h-760z" />
<glyph unicode="&#x2013;" horiz-adv-x="1275" d="M164 561v117h948v-117h-948z" />
<glyph unicode="&#x2014;" horiz-adv-x="1751" d="M164 561v117h1423v-117h-1423z" />
<glyph unicode="&#x2018;" horiz-adv-x="505" d="M135 983q0 84 47.5 223t87.5 207l84 -35l-94 -286q51 -6 78 -36t27 -73q0 -57 -30.5 -88t-84.5 -31t-84.5 33t-30.5 86z" />
<glyph unicode="&#x2019;" horiz-adv-x="497" d="M152 1290q0 58 29 88.5t83 30.5t84.5 -33t30.5 -86q0 -82 -48 -220t-89 -210l-84 35l96 289q-50 4 -76 33.5t-26 72.5z" />
<glyph unicode="&#x201a;" horiz-adv-x="530" d="M152 82q0 58 29 88.5t83 30.5t84.5 -33t30.5 -86q0 -82 -48 -220t-89 -210l-84 35l96 288q-50 4 -76 33.5t-26 73.5z" />
<glyph unicode="&#x201c;" horiz-adv-x="864" d="M137 1001q0 79 45.5 213.5t83.5 198.5l74 -31l-90 -280q48 -4 73 -32t25 -69q0 -54 -27 -82t-77 -28q-51 0 -79 31t-28 79zM510 1001q0 79 45.5 213.5t83.5 198.5l76 -31l-92 -280q48 -4 73 -32t25 -69q0 -110 -105 -110q-51 0 -78.5 31t-27.5 79z" />
<glyph unicode="&#x201d;" horiz-adv-x="851" d="M147 1298q0 54 27.5 82.5t77.5 28.5q51 0 78.5 -31t27.5 -80q0 -78 -45 -213t-82 -198l-75 33l90 278q-48 6 -73.5 33t-25.5 67zM520 1298q0 54 28 82.5t79 28.5t78.5 -31t27.5 -80q0 -78 -46 -212.5t-83 -198.5l-76 33l93 278q-49 6 -75 33t-26 67z" />
<glyph unicode="&#x201e;" horiz-adv-x="886" d="M152 63q0 54 27 83.5t77 29.5q51 0 80 -32t29 -81q0 -78 -45.5 -211t-83.5 -200l-76 31l92 282q-49 3 -74.5 30.5t-25.5 67.5zM524 63q0 54 28 83.5t79 29.5q49 0 77.5 -32t28.5 -81q0 -78 -45.5 -211t-83.5 -200l-76 31l93 282q-49 3 -75 30.5t-26 67.5z" />
<glyph unicode="&#x2022;" horiz-adv-x="649" d="M154 618q0 87 44 134t124 47q84 0 129 -47t45 -134q0 -89 -45 -135.5t-129 -46.5q-80 0 -124 47t-44 135z" />
<glyph unicode="&#x2026;" horiz-adv-x="1439" d="M154 82q0 54 27.5 83.5t78.5 29.5q53 0 82 -29.5t29 -83.5q0 -55 -29 -84t-82 -29q-51 0 -78.5 29t-27.5 84zM612 82q0 54 28 83.5t79 29.5q53 0 81.5 -29.5t28.5 -83.5q0 -55 -28.5 -84t-81.5 -29q-51 0 -79 29t-28 84zM1071 82q0 54 28 83.5t79 29.5q53 0 81.5 -29.5 t28.5 -83.5q0 -55 -28.5 -84t-81.5 -29q-51 0 -79 29t-28 84z" />
<glyph unicode="&#x202f;" horiz-adv-x="367" />
<glyph unicode="&#x2039;" horiz-adv-x="636" d="M109 604v31l325 407h12l50 -43l-267 -378l269 -381l-52 -41h-12z" />
<glyph unicode="&#x203a;" horiz-adv-x="636" d="M141 999l52 43h12l325 -407v-31l-325 -405h-12l-50 41l265 381z" />
<glyph unicode="&#x205f;" horiz-adv-x="459" />
<glyph unicode="&#x20ac;" d="M88 518v92h105q-3 40 -3 84q0 34 3 68h-105v94h111q33 270 174.5 413.5t361.5 143.5q122 0 215.5 -42.5t179.5 -117.5l-53 -108q-152 139 -332 139q-164 0 -269 -108t-134 -320h602l-45 -94h-565q-2 -23 -2 -68q0 -57 2 -84h500l-39 -92h-451q32 -202 135 -304.5 t262 -102.5q191 0 344 120l56 -114q-177 -137 -408 -137q-215 0 -354.5 138.5t-175.5 399.5h-115z" />
<glyph unicode="&#x2122;" horiz-adv-x="1742" d="M150 1272v86h534v-86h-219v-541h-88v541h-227zM848 731v627h78l266 -322l264 322h78v-627h-88v492l-246 -303h-18l-246 303v-492h-88z" />
<glyph unicode="&#x25fc;" horiz-adv-x="1075" d="M0 0v1075h1075v-1075h-1075z" />
<glyph unicode="&#xfb01;" horiz-adv-x="1564" d="M84 893v113h225v106q0 78 19 142.5t58 114.5t104.5 78t152.5 28q88 0 157.5 -32t112.5 -75l-41 -115q-92 97 -217 97q-206 0 -206 -238v-106h401v-113h-401v-893h-140v893h-225zM1118 1376q0 94 101 94q96 0 96 -94t-96 -94q-101 0 -101 94zM1147 209v862h139v-835 q0 -136 98 -136q56 0 117 45l19 -112q-25 -20 -78 -36.5t-105 -16.5q-190 0 -190 229z" />
<glyph unicode="&#xfb02;" horiz-adv-x="1572" d="M84 893v113h225v106q0 78 19 142.5t58 114.5t104.5 78t152.5 28q88 0 157.5 -32t112.5 -75l-41 -115q-92 97 -217 97q-206 0 -206 -238v-106h401v-113h-401v-893h-140v893h-225zM1128 221v1233h140v-1204q0 -75 34 -112.5t93 -37.5q65 0 133 45l18 -112q-82 -53 -196 -53 q-104 0 -163 58.5t-59 182.5z" />
</font>
</defs>
</svg>
