<?xml version="1.0" standalone="no"?>
<!DOCTYPE svg PUBLIC "-//W3C//DTD SVG 1.1//EN" "http://www.w3.org/Graphics/SVG/1.1/DTD/svg11.dtd" >
<svg xmlns="http://www.w3.org/2000/svg">
<metadata></metadata>
<defs>
<font id="plutothin" horiz-adv-x="1228" >
<font-face units-per-em="2048" ascent="1536" descent="-512" />
<missing-glyph horiz-adv-x="512" />
<glyph horiz-adv-x="0" />
<glyph horiz-adv-x="682" />
<glyph unicode=" "  horiz-adv-x="512" />
<glyph unicode="&#x09;" horiz-adv-x="512" />
<glyph unicode="&#xa0;" horiz-adv-x="512" />
<glyph unicode="!" horiz-adv-x="522" d="M195 55q0 76 65 76q70 0 70 -76q0 -75 -70 -75q-65 0 -65 75zM240 453v938h43v-938h-43z" />
<glyph unicode="&#x22;" horiz-adv-x="796" d="M178 920v473h41v-473h-41zM578 920v473h40v-473h-40z" />
<glyph unicode="#" horiz-adv-x="1419" d="M94 340v43h221l162 645h-196v43h206l80 322h45v-7l-77 -315h526l80 322h45v-7l-78 -315h219v-43h-229l-162 -645h205v-43h-215l-84 -340h-45v6l82 334h-527l-84 -340h-45v6l82 334h-211zM362 383h527l162 645h-527z" />
<glyph unicode="$" d="M106 1042q0 68 30.5 131t88.5 114.5t153.5 84.5t215.5 37v166h41v-164q126 0 253 -33.5t208 -79.5l-19 -41q-70 44 -198 78.5t-244 34.5v-645l106 -25q92 -21 157.5 -47t117.5 -64.5t78 -92.5t26 -125q0 -171 -132.5 -274.5t-352.5 -114.5v-246h-41v244h-8 q-132 0 -256 37.5t-201 84.5l14 39q77 -44 198 -82.5t245 -38.5h8v674l-180 41q-143 32 -225.5 109t-82.5 198zM147 1042q0 -104 70.5 -171t202.5 -97l174 -41v635q-110 -4 -197.5 -33.5t-141 -75.5t-81 -101.5t-27.5 -115.5zM635 20q197 11 320.5 105.5t123.5 245.5 q0 114 -85.5 184t-262.5 109l-96 20v-664z" />
<glyph unicode="%" horiz-adv-x="1679" d="M100 1071q0 147 95.5 243.5t244.5 96.5q150 0 245 -96.5t95 -243.5q0 -146 -95 -241t-245 -95q-149 0 -244.5 95.5t-95.5 240.5zM141 1071q0 -128 84 -212.5t215 -84.5q132 0 216.5 84t84.5 213q0 130 -84.5 215.5t-216.5 85.5q-131 0 -215 -85.5t-84 -215.5zM424 0v6 l754 1387h45v-7l-754 -1386h-45zM901 315q0 147 95.5 243.5t244.5 96.5q150 0 245 -96.5t95 -243.5q0 -146 -95 -240.5t-245 -94.5q-149 0 -244.5 95t-95.5 240zM942 315q0 -128 84 -212.5t215 -84.5q133 0 217 84t84 213q0 130 -84.5 215.5t-216.5 85.5q-131 0 -215 -85.5 t-84 -215.5z" />
<glyph unicode="&#x26;" horiz-adv-x="1419" d="M137 334q0 62 24.5 117.5t60.5 94.5t89.5 75t97 57t97.5 43l-17 16q-106 102 -143 147q-88 110 -88 212q0 147 101.5 232t273.5 85q159 0 268 -89.5t109 -221.5q0 -226 -248 -326l-180 -74l458 -442q160 202 209 502l45 -8q-63 -325 -223 -525l232 -221v-8h-52l-204 197 q-189 -215 -455 -215q-210 0 -332.5 94t-122.5 258zM178 332q0 -141 111 -225t303 -84q243 0 422 204l-473 459q-58 -24 -99 -42.5t-95 -52t-87.5 -68t-57.5 -84.5t-24 -107zM299 1098q0 -44 20 -90.5t57 -92t67 -77t72 -70.5q9 -8 13 -12l21 -21l194 76q226 88 226 291 q0 113 -99 191.5t-237 78.5q-160 0 -247 -74.5t-87 -199.5z" />
<glyph unicode="'" horiz-adv-x="397" d="M178 920v473h41v-473h-41z" />
<glyph unicode="(" horiz-adv-x="528" d="M129 535q0 177 31.5 339.5t81 278.5t92 189t82.5 122l35 -26q-31 -40 -62.5 -89t-72.5 -135.5t-71 -181.5t-51.5 -226.5t-21.5 -270.5q0 -137 21.5 -268.5t51.5 -227t71 -182.5t72.5 -137t62.5 -89l-35 -26q-31 37 -63.5 88t-74 139.5t-73.5 187t-54 235.5t-22 280z" />
<glyph unicode=")" horiz-adv-x="528" d="M78 -369q31 39 62.5 89.5t72 137t71 182t51.5 227t21 268.5q0 139 -21 270.5t-51.5 226.5t-71 181.5t-72 135.5t-62.5 89l35 26q31 -37 63.5 -88t74 -139t73 -187t53.5 -235.5t22 -279.5t-22 -280t-53.5 -235.5t-73 -187t-74 -139.5t-63.5 -88z" />
<glyph unicode="*" horiz-adv-x="1062" d="M156 1159q0 17 16 25.5t45 -0.5q177 -72 303 -144q-18 203 -18 353q0 23 8 35t20 12q31 0 31 -47q0 -198 -26 -353q125 65 305 136q29 10 46 1t17 -28q0 -26 -33 -37q-150 -53 -329 -88q37 -37 123.5 -133.5t111.5 -122.5q22 -25 16 -45.5t-28 -20.5q-20 0 -39 25 q-140 181 -199 285q-20 -37 -53 -90.5t-71.5 -113t-51.5 -81.5q-16 -27 -45 -27q-19 0 -24 19.5t12 44.5q36 50 105 131.5t116 128.5q-96 20 -321 96q-37 12 -37 39z" />
<glyph unicode="+" d="M162 598v41h432v432h41v-432h432v-41h-432v-432h-41v432h-432z" />
<glyph unicode="," horiz-adv-x="483" d="M162 -330l102 303q-45 0 -69.5 20t-24.5 50q0 80 72 80q35 0 54 -23.5t19 -56.5q0 -66 -46 -201.5t-74 -185.5z" />
<glyph unicode="-" horiz-adv-x="1064" d="M172 598v43h721v-43h-721z" />
<glyph unicode="." horiz-adv-x="479" d="M172 55q0 76 66 76q69 0 69 -76q0 -75 -69 -75q-66 0 -66 75z" />
<glyph unicode="/" horiz-adv-x="978" d="M90 0v6l754 1387h45v-7l-754 -1386h-45z" />
<glyph unicode="0" horiz-adv-x="1478" d="M166 694q0 126 20 233t64 197.5t109.5 154t161.5 99t216 35.5q121 0 218 -35.5t163 -99t110.5 -154t64.5 -197.5t20 -233q0 -125 -20 -231t-64.5 -196t-110.5 -153t-163 -98.5t-218 -35.5q-149 0 -260.5 53.5t-178.5 151t-99.5 225t-32.5 284.5zM207 694 q0 -117 18 -216.5t58.5 -185t101.5 -145t150.5 -93.5t201.5 -34q141 0 246 51t167 144t92 212.5t30 266.5q0 149 -30 269t-92 213.5t-167 144.5t-246 51q-112 0 -201.5 -34t-150.5 -93.5t-101.5 -145.5t-58.5 -186.5t-18 -218.5z" />
<glyph unicode="1" horiz-adv-x="935" d="M53 1141l588 252h41v-1393h-41v1346l-573 -242z" />
<glyph unicode="2" horiz-adv-x="1284" d="M143 956q5 205 134.5 331t361.5 126q116 0 207 -33.5t147 -93t84.5 -136.5t28.5 -169q0 -144 -72.5 -263t-228.5 -237l-582 -440h932v-41h-999v41l622 473q148 111 217.5 221.5t69.5 245.5q0 83 -26 153t-77 123.5t-133.5 84t-189.5 30.5q-214 0 -333 -115.5t-122 -300.5 h-41z" />
<glyph unicode="3" horiz-adv-x="1329" d="M160 82l18 39q208 -101 449 -101q213 0 357 96t144 259q0 149 -109 238t-308 89h-396v41h396q171 0 269.5 94.5t98.5 221.5q0 147 -127 230t-325 83q-237 0 -437 -110l-20 36q215 115 457 115q144 0 255 -40.5t174.5 -121.5t63.5 -192q0 -124 -82.5 -220.5t-216.5 -111.5 q162 -22 255 -113t93 -239q0 -122 -72 -212.5t-193.5 -136.5t-276.5 -46q-230 0 -467 102z" />
<glyph unicode="4" horiz-adv-x="1435" d="M63 336v41l898 1016h51v-1016h346v-41h-346v-336h-41v336h-908zM117 377h854v971z" />
<glyph unicode="5" horiz-adv-x="1318" d="M129 86l21 39q204 -105 460 -105q79 0 152 13t141.5 44t119 77.5t80.5 117t30 158.5q0 94 -40 162t-113 106.5t-163 56t-203 17.5h-395l-4 6l51 615h862v-41h-825l-45 -539h356q121 0 220 -21t176.5 -65.5t120.5 -119t43 -175.5q0 -95 -32.5 -172.5t-87 -128.5t-128 -86 t-152.5 -50t-164 -15q-93 0 -172.5 10.5t-143.5 31t-92 32t-73 32.5z" />
<glyph unicode="6" horiz-adv-x="1437" d="M162 698q0 212 71.5 372.5t211.5 251.5t331 91q150 0 270.5 -44.5t190.5 -102.5l-31 -35q-65 57 -177 99t-253 42q-176 0 -306.5 -86t-198.5 -238t-68 -350q0 -61 6 -116q22 39 50.5 77.5t81 90t111.5 89.5t145 64.5t179 26.5q235 0 374.5 -123.5t139.5 -343.5 q0 -211 -147.5 -347t-370.5 -136q-190 0 -328.5 89.5t-210 251t-71.5 377.5zM217 522q42 -233 187.5 -367.5t367.5 -134.5q203 0 340 126.5t137 316.5q0 202 -131.5 314t-341.5 112q-98 0 -188 -32.5t-149 -76t-110.5 -101t-73.5 -92t-38 -65.5z" />
<glyph unicode="7" horiz-adv-x="1052" d="M45 1352v41h967v-41l-666 -1352h-49v6l666 1346h-918z" />
<glyph unicode="8" horiz-adv-x="1404" d="M160 375q0 147 105.5 238.5t283.5 113.5q-150 15 -245 111.5t-95 220.5q0 111 63.5 192t174.5 121.5t255 40.5q221 0 357.5 -94t136.5 -260q0 -124 -95 -220.5t-245 -111.5q178 -22 283.5 -113.5t105.5 -238.5q0 -122 -72 -212.5t-194 -136.5t-277 -46t-276.5 46 t-193.5 136.5t-72 212.5zM201 375q0 -108 68 -190t181 -123.5t252 -41.5q214 0 358 96.5t144 258.5q0 151 -122 237t-375 86q-254 0 -380 -86t-126 -237zM250 1059q0 -60 25.5 -114t77.5 -99t143 -71.5t211 -26.5q117 0 206 26.5t140.5 71.5t76.5 99t25 114 q0 151 -125.5 232t-327.5 81t-327 -81t-125 -232z" />
<glyph unicode="9" horiz-adv-x="1437" d="M147 930q0 139 68 250t186.5 172t264.5 61q285 0 447.5 -195.5t162.5 -523.5q0 -211 -71.5 -372t-211.5 -251.5t-331 -90.5q-150 0 -270.5 44.5t-190.5 102.5l30 35q65 -57 177.5 -99.5t253.5 -42.5q176 0 306.5 86t198.5 238t68 350q0 60 -6 115q-23 -39 -51.5 -77.5 t-81.5 -89.5t-112 -88.5t-144 -64t-178 -26.5q-235 0 -375 123.5t-140 343.5zM188 930q0 -201 132 -313.5t342 -112.5q98 0 188 32.5t148.5 75.5t109.5 100.5t73 92t38 65.5q-40 231 -185.5 366.5t-367.5 135.5q-203 0 -340.5 -126t-137.5 -316z" />
<glyph unicode=":" horiz-adv-x="479" d="M172 55q0 76 66 76q69 0 69 -76q0 -75 -69 -75q-66 0 -66 75zM172 1024q0 76 66 76q69 0 69 -76t-69 -76q-66 0 -66 76z" />
<glyph unicode=";" horiz-adv-x="499" d="M172 -330l102 303q-45 0 -69.5 20t-24.5 50q0 80 72 80q35 0 54.5 -23.5t19.5 -56.5q0 -66 -46 -201.5t-75 -185.5zM182 1024q0 76 66 76q69 0 69 -76t-69 -76q-66 0 -66 76z" />
<glyph unicode="&#x3c;" d="M162 600v41l897 446h6v-45l-860 -421l860 -422v-45h-6z" />
<glyph unicode="=" d="M162 307v41h905v-41h-905zM162 891v41h905v-41h-905z" />
<glyph unicode="&#x3e;" d="M162 154v45l860 422l-860 421v45h6l897 -446v-41l-897 -446h-6z" />
<glyph unicode="?" horiz-adv-x="978" d="M104 1206q21 41 50.5 75.5t73 65.5t106 48.5t137.5 17.5q159 0 263 -95t104 -247q0 -38 -6.5 -73t-14 -59.5t-26.5 -53t-29.5 -42.5t-38 -39.5t-37 -33t-41.5 -33.5l-129 -100q-51 -39 -67.5 -63t-16.5 -64q0 -26 8 -57h-43q-6 27 -6 57q0 52 25.5 89t79.5 77l125 96 q43 33 68.5 56.5t53.5 60t41 81.5t13 101q0 136 -93.5 218.5t-232.5 82.5q-235 0 -328 -190zM356 55q0 76 66 76q70 0 70 -76q0 -75 -70 -75q-66 0 -66 75z" />
<glyph unicode="@" horiz-adv-x="2078" d="M127 539q0 197 71.5 371t194.5 297.5t295.5 194.5t368.5 71q197 0 368 -63t290 -171.5t187 -258t68 -318.5q0 -153 -37 -278.5t-97.5 -202t-133 -117.5t-148.5 -41q-85 0 -122.5 37t-42.5 110q-62 -63 -155.5 -105t-197.5 -42q-218 0 -349.5 138t-131.5 357 q0 222 132 363t349 141q105 0 197 -40t153 -103v127h41v-807q0 -68 28.5 -102t98.5 -34q66 0 131.5 38.5t120.5 110t89 189t34 261.5q0 161 -64.5 303t-178 245t-277 162.5t-352.5 59.5q-151 0 -288 -43t-245.5 -123.5t-189 -189.5t-123.5 -247t-43 -290q0 -151 43 -288.5 t123.5 -247t189 -191t245.5 -125t288 -43.5q216 0 407 90l19 -37q-196 -94 -426 -94q-196 0 -368.5 72t-295.5 196.5t-194.5 298t-71.5 369.5zM596 518q0 -201 121 -328t321 -127q107 0 198.5 45.5t149.5 110.5v602q-57 67 -148.5 113.5t-199.5 46.5q-200 0 -321 -129.5 t-121 -333.5z" />
<glyph unicode="A" horiz-adv-x="1380" d="M53 0l627 1393h41l586 -1393h-41l-160 377h-842l-170 -377h-41zM283 418h807l-392 928z" />
<glyph unicode="B" horiz-adv-x="1384" d="M248 0v1393h434q211 0 329.5 -88t118.5 -265q0 -123 -73 -203t-201 -114q183 -23 284 -114t101 -253q0 -166 -118 -261t-347 -95h-528zM289 41h489q203 0 312.5 83.5t109.5 231.5q0 170 -127 255t-352 85h-432v-655zM289 737h375q191 0 308.5 78.5t117.5 224.5 q0 158 -108 235t-300 77h-393v-615z" />
<glyph unicode="C" horiz-adv-x="1562" d="M152 694q0 167 51 303t143 227t221 140t283 49q265 0 414 -140t155 -386l-39 -6q-6 232 -143.5 361.5t-386.5 129.5q-297 0 -477 -181.5t-180 -496.5q0 -313 180 -493.5t477 -180.5q151 0 298.5 63.5t242.5 154.5l30 -33q-101 -96 -254 -160.5t-317 -64.5 q-206 0 -363.5 84t-246 246.5t-88.5 383.5z" />
<glyph unicode="D" horiz-adv-x="1607" d="M248 0v1393h489q155 -1 286 -47t227.5 -132.5t151 -220t54.5 -299.5q0 -165 -54.5 -297.5t-151 -218.5t-227.5 -132t-286 -46h-489zM289 41h448q147 0 271 42.5t214.5 123.5t141.5 206t51 281q0 158 -51 283.5t-142 206.5t-214 124t-271 44h-448v-1311z" />
<glyph unicode="E" horiz-adv-x="1439" d="M248 0v1393h1028v-41h-987v-598h837v-41h-837v-672h987v-41h-1028z" />
<glyph unicode="F" horiz-adv-x="1310" d="M248 0v1393h987v-41h-946v-674h835v-41h-835v-637h-41z" />
<glyph unicode="G" horiz-adv-x="1628" d="M150 694q0 166 58 303t158 227t235 139.5t290 49.5q161 0 283 -50.5t233 -150.5l-29 -32q-104 95 -220 143.5t-267 48.5q-195 0 -353 -79.5t-253 -235.5t-95 -363q0 -154 55 -282.5t150.5 -213.5t223 -131.5t272.5 -46.5q147 0 290.5 44t237.5 112v463h-588v41h629v-528 q-100 -74 -256.5 -123t-312.5 -49q-155 0 -290 49t-235 139t-158 226t-58 300z" />
<glyph unicode="H" horiz-adv-x="1712" d="M248 0v1393h41v-674h1134v674h41v-1393h-41v678h-1134v-678h-41z" />
<glyph unicode="I" horiz-adv-x="536" d="M248 0v1393h41v-1393h-41z" />
<glyph unicode="J" horiz-adv-x="1341" d="M76 496l39 6q15 -230 134.5 -358t342.5 -128q227 0 354 135.5t127 362.5v879h41v-879q0 -240 -140.5 -389.5t-381.5 -149.5q-237 0 -369 139.5t-147 381.5z" />
<glyph unicode="K" horiz-adv-x="1544" d="M248 0v1393h41v-674h426l514 674h47v-7l-524 -688q26 -25 57.5 -78t61.5 -113.5t65.5 -129.5t76 -131.5t85.5 -113.5t102 -81.5t119 -30.5q91 0 197 54l12 -41q-104 -53 -209 -53q-82 0 -155.5 44.5t-124.5 111.5t-100 151.5t-83.5 160t-72 140.5t-68.5 90h-426v-678h-41 z" />
<glyph unicode="L" horiz-adv-x="1196" d="M248 0v1393h41v-1352h852v-41h-893z" />
<glyph unicode="M" horiz-adv-x="1929" d="M248 0v1393h41l676 -826l675 826h41v-1393h-41v1323l-665 -809h-21l-665 809v-1323h-41z" />
<glyph unicode="N" horiz-adv-x="1703" d="M248 0v1393h41l1126 -1332v1332h41v-1393h-41l-1126 1325v-1325h-41z" />
<glyph unicode="O" horiz-adv-x="1728" d="M147 694q0 152 54.5 285.5t149.5 228.5t227.5 150t283.5 55q152 0 285.5 -55t228.5 -150t150 -228.5t55 -285.5q0 -201 -93 -364.5t-258 -256.5t-368 -93q-201 0 -365 93t-257 256.5t-93 364.5zM188 694q0 -143 51 -268t140.5 -214.5t214.5 -140.5t268 -51 q193 0 348 87.5t242.5 241.5t87.5 345q0 193 -87.5 348t-242.5 242.5t-348 87.5q-191 0 -345 -87.5t-241.5 -242.5t-87.5 -348z" />
<glyph unicode="P" horiz-adv-x="1382" d="M248 0v1393h553q97 0 181 -29t149.5 -85.5t103 -149t37.5 -211.5q0 -107 -38 -196t-102.5 -148t-149.5 -91t-181 -32h-512v-451h-41zM289 492h510q184 0 308 115t124 311q0 109 -34 193.5t-94 136t-137 78t-167 26.5h-510v-860z" />
<glyph unicode="Q" horiz-adv-x="1728" d="M147 694q0 152 54.5 285.5t149.5 228.5t227.5 150t283.5 55q152 0 285.5 -55t228.5 -150t150 -228.5t55 -285.5q0 -187 -81.5 -342.5t-226 -252t-327.5 -115.5q25 -18 73.5 -63.5t93.5 -82.5t105 -76t134 -61.5t155 -22.5q135 0 244 37l12 -45q-115 -39 -256 -39 q-100 0 -194.5 35t-162 85t-122.5 100.5t-98 88t-68 40.5q-201 0 -365 93t-257 256.5t-93 364.5zM188 694q0 -143 51 -268t140.5 -214.5t214.5 -140.5t268 -51q193 0 348 87.5t242.5 241.5t87.5 345q0 193 -87.5 348t-242.5 242.5t-348 87.5q-191 0 -345 -87.5 t-241.5 -242.5t-87.5 -348z" />
<glyph unicode="R" horiz-adv-x="1546" d="M248 0v1393h590q90 0 169.5 -27t142.5 -78.5t99.5 -135t36.5 -189.5q0 -128 -64.5 -226.5t-165.5 -148t-218 -49.5h-99q33 -31 89 -102t110 -137.5t118 -132.5t136 -106.5t141 -40.5q91 0 197 54l12 -41q-104 -53 -209 -53q-72 0 -145.5 36t-131.5 91t-117.5 123 t-104 128.5t-89 111.5t-75.5 69h-381v-539h-41zM289 580h549q109 0 200 43.5t149 132.5t58 207q0 98 -33.5 174t-90.5 122t-129 69.5t-154 23.5h-549v-772z" />
<glyph unicode="S" horiz-adv-x="1304" d="M145 1042q0 72 33 136.5t96 117.5t166.5 84t233.5 31q126 0 253 -33.5t208 -79.5l-19 -41q-70 44 -198 78.5t-244 34.5q-235 0 -361.5 -97t-126.5 -231q0 -104 70.5 -171t202.5 -97l321 -74q92 -21 157.5 -47t117.5 -64.5t78 -92.5t26 -125q0 -181 -147 -286t-387 -105 q-132 0 -256 37.5t-201 84.5l14 39q77 -44 198 -82.5t245 -38.5q217 0 355 95.5t138 255.5q0 114 -85.5 184t-262.5 109l-317 71q-143 32 -225.5 109t-82.5 198z" />
<glyph unicode="T" horiz-adv-x="1269" d="M41 1352v41h1188v-41h-553v-1352h-41v1352h-594z" />
<glyph unicode="U" horiz-adv-x="1597" d="M227 549v844h41v-844q0 -119 31.5 -215t94.5 -168t165.5 -111t237.5 -39q109 0 197.5 28t150 76.5t103.5 116.5t61.5 146.5t19.5 167.5v842h41v-844q0 -117 -35.5 -219.5t-104.5 -182.5t-180.5 -126t-252.5 -46q-280 0 -425 156.5t-145 417.5z" />
<glyph unicode="V" horiz-adv-x="1376" d="M72 1393h41l565 -1346l606 1346h41l-627 -1393h-41z" />
<glyph unicode="W" horiz-adv-x="2160" d="M72 1393h41l565 -1346l385 854l-207 492h41l565 -1346l606 1346h41l-626 -1393h-41l-361 854l-383 -854h-41z" />
<glyph unicode="X" horiz-adv-x="1376" d="M76 0v6l581 690l-581 690v7h47l565 -664l565 664h47v-7l-583 -690l583 -690v-6h-47l-565 664l-565 -664h-47z" />
<glyph unicode="Y" horiz-adv-x="1339" d="M43 1386v7h45l582 -742l581 742h45v-7l-606 -772v-614h-41v612z" />
<glyph unicode="Z" horiz-adv-x="1208" d="M111 0v41l936 1311h-936v41h987v-41l-936 -1311h936v-41h-987z" />
<glyph unicode="[" horiz-adv-x="614" d="M211 -385v1839h354v-41h-313v-1755h313v-43h-354z" />
<glyph unicode="\" horiz-adv-x="978" d="M90 1386v7h45l754 -1387v-6h-45z" />
<glyph unicode="]" horiz-adv-x="614" d="M49 -342h313v1755h-313v41h354v-1839h-354v43z" />
<glyph unicode="^" d="M221 860v6l365 527h41l374 -527v-6h-45l-350 496l-340 -496h-45z" />
<glyph unicode="_" horiz-adv-x="1617" d="M297 -100h1024v-43h-1024v43z" />
<glyph unicode="`" d="M518 1518h51l170 -261h-51z" />
<glyph unicode="a" horiz-adv-x="1378" d="M127 530q0 247 147.5 403.5t389.5 156.5q115 0 217 -48t174 -120v149h41v-899q0 -75 26.5 -113.5t87.5 -38.5q52 0 127 52l19 -35q-71 -57 -146 -57t-112 41.5t-43 121.5q-69 -70 -172 -116.5t-219 -46.5q-242 0 -389.5 153t-147.5 397zM168 530q0 -225 136 -367.5 t360 -142.5q119 0 222.5 52t168.5 125v673q-64 74 -167.5 126.5t-223.5 52.5q-223 0 -359.5 -145.5t-136.5 -373.5z" />
<glyph unicode="b" horiz-adv-x="1308" d="M211 0v1454h41v-530q71 71 174 118.5t219 47.5q242 0 389.5 -154t147.5 -399q0 -246 -147.5 -401.5t-389.5 -155.5q-117 0 -219.5 45.5t-173.5 115.5v-141h-41zM252 199q62 -74 167 -126.5t226 -52.5q222 0 359 144.5t137 372.5q0 226 -136.5 369t-359.5 143 q-119 0 -224.5 -54t-168.5 -127v-669z" />
<glyph unicode="c" horiz-adv-x="1253" d="M127 532q0 164 67 292.5t194.5 202t295.5 73.5q207 0 324 -107t125 -288l-41 -11q-8 169 -113 267t-295 98q-237 0 -376.5 -147.5t-139.5 -379.5q0 -115 29.5 -207.5t90.5 -163.5t164.5 -110t241.5 -39q205 0 408 148l22 -39q-193 -150 -430 -150q-147 0 -258 42 t-177.5 118.5t-99 176.5t-32.5 224z" />
<glyph unicode="d" horiz-adv-x="1380" d="M127 537q0 245 148 399t389 154q116 0 219 -47.5t174 -118.5v530h41v-1286q0 -75 26 -111.5t88 -36.5q53 0 125 52l21 -35q-31 -25 -72 -41t-76 -16q-147 0 -153 165q-72 -72 -173.5 -118.5t-219.5 -46.5q-241 0 -389 156t-148 401zM168 537q0 -228 137 -372.5 t361 -144.5q121 0 224 52t167 127v669q-66 74 -169 127.5t-222 53.5q-224 0 -361 -143t-137 -369z" />
<glyph unicode="e" horiz-adv-x="1273" d="M125 532q0 155 65.5 283t193 206.5t294.5 78.5q118 0 209.5 -35.5t146.5 -98t83 -142t28 -171.5q0 -78 -17 -141h-964q2 -83 22 -156.5t61.5 -137.5t102 -110t148.5 -72t196 -26q220 0 404 144l26 -37q-184 -146 -430 -146q-146 0 -258 44.5t-178.5 123t-99.5 177.5 t-33 216zM164 553h932q8 62 8 100q0 82 -25 153.5t-75 129t-134 90.5t-192 33q-153 0 -270.5 -70t-179 -184t-64.5 -252z" />
<glyph unicode="f" horiz-adv-x="899" d="M90 956v41h244v127q0 161 76 256t235 95q95 0 162 -40.5t106 -95.5l-28 -26q-93 121 -240 121q-142 0 -206 -83.5t-64 -226.5v-127h456v-41h-456v-956h-41v956h-244z" />
<glyph unicode="g" horiz-adv-x="1308" d="M129 573q0 106 38.5 200.5t107.5 164.5t170.5 111t220.5 41q115 0 217.5 -47.5t173.5 -118.5v147h41v-1001q0 -111 -36 -202t-97.5 -150t-142 -91.5t-171.5 -32.5q-37 0 -73 4t-63.5 9t-58.5 16t-49 17.5t-44.5 20.5t-35.5 19t-32 19.5t-25 15.5l17 43q34 -23 60.5 -38.5 t74.5 -38t106.5 -34.5t122.5 -12q81 0 154 29.5t129.5 83t89.5 136.5t33 184v157q-72 -70 -174 -117t-217 -47q-119 0 -221 40.5t-170.5 110t-107 163t-38.5 198.5zM170 573q0 -129 60.5 -236t174.5 -171t261 -64q118 0 222.5 52t168.5 125v589q-65 75 -168.5 128t-222.5 53 q-147 0 -261 -65t-174.5 -173t-60.5 -238z" />
<glyph unicode="h" horiz-adv-x="1363" d="M211 0v1454h41v-625q56 125 165 193t259 68q200 0 308 -131.5t108 -342.5v-444q0 -75 26.5 -113.5t87.5 -38.5q52 0 127 52l19 -35q-71 -57 -146 -57q-155 0 -155 192v444q0 124 -39.5 220t-125.5 154.5t-210 58.5q-163 0 -277 -91.5t-147 -236.5v-721h-41z" />
<glyph unicode="i" horiz-adv-x="548" d="M193 1378q0 54 45 54q41 0 41 -54q0 -53 -41 -53q-45 0 -45 53zM215 172v899h41v-899q0 -152 115 -152q53 0 125 52l20 -35q-71 -57 -147 -57q-154 0 -154 192z" />
<glyph unicode="j" horiz-adv-x="462" d="M-37 -369q79 41 130.5 87t84.5 119.5t33 170.5v1063h41v-1065q0 -290 -272 -409zM190 1378q0 54 43 54q41 0 41 -54q0 -53 -41 -53q-43 0 -43 53z" />
<glyph unicode="k" horiz-adv-x="1185" d="M211 0v1454h41v-924q119 1 214 14.5t189.5 49.5t164.5 95t126.5 155.5t87.5 226.5h41q-49 -206 -149.5 -329.5t-249.5 -184.5l428 -551v-6h-55l-412 543q-159 -54 -385 -54v-489h-41z" />
<glyph unicode="l" horiz-adv-x="581" d="M209 190v1264h41v-1261q0 -90 41.5 -131.5t111.5 -41.5q71 0 146 52l20 -35q-71 -57 -166 -57q-89 0 -141.5 52t-52.5 158z" />
<glyph unicode="m" horiz-adv-x="2125" d="M211 0v1071h41v-256q55 128 157 201.5t248 73.5q301 0 381 -299q48 135 155.5 217t262.5 82q101 0 178 -36t124.5 -100.5t71 -149.5t23.5 -188v-444q0 -75 26 -113.5t87 -38.5q52 0 127 52l21 -35q-31 -25 -72 -41t-76 -16q-154 0 -154 192v444q0 93 -20.5 170t-62 137 t-112 93t-163.5 33q-159 0 -263.5 -100t-137.5 -251v-698h-41v616q0 128 -35 222.5t-116.5 152.5t-205.5 58q-159 0 -263.5 -99t-139.5 -250v-700h-41z" />
<glyph unicode="n" horiz-adv-x="1363" d="M211 0v1071h41v-242q56 125 165 193t259 68q200 0 308 -131.5t108 -342.5v-444q0 -75 26.5 -113.5t87.5 -38.5q52 0 127 52l19 -35q-71 -57 -146 -57q-155 0 -155 192v444q0 124 -39.5 220t-125.5 154.5t-210 58.5q-163 0 -277 -91.5t-147 -236.5v-721h-41z" />
<glyph unicode="o" horiz-adv-x="1380" d="M125 532q0 246 158 407t405 161q250 0 408.5 -161t158.5 -407q0 -243 -158.5 -402t-408.5 -159q-247 0 -405 159t-158 402zM166 532q0 -224 146.5 -372t375.5 -148q231 0 378.5 147.5t147.5 372.5q0 228 -147.5 377.5t-378.5 149.5q-229 0 -375.5 -150t-146.5 -377z" />
<glyph unicode="p" horiz-adv-x="1380" d="M23 1036q72 58 145 58q77 0 114 -43t42 -127q71 71 173 118.5t218 47.5q242 0 390 -155.5t148 -402.5q0 -244 -148 -398t-390 -154q-117 0 -219.5 46t-171.5 115v-526h-41v1286q0 77 -26.5 114.5t-88.5 37.5q-56 0 -127 -52zM324 197q62 -73 166.5 -125t224.5 -52 q224 0 360.5 143t136.5 369q0 228 -136.5 372.5t-360.5 144.5q-121 0 -224.5 -54t-166.5 -129v-669z" />
<glyph unicode="q" horiz-adv-x="1306" d="M127 532q0 247 147.5 402.5t389.5 155.5q115 0 217 -48t174 -120v149h41v-1456h-41v526q-71 -69 -173.5 -115t-217.5 -46q-242 0 -389.5 154t-147.5 398zM168 532q0 -226 136 -369t360 -143q118 0 222.5 52t168.5 125v669q-64 76 -167.5 129.5t-223.5 53.5 q-224 0 -360 -144.5t-136 -372.5z" />
<glyph unicode="r" horiz-adv-x="882" d="M25 1032q68 58 145 58q156 0 156 -191v-94q49 134 124 209.5t191 75.5q73 0 120 -25.5t79 -77.5l-31 -24q-31 47 -68.5 66.5t-97.5 19.5q-53 0 -98 -21t-77 -54t-60 -83t-46 -98t-36 -109v-684h-41v897q0 152 -115 152q-54 0 -127 -50z" />
<glyph unicode="s" horiz-adv-x="1056" d="M119 776q0 138 117 226t313 88q94 0 199.5 -24.5t166.5 -55.5l-12 -41q-64 32 -163 56t-191 24q-172 0 -280.5 -77t-108.5 -196q0 -90 53.5 -128.5t185.5 -67.5l256 -56q136 -29 207.5 -82t71.5 -153q0 -134 -105.5 -221.5t-291.5 -87.5q-212 0 -387 92l14 43 q171 -95 373 -95q167 0 261.5 77.5t94.5 189.5q0 85 -62.5 128t-183.5 70l-256 56q-71 15 -115.5 31t-83 42t-56 66t-17.5 96z" />
<glyph unicode="t" horiz-adv-x="917" d="M53 1030v41h230v272h41v-272h479v-41h-481v-756q0 -122 60 -188t175 -66q68 0 147.5 25.5t133.5 65.5l22 -37q-142 -94 -305 -94q-131 0 -202.5 75.5t-71.5 216.5v758h-228z" />
<glyph unicode="u" horiz-adv-x="1355" d="M193 449v622h40v-620q0 -193 95.5 -312t279.5 -119q162 0 275.5 92.5t148.5 237.5v721h41v-899q0 -152 113 -152q52 0 127 52l20 -35q-71 -57 -147 -57q-154 0 -154 192v72q-56 -121 -166 -192.5t-258 -71.5q-200 0 -307.5 129.5t-107.5 339.5z" />
<glyph unicode="v" horiz-adv-x="1406" d="M35 1034q68 58 145 58q156 0 156 -193v-450q0 -202 114.5 -315.5t303.5 -113.5q193 0 321.5 132.5t128.5 351.5q0 269 -110 567h41q110 -287 110 -567q0 -116 -39 -215t-105.5 -166.5t-156 -105t-190.5 -37.5q-204 0 -331.5 126.5t-127.5 342.5v450q0 77 -26.5 114.5 t-88.5 37.5q-54 0 -127 -50z" />
<glyph unicode="w" horiz-adv-x="2160" d="M35 1036q74 54 147 54q88 0 121 -51t33 -140v-450q0 -208 97 -318.5t282 -110.5q186 0 298.5 120t112.5 309v622h41v-622q0 -193 99 -311t280 -118q99 0 178.5 39t130 106t77 153.5t26.5 185.5q0 266 -111 567h41q111 -289 111 -567q0 -237 -125 -380.5t-328 -143.5 q-167 0 -262.5 76.5t-138.5 240.5q-45 -158 -155.5 -237.5t-274.5 -79.5q-204 0 -312 121.5t-108 347.5v452q0 78 -25 115t-90 37q-56 0 -127 -52z" />
<glyph unicode="x" horiz-adv-x="1110" d="M74 0v6l450 526l-450 533v6h51l430 -504l432 504h49v-6l-452 -533l452 -526v-6h-53l-428 500l-426 -500h-55z" />
<glyph unicode="y" horiz-adv-x="1153" d="M-4 -330l16 41q51 -36 102 -56t126 -20q59 0 104 17t80 53t60.5 79.5t54.5 109.5l43 104l-535 1073h45l512 -1024l453 1024h45l-522 -1188q-31 -70 -59.5 -117.5t-68.5 -89t-92.5 -62t-119.5 -20.5q-127 0 -244 76z" />
<glyph unicode="z" horiz-adv-x="1040" d="M100 0v41l787 989h-787v41h840v-41l-786 -989h786v-41h-840z" />
<glyph unicode="{" horiz-adv-x="528" d="M111 510v41q188 0 188 158q0 63 -22.5 142t-49 141.5t-49 133.5t-22.5 121q0 38 11.5 73t36 66t69.5 49.5t104 18.5h57v-41h-55q-82 0 -132 -46.5t-50 -119.5q0 -57 35.5 -153.5t71.5 -202t36 -182.5q0 -80 -31.5 -121t-109.5 -58q79 -17 110 -58.5t31 -127.5 q0 -60 -22.5 -139t-49 -143t-49 -135t-22.5 -117q0 -73 50 -119.5t132 -46.5h55v-41h-57q-59 0 -104 18.5t-69.5 49.5t-36 66t-11.5 73q0 50 22.5 121t49 133.5t49 141.5t22.5 142q0 162 -188 162z" />
<glyph unicode="|" horiz-adv-x="464" d="M211 -385v1839h41v-1839h-41z" />
<glyph unicode="}" horiz-adv-x="528" d="M94 -356h56q82 0 132 46.5t50 119.5q0 57 -36 153.5t-72 201t-36 179.5q0 85 31.5 127t110.5 59q-78 17 -110 58.5t-32 120.5q0 77 36 182.5t72 202t36 153.5q0 73 -50 119.5t-132 46.5h-56v41h58q59 0 104 -18.5t69.5 -49.5t36 -66t11.5 -73q0 -61 -36 -157t-72 -199 t-36 -182q0 -158 189 -158v-41q-189 0 -189 -162q0 -79 36 -182t72 -199t36 -157q0 -38 -11.5 -73t-36 -66t-69.5 -49.5t-104 -18.5h-58v41z" />
<glyph unicode="~" horiz-adv-x="1034" d="M174 559q6 76 51.5 129t118.5 53q37 0 76 -20t72 -49t65.5 -58t67 -49t65.5 -20q115 0 135 149l37 -8q-11 -82 -55.5 -132t-116.5 -50q-38 0 -76 20t-69.5 49t-62.5 58t-67 49t-71 20q-49 0 -88 -38t-45 -111z" />
<glyph unicode="&#xa1;" horiz-adv-x="489" d="M172 1020q0 80 74 80q69 0 69 -80t-69 -80q-35 0 -54.5 21t-19.5 59zM223 -322v938h43v-938h-43z" />
<glyph unicode="&#xa2;" d="M111 532q0 164 67 292.5t194.5 202t295.5 73.5q72 0 145 -17l59 211l39 -10l-59 -213q122 -41 190 -136t74 -230l-41 -11q-6 125 -65.5 212.5t-169.5 125.5l-281 -1012q49 -8 119 -8q204 0 407 148l23 -39q-193 -150 -430 -150q-58 0 -129 11l-70 -254l-39 10l70 250 q-104 21 -181.5 70.5t-124.5 121.5t-70 160t-23 192zM152 532q0 -200 89.5 -333.5t278.5 -171.5l283 1015q-70 17 -135 17q-237 0 -376.5 -147.5t-139.5 -379.5z" />
<glyph unicode="&#xa3;" d="M96 147q0 79 54.5 131t142.5 52q32 0 68.5 -10t52.5 -21q0 34 1 49.5t-3.5 52.5t-7 55t-10 56.5t-12 58.5t-13 60.5t-13.5 62.5h-213v41h205q-31 174 -31 283q0 174 98 284.5t281 110.5q61 0 119 -17t98 -40.5t76 -55t54 -52t32 -40.5l-33 -30q-2 3 -8 10q-23 29 -38 46 t-48.5 47t-65.5 47t-81.5 30.5t-104.5 13.5q-164 0 -251 -98t-87 -256q0 -118 33 -283h537v-41h-529q4 -20 13.5 -63.5t13 -62t11.5 -60.5t10 -59t7 -57.5t3 -56t-2 -54.5q33 -19 90.5 -66t105.5 -88t107.5 -74t105.5 -33q228 0 228 394h38q0 -204 -66.5 -319t-199.5 -115 q-54 0 -118 32t-110.5 71.5t-101.5 85t-83 62.5q-31 -251 -201 -251q-74 0 -114 45.5t-40 121.5zM137 147q0 -56 26.5 -91.5t86.5 -35.5q53 0 87.5 33.5t49.5 81t23 117.5q-55 37 -119 37q-65 0 -109.5 -39t-44.5 -103z" />
<glyph unicode="&#xa4;" horiz-adv-x="1148" d="M197 270l118 117q-84 94 -84 229q0 138 84 232l-118 119l30 30l119 -120q92 79 225 79q140 0 230 -84l123 125l30 -30l-125 -123q82 -95 82 -228q0 -129 -80 -225l123 -121l-30 -30l-123 122q-91 -81 -230 -81q-134 0 -227 77l-117 -118zM272 616q0 -128 84 -211t215 -83 q133 0 216 83t83 211q0 130 -83.5 214.5t-215.5 84.5q-131 0 -215 -84.5t-84 -214.5z" />
<glyph unicode="&#xa5;" d="M111 1386v7h45l458 -738l457 738h47v-7l-471 -751h377v-41h-389v-182h389v-41h-389v-371h-41v371h-387v41h387v182h-387v41h373z" />
<glyph unicode="&#xa6;" horiz-adv-x="489" d="M223 326h43v-711h-43v711zM223 768v686h43v-686h-43z" />
<glyph unicode="&#xa7;" horiz-adv-x="1349" d="M168 604q0 107 82 192t246 113l-105 17q-40 6 -75.5 19.5t-68 36.5t-52 60.5t-19.5 85.5q0 116 131 200.5t361 84.5q265 0 485 -90l-14 -39q-78 35 -206.5 62.5t-264.5 27.5q-210 0 -330.5 -74t-120.5 -172q0 -136 184 -163l400 -60q178 -27 279.5 -107t101.5 -206 q0 -110 -83.5 -186.5t-234.5 -102.5q73 -13 125 -28.5t99 -41t70.5 -64.5t23.5 -91q0 -87 -68.5 -151.5t-183.5 -96t-260 -31.5q-254 0 -480 92l13 39q226 -90 467 -90q133 0 238.5 26.5t169 81t63.5 130.5q0 35 -14.5 62t-37.5 45.5t-63.5 33.5t-80.5 24.5t-101 20.5 l-369 66q-163 30 -235 93t-72 181zM209 604q0 -100 61 -154.5t211 -80.5l238 -41q194 2 308 72t114 192q0 108 -88 178t-260 96l-166 25q-109 -1 -192.5 -27.5t-131 -69t-71 -90.5t-23.5 -100z" />
<glyph unicode="&#xa8;" d="M334 1378q0 54 45 54q41 0 41 -54q0 -53 -41 -53q-45 0 -45 53zM838 1378q0 54 45 54q41 0 41 -54q0 -53 -41 -53q-45 0 -45 53z" />
<glyph unicode="&#xa9;" horiz-adv-x="1740" d="M154 694q0 203 93 368t256.5 258t364.5 93q152 0 285.5 -55t228.5 -150t150 -228.5t55 -285.5q0 -201 -93 -364.5t-258 -256.5t-368 -93q-201 0 -364.5 93t-256.5 256.5t-93 364.5zM195 694q0 -189 88 -343.5t242 -242.5t343 -88q143 0 269 52t215.5 141t141.5 214.5 t52 266.5q0 143 -52 269t-141.5 215.5t-215.5 141.5t-269 52q-189 0 -343 -88t-242 -243.5t-88 -346.5zM522 694q0 166 97 262.5t253 96.5q132 0 207 -70t78 -192l-37 -9q-3 110 -67.5 171t-180.5 61q-139 0 -224 -85.5t-85 -234.5t85.5 -234t225.5 -85q72 0 143.5 30.5 t117.5 73.5l24 -30q-51 -48 -127.5 -80.5t-159.5 -32.5q-156 0 -253 96t-97 262z" />
<glyph unicode="&#xaa;" horiz-adv-x="999" d="M184 946q0 114 89.5 172t234.5 58q65 0 139 -19v41q0 90 -43 130t-139 40q-119 0 -207 -45l-10 41q39 20 103 32.5t114 12.5q114 0 168.5 -51.5t54.5 -157.5v-338q0 -86 66 -86q30 0 73 29l11 -35q-46 -33 -93 -33q-86 0 -98 92q-96 -92 -225 -92q-107 0 -172.5 55 t-65.5 154zM201 498v41h604v-41h-604zM225 946q0 -76 53.5 -122t143.5 -46q125 0 225 96v242q-55 19 -139 19q-129 0 -206 -46t-77 -143z" />
<glyph unicode="&#xab;" horiz-adv-x="997" d="M115 612v17l321 397h6l15 -33l-299 -372l301 -373l-17 -33h-6zM500 612v17l321 397h6l15 -33l-299 -372l301 -373l-17 -33h-6z" />
<glyph unicode="&#xac;" d="M160 721v41h907v-473h-41v432h-866z" />
<glyph unicode="&#xad;" horiz-adv-x="1064" d="M172 598v43h721v-43h-721z" />
<glyph unicode="&#xae;" horiz-adv-x="1740" d="M154 694q0 203 93 368t256.5 258t364.5 93q152 0 285.5 -55t228.5 -150t150 -228.5t55 -285.5q0 -201 -93 -364.5t-258 -256.5t-368 -93q-201 0 -364.5 93t-256.5 256.5t-93 364.5zM195 694q0 -189 88 -343.5t242 -242.5t343 -88q143 0 269 52t215.5 141t141.5 214.5 t52 266.5q0 143 -52 269t-141.5 215.5t-215.5 141.5t-269 52q-189 0 -343 -88t-242 -243.5t-88 -346.5zM602 346v696h219q53 0 91 -3t83 -15.5t72.5 -35t46.5 -64t19 -99.5q0 -199 -265 -211q18 -18 57 -65t69.5 -82t74.5 -64.5t84 -29.5q42 0 96 26l8 -37q-54 -26 -106 -26 q-44 0 -88 24.5t-79.5 62t-66.5 75.5t-60 71.5t-48 44.5h-166v-268h-41zM643 647h260q80 0 134.5 47.5t54.5 128.5q0 89 -55 136t-134 47h-260v-359z" />
<glyph unicode="&#xaf;" d="M393 1337v41h469v-41h-469z" />
<glyph unicode="&#xb0;" horiz-adv-x="937" d="M129 1071q0 147 95.5 243.5t244.5 96.5q150 0 245 -96.5t95 -243.5q0 -146 -95 -241t-245 -95q-149 0 -244.5 95.5t-95.5 240.5zM170 1071q0 -128 84 -211.5t215 -83.5q133 0 216 83t83 212q0 130 -83.5 214.5t-215.5 84.5q-131 0 -215 -84.5t-84 -214.5z" />
<glyph unicode="&#xb1;" d="M162 207v41h905v-41h-905zM162 821v41h432v432h41v-432h432v-41h-432v-370h-41v370h-432z" />
<glyph unicode="&#xb2;" horiz-adv-x="647" d="M94 1407q2 95 62 153t166 58q105 0 160 -55t55 -142q0 -124 -136 -225l-237 -178h395v-37h-457v37l273 205q63 47 93 92.5t30 101.5q0 71 -45 116.5t-131 45.5q-89 0 -138 -49t-51 -127z" />
<glyph unicode="&#xb3;" horiz-adv-x="655" d="M94 1016l12 37q95 -43 199 -43q90 0 150.5 39t60.5 106q0 60 -46.5 95.5t-131.5 35.5h-172v37h172q71 0 113.5 39t42.5 90q0 127 -189 127q-62 0 -102.5 -11t-91.5 -36l-13 37q106 49 207 49q103 0 165 -43.5t62 -120.5q0 -56 -31 -98t-89 -49q69 -11 106 -50.5 t37 -105.5q0 -83 -69.5 -131.5t-180.5 -48.5q-21 0 -41.5 1.5t-39.5 5.5t-34 7t-32 8.5t-25 8t-23 8t-16 6.5z" />
<glyph unicode="&#xb4;" d="M518 1257l170 261h51l-170 -261h-51z" />
<glyph unicode="&#xb5;" horiz-adv-x="1288" d="M229 -385v1456h41v-620q0 -193 95.5 -312t279.5 -119q162 0 275.5 92.5t148.5 237.5v721h41v-1071h-41v244q-56 -121 -166 -192.5t-258 -71.5q-139 0 -234 63.5t-141 175.5v-604h-41z" />
<glyph unicode="&#xb6;" horiz-adv-x="983" d="M92 868q0 95 58 148t151 55h158v-1456h-43v1053h-115q-92 0 -150.5 53t-58.5 147zM702 -385v1456h43v-1456h-43z" />
<glyph unicode="&#xb7;" horiz-adv-x="479" d="M172 614q0 76 66 76q69 0 69 -76q0 -75 -69 -75q-66 0 -66 75z" />
<glyph unicode="&#xb8;" d="M449 -379l12 39q70 -25 131 -25q66 0 106.5 25.5t40.5 75.5q0 39 -32.5 60.5t-94.5 21.5q-56 0 -123 -19l-4 6l50 195h40l-36 -150q45 9 75 9q76 0 121 -33.5t45 -89.5q0 -67 -54 -104.5t-134 -37.5q-72 0 -143 27z" />
<glyph unicode="&#xb9;" horiz-adv-x="483" d="M43 1487l262 119h39v-627h-39v586l-246 -113z" />
<glyph unicode="&#xba;" horiz-adv-x="1044" d="M182 1071q0 147 95.5 243.5t244.5 96.5q150 0 245 -96.5t95 -243.5q0 -146 -95 -241t-245 -95q-149 0 -244.5 95.5t-95.5 240.5zM221 498v41h604v-41h-604zM223 1071q0 -128 84 -211.5t215 -83.5q132 0 215.5 83t83.5 212q0 130 -83.5 214.5t-215.5 84.5 q-131 0 -215 -84.5t-84 -214.5z" />
<glyph unicode="&#xbb;" horiz-adv-x="997" d="M154 993l16 33h6l322 -397v-17l-322 -397h-6l-14 33l299 373zM539 993l16 33h6l322 -397v-17l-322 -397h-6l-14 33l299 373z" />
<glyph unicode="&#xbc;" horiz-adv-x="1480" d="M78 1282l262 119h39v-627h-39v586l-246 -113zM248 0v6l753 1387h41v-7l-753 -1386h-41zM813 145v37l395 445h39v-445h150v-37h-150v-145h-39v145h-395zM862 182h346v385z" />
<glyph unicode="&#xbd;" horiz-adv-x="1411" d="M78 1272l262 119h39v-627h-39v586l-246 -113zM248 0v6l753 1387h41v-7l-753 -1386h-41zM834 426q2 95 61.5 153t165.5 58q105 0 160 -55t55 -142q0 -65 -32.5 -119t-102.5 -106l-238 -178h395v-37h-456v37l272 205q63 47 93 92.5t30 101.5q0 71 -45 116.5t-131 45.5 q-89 0 -138 -49t-51 -127z" />
<glyph unicode="&#xbe;" horiz-adv-x="1638" d="M129 811l12 37q95 -43 199 -43q90 0 150.5 39t60.5 106q0 60 -46.5 95.5t-131.5 35.5h-172v37h172q71 0 113 39t42 90q0 127 -188 127q-62 0 -103 -11t-92 -36l-12 37q106 49 207 49q103 0 165 -43.5t62 -120.5q0 -56 -31.5 -98t-89.5 -49q69 -11 106.5 -50.5 t37.5 -105.5q0 -83 -69.5 -131.5t-180.5 -48.5q-21 0 -41.5 1.5t-39.5 5.5t-34 7t-32 8.5t-25 8t-23 8t-16 6.5zM408 0v6l753 1387h41v-7l-753 -1386h-41zM973 145v37l395 445h39v-445h149v-37h-149v-145h-39v145h-395zM1022 182h346v385z" />
<glyph unicode="&#xbf;" horiz-adv-x="964" d="M131 -2q0 38 6.5 73t14 59.5t26.5 53t29.5 42.5t38 39.5t37 33t41.5 33.5l129 100q51 38 67.5 63t16.5 64q0 23 -9 57h43q7 -31 7 -57q0 -52 -25.5 -89t-79.5 -77l-125 -96q-43 -33 -68.5 -56.5t-53.5 -60t-41 -81.5t-13 -101q0 -136 93.5 -218.5t232.5 -82.5 q234 0 327 190l39 -24q-104 -207 -366 -207q-159 0 -263 95t-104 247zM473 1020q0 80 74 80q69 0 69 -80t-69 -80q-35 0 -54.5 21t-19.5 59z" />
<glyph unicode="&#xc0;" horiz-adv-x="1380" d="M53 0l627 1393h41l586 -1393h-41l-160 377h-842l-170 -377h-41zM283 418h807l-392 928zM506 1839h51l170 -260h-51z" />
<glyph unicode="&#xc1;" horiz-adv-x="1380" d="M53 0l627 1393h41l586 -1393h-41l-160 377h-842l-170 -377h-41zM283 418h807l-392 928zM649 1579l170 260h51l-170 -260h-51z" />
<glyph unicode="&#xc2;" horiz-adv-x="1380" d="M53 0l627 1393h41l586 -1393h-41l-160 377h-842l-170 -377h-41zM283 418h807l-392 928zM442 1579l232 260h51l231 -260h-61l-197 221l-194 -221h-62z" />
<glyph unicode="&#xc3;" horiz-adv-x="1380" d="M53 0l627 1393h41l586 -1393h-41l-160 377h-842l-170 -377h-41zM283 418h807l-392 928zM383 1667q28 50 72.5 86.5t101.5 36.5q32 0 73.5 -24t74.5 -52t70.5 -52t62.5 -24q90 0 145 109l29 -27q-27 -50 -72 -86.5t-100 -36.5q-33 0 -74.5 23.5t-74 52.5t-70.5 52.5 t-64 23.5q-85 0 -145 -109z" />
<glyph unicode="&#xc4;" horiz-adv-x="1380" d="M53 0l627 1393h41l586 -1393h-41l-160 377h-842l-170 -377h-41zM283 418h807l-392 928zM403 1700q0 53 46 53q40 0 40 -53t-40 -53q-46 0 -46 53zM907 1700q0 53 45 53q41 0 41 -53t-41 -53q-45 0 -45 53z" />
<glyph unicode="&#xc5;" horiz-adv-x="1380" d="M53 0l611 1356q-72 12 -120 68t-48 130q0 83 58.5 142t141.5 59t142 -59t59 -142q0 -73 -46 -127.5t-116 -68.5l572 -1358h-41l-160 377h-842l-170 -377h-41zM283 418h807l-392 928zM537 1554q0 -66 46.5 -112.5t112.5 -46.5t113 46.5t47 112.5t-47 113t-113 47 t-112.5 -47t-46.5 -113z" />
<glyph unicode="&#xc6;" horiz-adv-x="2158" d="M29 0l938 1393h1028v-41h-987v-598h837v-41h-837v-672h987v-41h-1028v377h-633l-254 -377h-51zM362 418h605v899z" />
<glyph unicode="&#xc7;" horiz-adv-x="1564" d="M154 694q0 167 51 303t143 227t221 140t283 49q265 0 414 -140t155 -386l-39 -6q-6 232 -143.5 361.5t-386.5 129.5q-297 0 -477 -181.5t-180 -496.5q0 -313 180 -493.5t477 -180.5q151 0 298.5 63.5t242.5 154.5l30 -33q-101 -96 -254 -160.5t-317 -64.5q-35 0 -51 2 l-31 -132q45 9 76 9q76 0 121 -33.5t45 -89.5q0 -67 -54.5 -104.5t-134.5 -37.5q-73 0 -143 27l12 39q70 -25 131 -25q67 0 107.5 25.5t40.5 75.5q0 39 -32.5 60.5t-94.5 21.5q-56 0 -123 -19l-4 6l45 179q-277 28 -442.5 215.5t-165.5 494.5z" />
<glyph unicode="&#xc8;" horiz-adv-x="1439" d="M248 0v1393h1028v-41h-987v-598h837v-41h-837v-672h987v-41h-1028zM567 1839h51l170 -260h-51z" />
<glyph unicode="&#xc9;" horiz-adv-x="1439" d="M248 0v1393h1028v-41h-987v-598h837v-41h-837v-672h987v-41h-1028zM719 1579l170 260h51l-170 -260h-51z" />
<glyph unicode="&#xca;" horiz-adv-x="1439" d="M248 0v1393h1028v-41h-987v-598h837v-41h-837v-672h987v-41h-1028zM504 1579l231 260h51l232 -260h-62l-196 221l-195 -221h-61z" />
<glyph unicode="&#xcb;" horiz-adv-x="1439" d="M248 0v1393h1028v-41h-987v-598h837v-41h-837v-672h987v-41h-1028zM465 1700q0 53 45 53q41 0 41 -53t-41 -53q-45 0 -45 53zM969 1700q0 53 45 53q41 0 41 -53t-41 -53q-45 0 -45 53z" />
<glyph unicode="&#xcc;" horiz-adv-x="536" d="M92 1839h51l170 -260h-51zM248 0v1393h41v-1393h-41z" />
<glyph unicode="&#xcd;" horiz-adv-x="536" d="M238 1579l170 260h51l-170 -260h-51zM248 0v1393h41v-1393h-41z" />
<glyph unicode="&#xce;" horiz-adv-x="536" d="M10 1579l232 260h51l231 -260h-61l-197 221l-194 -221h-62zM248 0v1393h41v-1393h-41z" />
<glyph unicode="&#xcf;" horiz-adv-x="536" d="M-29 1700q0 53 45 53q41 0 41 -53t-41 -53q-45 0 -45 53zM248 0v1393h41v-1393h-41zM475 1700q0 53 45 53q41 0 41 -53t-41 -53q-45 0 -45 53z" />
<glyph unicode="&#xd0;" horiz-adv-x="1607" d="M113 682v41h135v670h489q155 -1 286 -47t227.5 -132.5t151 -220t54.5 -299.5q0 -165 -54.5 -297.5t-151 -218.5t-227.5 -132t-286 -46h-489v682h-135zM289 41h448q147 0 271 42.5t214.5 123.5t141.5 206t51 281q0 158 -51 283.5t-142 206.5t-214 124t-271 44h-448v-629 h416v-41h-416v-641z" />
<glyph unicode="&#xd1;" horiz-adv-x="1703" d="M248 0v1393h41l1126 -1332v1332h41v-1393h-41l-1126 1325v-1325h-41zM557 1667q28 50 72.5 86.5t101.5 36.5q32 0 73.5 -24t74.5 -52t70.5 -52t62.5 -24q90 0 145 109l29 -27q-27 -50 -72 -86.5t-100 -36.5q-33 0 -74.5 23.5t-74 52.5t-70.5 52.5t-64 23.5 q-85 0 -145 -109z" />
<glyph unicode="&#xd2;" horiz-adv-x="1728" d="M147 694q0 152 54.5 285.5t149.5 228.5t227.5 150t283.5 55q152 0 285.5 -55t228.5 -150t150 -228.5t55 -285.5q0 -201 -93 -364.5t-258 -256.5t-368 -93q-201 0 -365 93t-257 256.5t-93 364.5zM188 694q0 -143 51 -268t140.5 -214.5t214.5 -140.5t268 -51 q193 0 348 87.5t242.5 241.5t87.5 345q0 193 -87.5 348t-242.5 242.5t-348 87.5q-191 0 -345 -87.5t-241.5 -242.5t-87.5 -348zM670 1839h51l170 -260h-51z" />
<glyph unicode="&#xd3;" horiz-adv-x="1728" d="M147 694q0 152 54.5 285.5t149.5 228.5t227.5 150t283.5 55q152 0 285.5 -55t228.5 -150t150 -228.5t55 -285.5q0 -201 -93 -364.5t-258 -256.5t-368 -93q-201 0 -365 93t-257 256.5t-93 364.5zM188 694q0 -143 51 -268t140.5 -214.5t214.5 -140.5t268 -51 q193 0 348 87.5t242.5 241.5t87.5 345q0 193 -87.5 348t-242.5 242.5t-348 87.5q-191 0 -345 -87.5t-241.5 -242.5t-87.5 -348zM834 1579l170 260h51l-170 -260h-51z" />
<glyph unicode="&#xd4;" horiz-adv-x="1728" d="M147 694q0 152 54.5 285.5t149.5 228.5t227.5 150t283.5 55q152 0 285.5 -55t228.5 -150t150 -228.5t55 -285.5q0 -201 -93 -364.5t-258 -256.5t-368 -93q-201 0 -365 93t-257 256.5t-93 364.5zM188 694q0 -143 51 -268t140.5 -214.5t214.5 -140.5t268 -51 q193 0 348 87.5t242.5 241.5t87.5 345q0 193 -87.5 348t-242.5 242.5t-348 87.5q-191 0 -345 -87.5t-241.5 -242.5t-87.5 -348zM604 1579l232 260h51l231 -260h-61l-197 221l-194 -221h-62z" />
<glyph unicode="&#xd5;" horiz-adv-x="1728" d="M147 694q0 152 54.5 285.5t149.5 228.5t227.5 150t283.5 55q152 0 285.5 -55t228.5 -150t150 -228.5t55 -285.5q0 -201 -93 -364.5t-258 -256.5t-368 -93q-201 0 -365 93t-257 256.5t-93 364.5zM188 694q0 -143 51 -268t140.5 -214.5t214.5 -140.5t268 -51 q193 0 348 87.5t242.5 241.5t87.5 345q0 193 -87.5 348t-242.5 242.5t-348 87.5q-191 0 -345 -87.5t-241.5 -242.5t-87.5 -348zM547 1667q28 50 72.5 86.5t101.5 36.5q32 0 73.5 -24t74 -52t70 -52t62.5 -24q91 0 146 109l29 -27q-27 -50 -72 -86.5t-100 -36.5 q-33 0 -74.5 23.5t-74 52.5t-70.5 52.5t-64 23.5q-86 0 -146 -109z" />
<glyph unicode="&#xd6;" horiz-adv-x="1728" d="M147 694q0 152 54.5 285.5t149.5 228.5t227.5 150t283.5 55q152 0 285.5 -55t228.5 -150t150 -228.5t55 -285.5q0 -201 -93 -364.5t-258 -256.5t-368 -93q-201 0 -365 93t-257 256.5t-93 364.5zM188 694q0 -143 51 -268t140.5 -214.5t214.5 -140.5t268 -51 q193 0 348 87.5t242.5 241.5t87.5 345q0 193 -87.5 348t-242.5 242.5t-348 87.5q-191 0 -345 -87.5t-241.5 -242.5t-87.5 -348zM567 1700q0 53 45 53q41 0 41 -53t-41 -53q-45 0 -45 53zM1071 1700q0 53 45 53q41 0 41 -53t-41 -53q-45 0 -45 53z" />
<glyph unicode="&#xd7;" d="M281 313l305 305l-305 306l28 28l305 -305l306 305l28 -28l-305 -306l305 -305l-28 -28l-306 305l-305 -305z" />
<glyph unicode="&#xd8;" horiz-adv-x="1728" d="M147 694q0 152 54.5 285.5t149.5 228.5t227.5 150t283.5 55q251 0 443 -143l98 123h45v-7l-115 -141q117 -98 182.5 -240.5t65.5 -310.5q0 -201 -93 -364.5t-258 -256.5t-368 -93q-252 0 -438 141l-98 -121h-45v6l112 139q-116 98 -181 240.5t-65 308.5zM188 694 q0 -158 60.5 -292t169.5 -226l860 1063q-179 133 -416 133q-191 0 -345 -87.5t-241.5 -242.5t-87.5 -348zM449 152q178 -132 413 -132q193 0 348 87.5t242.5 241.5t87.5 345q0 159 -61 293.5t-170 226.5z" />
<glyph unicode="&#xd9;" horiz-adv-x="1597" d="M227 549v844h41v-844q0 -119 31.5 -215t94.5 -168t165.5 -111t237.5 -39q109 0 197.5 28t150 76.5t103.5 116.5t61.5 146.5t19.5 167.5v842h41v-844q0 -117 -35.5 -219.5t-104.5 -182.5t-180.5 -126t-252.5 -46q-280 0 -425 156.5t-145 417.5zM604 1839h51l170 -260h-51z " />
<glyph unicode="&#xda;" horiz-adv-x="1597" d="M227 549v844h41v-844q0 -119 31.5 -215t94.5 -168t165.5 -111t237.5 -39q109 0 197.5 28t150 76.5t103.5 116.5t61.5 146.5t19.5 167.5v842h41v-844q0 -117 -35.5 -219.5t-104.5 -182.5t-180.5 -126t-252.5 -46q-280 0 -425 156.5t-145 417.5zM768 1579l170 260h51 l-170 -260h-51z" />
<glyph unicode="&#xdb;" horiz-adv-x="1597" d="M227 549v844h41v-844q0 -119 31.5 -215t94.5 -168t165.5 -111t237.5 -39q109 0 197.5 28t150 76.5t103.5 116.5t61.5 146.5t19.5 167.5v842h41v-844q0 -117 -35.5 -219.5t-104.5 -182.5t-180.5 -126t-252.5 -46q-280 0 -425 156.5t-145 417.5zM539 1579l231 260h51 l232 -260h-62l-196 221l-195 -221h-61z" />
<glyph unicode="&#xdc;" horiz-adv-x="1597" d="M227 549v844h41v-844q0 -119 31.5 -215t94.5 -168t165.5 -111t237.5 -39q109 0 197.5 28t150 76.5t103.5 116.5t61.5 146.5t19.5 167.5v842h41v-844q0 -117 -35.5 -219.5t-104.5 -182.5t-180.5 -126t-252.5 -46q-280 0 -425 156.5t-145 417.5zM502 1700q0 53 45 53 q41 0 41 -53t-41 -53q-45 0 -45 53zM1006 1700q0 53 45 53q41 0 41 -53t-41 -53q-45 0 -45 53z" />
<glyph unicode="&#xdd;" horiz-adv-x="1339" d="M43 1386v7h45l582 -742l581 742h45v-7l-606 -772v-614h-41v612zM639 1579l170 260h51l-170 -260h-51z" />
<glyph unicode="&#xde;" horiz-adv-x="1382" d="M248 0v1393h41v-246h512q100 0 181.5 -22.5t148.5 -71.5t104 -135.5t37 -204.5q0 -107 -37.5 -190t-103 -133.5t-149.5 -76.5t-181 -26h-512v-287h-41zM289 328h510q91 0 167.5 22.5t136.5 68t94 121t34 173.5q0 108 -33.5 186.5t-94.5 122.5t-136 64t-168 20h-510v-778z " />
<glyph unicode="&#xdf;" horiz-adv-x="1304" d="M211 0v961q0 230 122.5 372t328.5 142q175 0 294 -106t119 -265q0 -58 -23.5 -113t-57 -94t-67.5 -71t-57.5 -57t-23.5 -40q0 -10 25.5 -29.5t64 -42.5t83.5 -59t83.5 -75.5t64 -95.5t25.5 -116q0 -155 -110.5 -243t-282.5 -88q-99 0 -181 21.5t-131 51.5l15 41 q122 -74 297 -74q150 0 251 78.5t101 212.5q0 58 -25.5 110t-64 88t-83.5 70t-83.5 57.5t-64 48t-25.5 44.5q0 23 23.5 52t57.5 60.5t67.5 68t57 87.5t23.5 107q0 146 -108.5 238t-263.5 92q-189 0 -299.5 -127.5t-110.5 -345.5v-961h-41z" />
<glyph unicode="&#xe0;" horiz-adv-x="1378" d="M127 530q0 247 147.5 403.5t389.5 156.5q115 0 217 -48t174 -120v149h41v-899q0 -75 26.5 -113.5t87.5 -38.5q52 0 127 52l19 -35q-71 -57 -146 -57t-112 41.5t-43 121.5q-69 -70 -172 -116.5t-219 -46.5q-242 0 -389.5 153t-147.5 397zM168 530q0 -225 136 -367.5 t360 -142.5q119 0 222.5 52t168.5 125v673q-64 74 -167.5 126.5t-223.5 52.5q-223 0 -359.5 -145.5t-136.5 -373.5zM520 1518h51l170 -261h-51z" />
<glyph unicode="&#xe1;" horiz-adv-x="1378" d="M127 530q0 247 147.5 403.5t389.5 156.5q115 0 217 -48t174 -120v149h41v-899q0 -75 26.5 -113.5t87.5 -38.5q52 0 127 52l19 -35q-71 -57 -146 -57t-112 41.5t-43 121.5q-69 -70 -172 -116.5t-219 -46.5q-242 0 -389.5 153t-147.5 397zM168 530q0 -225 136 -367.5 t360 -142.5q119 0 222.5 52t168.5 125v673q-64 74 -167.5 126.5t-223.5 52.5q-223 0 -359.5 -145.5t-136.5 -373.5zM664 1257l170 261h51l-170 -261h-51z" />
<glyph unicode="&#xe2;" horiz-adv-x="1378" d="M127 530q0 247 147.5 403.5t389.5 156.5q115 0 217 -48t174 -120v149h41v-899q0 -75 26.5 -113.5t87.5 -38.5q52 0 127 52l19 -35q-71 -57 -146 -57t-112 41.5t-43 121.5q-69 -70 -172 -116.5t-219 -46.5q-242 0 -389.5 153t-147.5 397zM168 530q0 -225 136 -367.5 t360 -142.5q119 0 222.5 52t168.5 125v673q-64 74 -167.5 126.5t-223.5 52.5q-223 0 -359.5 -145.5t-136.5 -373.5zM414 1257l231 261h51l232 -261h-62l-196 222l-195 -222h-61z" />
<glyph unicode="&#xe3;" horiz-adv-x="1378" d="M127 530q0 247 147.5 403.5t389.5 156.5q115 0 217 -48t174 -120v149h41v-899q0 -75 26.5 -113.5t87.5 -38.5q52 0 127 52l19 -35q-71 -57 -146 -57t-112 41.5t-43 121.5q-69 -70 -172 -116.5t-219 -46.5q-242 0 -389.5 153t-147.5 397zM168 530q0 -225 136 -367.5 t360 -142.5q119 0 222.5 52t168.5 125v673q-64 74 -167.5 126.5t-223.5 52.5q-223 0 -359.5 -145.5t-136.5 -373.5zM356 1346q28 50 72.5 86t101.5 36q32 0 73.5 -23.5t74.5 -52t70.5 -52t62.5 -23.5q90 0 145 108l29 -26q-27 -50 -72 -86.5t-100 -36.5q-33 0 -74.5 23.5 t-74 52t-70.5 52t-64 23.5q-86 0 -145 -108z" />
<glyph unicode="&#xe4;" horiz-adv-x="1378" d="M127 530q0 247 147.5 403.5t389.5 156.5q115 0 217 -48t174 -120v149h41v-899q0 -75 26.5 -113.5t87.5 -38.5q52 0 127 52l19 -35q-71 -57 -146 -57t-112 41.5t-43 121.5q-69 -70 -172 -116.5t-219 -46.5q-242 0 -389.5 153t-147.5 397zM168 530q0 -225 136 -367.5 t360 -142.5q119 0 222.5 52t168.5 125v673q-64 74 -167.5 126.5t-223.5 52.5q-223 0 -359.5 -145.5t-136.5 -373.5zM418 1378q0 54 45 54q41 0 41 -54q0 -53 -41 -53q-45 0 -45 53zM922 1378q0 54 45 54q41 0 41 -54q0 -53 -41 -53q-45 0 -45 53z" />
<glyph unicode="&#xe5;" horiz-adv-x="1378" d="M127 530q0 247 147.5 403.5t389.5 156.5q115 0 217 -48t174 -120v149h41v-899q0 -75 26.5 -113.5t87.5 -38.5q52 0 127 52l19 -35q-71 -57 -146 -57t-112 41.5t-43 121.5q-69 -70 -172 -116.5t-219 -46.5q-242 0 -389.5 153t-147.5 397zM168 530q0 -225 136 -367.5 t360 -142.5q119 0 222.5 52t168.5 125v673q-64 74 -167.5 126.5t-223.5 52.5q-223 0 -359.5 -145.5t-136.5 -373.5zM492 1372q0 83 58.5 142t141.5 59t142 -59t59 -142t-59 -142t-142 -59t-141.5 59t-58.5 142zM532 1372q0 -66 47 -113t113 -47t113 47t47 113t-47 113 t-113 47t-113 -47t-47 -113z" />
<glyph unicode="&#xe6;" horiz-adv-x="1931" d="M102 309q0 80 27.5 144t76.5 107.5t118 72.5t149 42t174 13q157 0 256 -24q0 71 -5 123t-18.5 98.5t-37 77.5t-59 54t-86 33.5t-117.5 10.5q-206 0 -355 -76l-12 41q143 74 373 74q85 0 147.5 -18t99.5 -46t60.5 -73t33.5 -87.5t15 -101.5q18 56 50.5 109t83 104t126 82 t164.5 31q107 0 192 -36t137.5 -98t79.5 -141.5t27 -171.5q0 -82 -16 -141h-842q2 -87 14.5 -158t42.5 -136.5t77 -110t121.5 -71t172.5 -26.5q120 0 207 37t176 107l27 -37q-90 -72 -187 -109t-223 -37q-160 0 -267.5 66t-150.5 176q-33 -36 -54.5 -57.5t-70.5 -61.5 t-93 -63.5t-108 -42.5t-130 -19q-179 0 -287.5 93.5t-108.5 246.5zM143 309q0 -134 96.5 -216.5t258.5 -82.5q67 0 127.5 18t112 53t81.5 61t71 66l13 13v400q-111 26 -256 26q-110 0 -199 -18.5t-158.5 -57.5t-108 -105.5t-38.5 -156.5zM948 553h805q8 62 8 100 q0 110 -41.5 200t-132 148t-217.5 58q-87 0 -159 -31t-120 -81.5t-81 -117.5t-47.5 -136t-14.5 -140z" />
<glyph unicode="&#xe7;" horiz-adv-x="1255" d="M129 532q0 164 67 292.5t194.5 202t295.5 73.5q207 0 324 -107t125 -288l-41 -11q-8 169 -113 267t-295 98q-237 0 -376.5 -147.5t-139.5 -379.5q0 -115 29.5 -207.5t90.5 -163.5t164.5 -110t241.5 -39q205 0 408 148l22 -39q-193 -150 -430 -150q-12 0 -32.5 1t-28.5 1 l-31 -123q45 9 76 9q76 0 121 -33.5t45 -89.5q0 -67 -54.5 -104.5t-134.5 -37.5q-73 0 -143 27l12 39q70 -25 131 -25q67 0 107.5 25.5t40.5 75.5q0 39 -32.5 60.5t-94.5 21.5q-56 0 -123 -19l-4 6l43 172q-237 27 -351 175t-114 380z" />
<glyph unicode="&#xe8;" horiz-adv-x="1273" d="M125 532q0 155 65.5 283t193 206.5t294.5 78.5q118 0 209.5 -35.5t146.5 -98t83 -142t28 -171.5q0 -78 -17 -141h-964q2 -83 22 -156.5t61.5 -137.5t102 -110t148.5 -72t196 -26q220 0 404 144l26 -37q-184 -146 -430 -146q-146 0 -258 44.5t-178.5 123t-99.5 177.5 t-33 216zM164 553h932q8 62 8 100q0 82 -25 153.5t-75 129t-134 90.5t-192 33q-153 0 -270.5 -70t-179 -184t-64.5 -252zM516 1518h51l170 -261h-51z" />
<glyph unicode="&#xe9;" horiz-adv-x="1273" d="M125 532q0 155 65.5 283t193 206.5t294.5 78.5q118 0 209.5 -35.5t146.5 -98t83 -142t28 -171.5q0 -78 -17 -141h-964q2 -83 22 -156.5t61.5 -137.5t102 -110t148.5 -72t196 -26q220 0 404 144l26 -37q-184 -146 -430 -146q-146 0 -258 44.5t-178.5 123t-99.5 177.5 t-33 216zM164 553h932q8 62 8 100q0 82 -25 153.5t-75 129t-134 90.5t-192 33q-153 0 -270.5 -70t-179 -184t-64.5 -252zM639 1257l170 261h51l-170 -261h-51z" />
<glyph unicode="&#xea;" horiz-adv-x="1273" d="M125 532q0 155 65.5 283t193 206.5t294.5 78.5q118 0 209.5 -35.5t146.5 -98t83 -142t28 -171.5q0 -78 -17 -141h-964q2 -83 22 -156.5t61.5 -137.5t102 -110t148.5 -72t196 -26q220 0 404 144l26 -37q-184 -146 -430 -146q-146 0 -258 44.5t-178.5 123t-99.5 177.5 t-33 216zM164 553h932q8 62 8 100q0 82 -25 153.5t-75 129t-134 90.5t-192 33q-153 0 -270.5 -70t-179 -184t-64.5 -252zM432 1257l232 261h51l231 -261h-61l-197 222l-194 -222h-62z" />
<glyph unicode="&#xeb;" horiz-adv-x="1273" d="M125 532q0 155 65.5 283t193 206.5t294.5 78.5q118 0 209.5 -35.5t146.5 -98t83 -142t28 -171.5q0 -78 -17 -141h-964q2 -83 22 -156.5t61.5 -137.5t102 -110t148.5 -72t196 -26q220 0 404 144l26 -37q-184 -146 -430 -146q-146 0 -258 44.5t-178.5 123t-99.5 177.5 t-33 216zM164 553h932q8 62 8 100q0 82 -25 153.5t-75 129t-134 90.5t-192 33q-153 0 -270.5 -70t-179 -184t-64.5 -252zM393 1378q0 54 45 54q41 0 41 -54q0 -53 -41 -53q-45 0 -45 53zM897 1378q0 54 45 54q41 0 41 -54q0 -53 -41 -53q-45 0 -45 53z" />
<glyph unicode="&#xec;" horiz-adv-x="548" d="M70 1518h51l170 -261h-51zM215 172v899h41v-899q0 -152 115 -152q53 0 125 52l20 -35q-71 -57 -147 -57q-154 0 -154 192z" />
<glyph unicode="&#xed;" horiz-adv-x="548" d="M213 1257l170 261h51l-170 -261h-51zM215 172v899h41v-899q0 -152 115 -152q53 0 125 52l20 -35q-71 -57 -147 -57q-154 0 -154 192z" />
<glyph unicode="&#xee;" horiz-adv-x="548" d="M-23 1257l232 261h51l232 -261h-62l-197 222l-194 -222h-62zM215 172v899h41v-899q0 -152 115 -152q53 0 125 52l20 -35q-71 -57 -147 -57q-154 0 -154 192z" />
<glyph unicode="&#xef;" horiz-adv-x="548" d="M-59 1378q0 54 45 54q41 0 41 -54q0 -53 -41 -53q-45 0 -45 53zM215 172v899h41v-899q0 -152 115 -152q53 0 125 52l20 -35q-71 -57 -147 -57q-154 0 -154 192zM444 1378q0 54 45 54q41 0 41 -54q0 -53 -41 -53q-45 0 -45 53z" />
<glyph unicode="&#xf0;" horiz-adv-x="1286" d="M137 463q0 220 122 343.5t329 123.5q81 0 155.5 -26t126 -63t97.5 -87.5t71 -89.5t45 -78q7 65 7 112q0 176 -65.5 321.5t-176.5 250.5l-158 -160l-26 29l155 157q-112 97 -250 144l19 35q144 -47 258 -150l151 154l29 -29l-149 -152q115 -110 184 -263.5t69 -336.5 q0 -328 -143 -523t-395 -195q-195 0 -325 136t-130 347zM178 463q0 -190 118.5 -316.5t295.5 -126.5q195 0 322 135t163 367q-11 24 -26.5 52t-45.5 73.5t-70.5 85t-90.5 76.5t-116.5 58.5t-139.5 21.5q-182 0 -296 -112t-114 -314z" />
<glyph unicode="&#xf1;" horiz-adv-x="1363" d="M211 0v1071h41v-242q56 125 165 193t259 68q200 0 308 -131.5t108 -342.5v-444q0 -75 26.5 -113.5t87.5 -38.5q52 0 127 52l19 -35q-71 -57 -146 -57q-155 0 -155 192v444q0 124 -39.5 220t-125.5 154.5t-210 58.5q-163 0 -277 -91.5t-147 -236.5v-721h-41zM356 1346 q28 50 72.5 86t101.5 36q32 0 73.5 -23.5t74.5 -52t70.5 -52t62.5 -23.5q90 0 145 108l29 -26q-27 -50 -72 -86.5t-100 -36.5q-33 0 -74.5 23.5t-74 52t-70.5 52t-64 23.5q-86 0 -145 -108z" />
<glyph unicode="&#xf2;" horiz-adv-x="1380" d="M125 532q0 246 158 407t405 161q250 0 408.5 -161t158.5 -407q0 -243 -158.5 -402t-408.5 -159q-247 0 -405 159t-158 402zM166 532q0 -224 146.5 -372t375.5 -148q231 0 378.5 147.5t147.5 372.5q0 228 -147.5 377.5t-378.5 149.5q-229 0 -375.5 -150t-146.5 -377z M496 1518h51l170 -261h-51z" />
<glyph unicode="&#xf3;" horiz-adv-x="1380" d="M125 532q0 246 158 407t405 161q250 0 408.5 -161t158.5 -407q0 -243 -158.5 -402t-408.5 -159q-247 0 -405 159t-158 402zM166 532q0 -224 146.5 -372t375.5 -148q231 0 378.5 147.5t147.5 372.5q0 228 -147.5 377.5t-378.5 149.5q-229 0 -375.5 -150t-146.5 -377z M659 1257l170 261h52l-170 -261h-52z" />
<glyph unicode="&#xf4;" horiz-adv-x="1380" d="M125 532q0 246 158 407t405 161q250 0 408.5 -161t158.5 -407q0 -243 -158.5 -402t-408.5 -159q-247 0 -405 159t-158 402zM166 532q0 -224 146.5 -372t375.5 -148q231 0 378.5 147.5t147.5 372.5q0 228 -147.5 377.5t-378.5 149.5q-229 0 -375.5 -150t-146.5 -377z M430 1257l232 261h51l231 -261h-61l-197 222l-194 -222h-62z" />
<glyph unicode="&#xf5;" horiz-adv-x="1380" d="M125 532q0 246 158 407t405 161q250 0 408.5 -161t158.5 -407q0 -243 -158.5 -402t-408.5 -159q-247 0 -405 159t-158 402zM166 532q0 -224 146.5 -372t375.5 -148q231 0 378.5 147.5t147.5 372.5q0 228 -147.5 377.5t-378.5 149.5q-229 0 -375.5 -150t-146.5 -377z M373 1346q28 50 72.5 86t101.5 36q41 0 95 -38t104 -75.5t81 -37.5q91 0 146 108l28 -26q-27 -50 -72 -86.5t-100 -36.5q-33 0 -74 23.5t-73.5 52t-70.5 52t-64 23.5q-87 0 -146 -108z" />
<glyph unicode="&#xf6;" horiz-adv-x="1380" d="M125 532q0 246 158 407t405 161q250 0 408.5 -161t158.5 -407q0 -243 -158.5 -402t-408.5 -159q-247 0 -405 159t-158 402zM166 532q0 -224 146.5 -372t375.5 -148q231 0 378.5 147.5t147.5 372.5q0 228 -147.5 377.5t-378.5 149.5q-229 0 -375.5 -150t-146.5 -377z M393 1378q0 54 45 54q41 0 41 -54q0 -53 -41 -53q-45 0 -45 53zM897 1378q0 54 45 54q41 0 41 -54q0 -53 -41 -53q-45 0 -45 53z" />
<glyph unicode="&#xf7;" d="M162 598v41h905v-41h-905zM520 285q0 38 18 59t52 21q35 0 54.5 -21t19.5 -59q0 -80 -74 -80q-70 0 -70 80zM520 954q0 38 18 59t52 21q35 0 54.5 -21t19.5 -59q0 -80 -74 -80q-70 0 -70 80z" />
<glyph unicode="&#xf8;" horiz-adv-x="1380" d="M125 532q0 246 158 407t405 161q219 0 369 -125l76 94h45v-6l-93 -115q81 -76 125.5 -184t44.5 -232q0 -243 -158.5 -402t-408.5 -159q-179 0 -321 90l-50 -61h-45v6l64 78q-101 76 -156 192t-55 256zM166 532q0 -129 51.5 -237t144.5 -178l668 825q-142 117 -342 117 q-229 0 -375.5 -150t-146.5 -377zM393 94q127 -82 295 -82q231 0 378.5 147.5t147.5 372.5q0 234 -155 383z" />
<glyph unicode="&#xf9;" horiz-adv-x="1355" d="M193 449v622h40v-620q0 -193 95.5 -312t279.5 -119q162 0 275.5 92.5t148.5 237.5v721h41v-899q0 -152 113 -152q52 0 127 52l20 -35q-71 -57 -147 -57q-154 0 -154 192v72q-56 -121 -166 -192.5t-258 -71.5q-200 0 -307.5 129.5t-107.5 339.5zM457 1518h51l170 -261h-51 z" />
<glyph unicode="&#xfa;" horiz-adv-x="1355" d="M193 449v622h40v-620q0 -193 95.5 -312t279.5 -119q162 0 275.5 92.5t148.5 237.5v721h41v-899q0 -152 113 -152q52 0 127 52l20 -35q-71 -57 -147 -57q-154 0 -154 192v72q-56 -121 -166 -192.5t-258 -71.5q-200 0 -307.5 129.5t-107.5 339.5zM610 1257l170 261h51 l-169 -261h-52z" />
<glyph unicode="&#xfb;" horiz-adv-x="1355" d="M193 449v622h40v-620q0 -193 95.5 -312t279.5 -119q162 0 275.5 92.5t148.5 237.5v721h41v-899q0 -152 113 -152q52 0 127 52l20 -35q-71 -57 -147 -57q-154 0 -154 192v72q-56 -121 -166 -192.5t-258 -71.5q-200 0 -307.5 129.5t-107.5 339.5zM391 1257l232 261h51 l231 -261h-61l-197 222l-194 -222h-62z" />
<glyph unicode="&#xfc;" horiz-adv-x="1355" d="M193 449v622h40v-620q0 -193 95.5 -312t279.5 -119q162 0 275.5 92.5t148.5 237.5v721h41v-899q0 -152 113 -152q52 0 127 52l20 -35q-71 -57 -147 -57q-154 0 -154 192v72q-56 -121 -166 -192.5t-258 -71.5q-200 0 -307.5 129.5t-107.5 339.5zM348 1378q0 54 45 54 q41 0 41 -54q0 -53 -41 -53q-45 0 -45 53zM852 1378q0 54 45 54q41 0 41 -54q0 -53 -41 -53q-45 0 -45 53z" />
<glyph unicode="&#xfd;" horiz-adv-x="1153" d="M-4 -330l16 41q51 -36 102 -56t126 -20q59 0 104 17t80 53t60.5 79.5t54.5 109.5l43 104l-535 1073h45l512 -1024l453 1024h45l-522 -1188q-31 -70 -59.5 -117.5t-68.5 -89t-92.5 -62t-119.5 -20.5q-127 0 -244 76zM555 1257l170 261h51l-170 -261h-51z" />
<glyph unicode="&#xfe;" horiz-adv-x="1308" d="M211 -385v1839h41v-532q72 72 174.5 120t218.5 48q242 0 389.5 -154t147.5 -399q0 -246 -147.5 -401.5t-389.5 -155.5q-116 0 -218.5 47t-174.5 118v-530h-41zM252 199q62 -74 167 -126.5t226 -52.5q222 0 359 144.5t137 372.5q0 226 -136.5 369t-359.5 143 q-121 0 -225.5 -54t-167.5 -129v-667z" />
<glyph unicode="&#xff;" horiz-adv-x="1153" d="M-4 -330l16 41q51 -36 102 -56t126 -20q59 0 104 17t80 53t60.5 79.5t54.5 109.5l43 104l-535 1073h45l512 -1024l453 1024h45l-522 -1188q-31 -70 -59.5 -117.5t-68.5 -89t-92.5 -62t-119.5 -20.5q-127 0 -244 76zM297 1378q0 54 45 54q41 0 41 -54q0 -53 -41 -53 q-45 0 -45 53zM801 1378q0 54 45 54q41 0 41 -54q0 -53 -41 -53q-45 0 -45 53z" />
<glyph unicode="&#x152;" horiz-adv-x="2537" d="M147 694q0 152 54.5 285.5t149.5 228.5t227.5 150t283.5 55q138 0 262 -48.5t222 -135.5v164h1028v-41h-988v-598h838v-41h-838v-672h988v-41h-1028v162q-208 -182 -484 -182q-201 0 -365 93t-257 256.5t-93 364.5zM188 694q0 -143 51 -268t140.5 -214.5t214.5 -140.5 t268 -51q141 0 266 51.5t218 143.5v961q-94 92 -218 144t-266 52q-191 0 -345 -87.5t-241.5 -242.5t-87.5 -348z" />
<glyph unicode="&#x153;" horiz-adv-x="2367" d="M125 532q0 246 158 407t405 161q208 0 355.5 -113.5t193.5 -300.5q44 184 186 299t349 115q118 0 209.5 -35.5t146.5 -98t82.5 -142t27.5 -171.5q0 -82 -16 -141h-965q2 -105 34 -193.5t94.5 -159t165.5 -110t237 -39.5q219 0 403 144l27 -37q-184 -146 -430 -146 q-236 0 -374 109.5t-179 292.5q-48 -182 -195 -292t-352 -110q-247 0 -405 159t-158 402zM166 532q0 -224 146.5 -372t375.5 -148q231 0 378.5 147.5t147.5 372.5q0 228 -147.5 377.5t-378.5 149.5q-229 0 -375.5 -150t-146.5 -377zM1257 553h932q9 70 9 100q0 82 -25 153.5 t-75 129t-134 90.5t-192 33q-115 0 -212 -40.5t-162 -110t-102 -161t-39 -194.5z" />
<glyph unicode="&#x178;" horiz-adv-x="1339" d="M43 1386v7h45l582 -742l581 742h45v-7l-606 -772v-614h-41v612zM373 1700q0 53 45 53q41 0 41 -53t-41 -53q-45 0 -45 53zM877 1700q0 53 45 53q41 0 41 -53t-41 -53q-45 0 -45 53z" />
<glyph unicode="&#x2c6;" d="M371 1257l231 261h51l232 -261h-62l-196 222l-195 -222h-61z" />
<glyph unicode="&#x2dc;" d="M313 1346q28 50 72.5 86t101.5 36q32 0 73.5 -23.5t74.5 -52t70.5 -52t62.5 -23.5q90 0 145 108l29 -26q-27 -50 -72 -86.5t-100 -36.5q-33 0 -74.5 23.5t-74 52t-70.5 52t-64 23.5q-86 0 -145 -108z" />
<glyph unicode="&#x2000;" horiz-adv-x="919" />
<glyph unicode="&#x2001;" horiz-adv-x="1839" />
<glyph unicode="&#x2002;" horiz-adv-x="919" />
<glyph unicode="&#x2003;" horiz-adv-x="1839" />
<glyph unicode="&#x2004;" horiz-adv-x="613" />
<glyph unicode="&#x2005;" horiz-adv-x="459" />
<glyph unicode="&#x2006;" horiz-adv-x="306" />
<glyph unicode="&#x2007;" horiz-adv-x="306" />
<glyph unicode="&#x2008;" horiz-adv-x="229" />
<glyph unicode="&#x2009;" horiz-adv-x="367" />
<glyph unicode="&#x200a;" horiz-adv-x="102" />
<glyph unicode="&#x2010;" horiz-adv-x="1064" d="M172 598v43h721v-43h-721z" />
<glyph unicode="&#x2011;" horiz-adv-x="1064" d="M172 598v43h721v-43h-721z" />
<glyph unicode="&#x2012;" horiz-adv-x="1064" d="M172 598v43h721v-43h-721z" />
<glyph unicode="&#x2013;" horiz-adv-x="1249" d="M172 598v43h905v-43h-905z" />
<glyph unicode="&#x2014;" horiz-adv-x="1701" d="M172 598v43h1358v-43h-1358z" />
<glyph unicode="&#x2018;" horiz-adv-x="452" d="M150 1026q0 68 44 203t72 184l33 -14l-98 -303q45 0 69.5 -20t24.5 -50q0 -80 -72 -80q-35 0 -54 23.5t-19 56.5z" />
<glyph unicode="&#x2019;" horiz-adv-x="440" d="M160 956l102 304q-45 0 -69.5 20t-24.5 49q0 80 72 80q35 0 54 -23.5t19 -56.5q0 -66 -46 -201.5t-74 -185.5z" />
<glyph unicode="&#x201a;" horiz-adv-x="483" d="M162 -330l102 303q-45 0 -69.5 20t-24.5 50q0 80 72 80q35 0 54 -23.5t19 -56.5q0 -66 -46 -201.5t-74 -185.5z" />
<glyph unicode="&#x201c;" horiz-adv-x="778" d="M150 1026q0 68 44 203t72 184l33 -14l-98 -303q45 0 69.5 -20t24.5 -50q0 -80 -72 -80q-35 0 -54 23.5t-19 56.5zM475 1026q0 68 44.5 202.5t72.5 184.5l33 -14l-99 -303q45 0 70 -20t25 -50q0 -80 -72 -80q-35 0 -54.5 23.5t-19.5 56.5z" />
<glyph unicode="&#x201d;" horiz-adv-x="761" d="M160 956l98 304q-45 0 -69.5 20t-24.5 49q0 80 72 80q35 0 54 -23.5t19 -56.5q0 -66 -44.5 -202.5t-71.5 -184.5zM485 956l99 304q-45 0 -70 20t-25 49q0 80 72 80q35 0 54.5 -23.5t19.5 -56.5q0 -66 -44.5 -202t-72.5 -185z" />
<glyph unicode="&#x201e;" horiz-adv-x="808" d="M166 -330l98 303q-45 0 -69.5 20t-24.5 50q0 80 72 80q35 0 54 -23.5t19 -56.5q0 -66 -44.5 -202.5t-71.5 -184.5zM492 -330l98 303q-45 0 -69.5 20t-24.5 50q0 80 71 80q35 0 54.5 -23.5t19.5 -56.5q0 -66 -44.5 -202t-72.5 -185z" />
<glyph unicode="&#x2022;" horiz-adv-x="583" d="M172 618q0 64 30.5 98t86.5 34q59 0 91 -34t32 -98q0 -133 -123 -133q-117 0 -117 133z" />
<glyph unicode="&#x2026;" horiz-adv-x="1304" d="M172 49q0 38 18 59t52 21q35 0 54 -21t19 -59q0 -80 -73 -80q-70 0 -70 80zM582 49q0 80 69 80q35 0 54.5 -21t19.5 -59q0 -80 -74 -80q-69 0 -69 80zM991 49q0 38 18 59t52 21q35 0 54.5 -21t19.5 -59q0 -80 -74 -80q-70 0 -70 80z" />
<glyph unicode="&#x202f;" horiz-adv-x="367" />
<glyph unicode="&#x2039;" horiz-adv-x="612" d="M115 612v17l321 397h6l15 -33l-299 -372l301 -373l-17 -33h-6z" />
<glyph unicode="&#x203a;" horiz-adv-x="612" d="M154 993l16 33h6l322 -397v-17l-322 -397h-6l-14 33l299 373z" />
<glyph unicode="&#x205f;" horiz-adv-x="459" />
<glyph unicode="&#x20ac;" d="M98 557v41h109q-2 31 -2 96q0 59 2 88h-109v41h111q27 286 166 438t354 152q213 0 391 -153l-18 -39q-171 151 -373 151q-200 0 -326.5 -140t-150.5 -409h663l-20 -41h-647q-2 -29 -2 -88q0 -65 2 -96h563l-20 -41h-539q27 -260 153.5 -397t323.5 -137q214 0 381 133 l20 -35q-170 -141 -401 -141q-214 0 -351.5 148.5t-166.5 428.5h-113z" />
<glyph unicode="&#x2122;" horiz-adv-x="1742" d="M147 1317v41h535v-41h-240v-586h-41v586h-254zM856 731v627h41l291 -359l291 359h41v-627h-41v565l-285 -352h-12l-285 352v-565h-41z" />
<glyph unicode="&#x25fc;" horiz-adv-x="1075" d="M0 0v1075h1075v-1075h-1075z" />
<glyph unicode="&#xfb01;" horiz-adv-x="1501" d="M90 956v41h244v127q0 161 76 256t235 95q95 0 162 -40.5t106 -95.5l-28 -26q-93 121 -240 121q-142 0 -206 -83.5t-64 -226.5v-127h456v-41h-456v-956h-41v956h-244zM1145 1378q0 54 45 54q41 0 41 -54q0 -53 -41 -53q-45 0 -45 53zM1167 172v899h41v-899 q0 -152 115 -152q53 0 125 52l20 -35q-71 -57 -147 -57q-154 0 -154 192z" />
<glyph unicode="&#xfb02;" horiz-adv-x="1517" d="M90 956v41h244v127q0 161 76 256t235 95q95 0 162 -40.5t106 -95.5l-28 -26q-93 121 -240 121q-142 0 -206 -83.5t-64 -226.5v-127h456v-41h-456v-956h-41v956h-244zM1145 190v1264h41v-1261q0 -90 41.5 -131.5t111.5 -41.5q71 0 146 52l20 -35q-71 -57 -166 -57 q-89 0 -141.5 52t-52.5 158z" />
</font>
</defs>
</svg>
