<?xml version="1.0" standalone="no"?>
<!DOCTYPE svg PUBLIC "-//W3C//DTD SVG 1.1//EN" "http://www.w3.org/Graphics/SVG/1.1/DTD/svg11.dtd" >
<svg xmlns="http://www.w3.org/2000/svg">
<metadata></metadata>
<defs>
<font id="plutoblack" horiz-adv-x="1228" >
<font-face units-per-em="2048" ascent="1536" descent="-512" />
<missing-glyph horiz-adv-x="512" />
<glyph horiz-adv-x="0" />
<glyph horiz-adv-x="682" />
<glyph unicode=" "  horiz-adv-x="512" />
<glyph unicode="&#x09;" horiz-adv-x="512" />
<glyph unicode="&#xa0;" horiz-adv-x="512" />
<glyph unicode="!" horiz-adv-x="714" d="M109 207q0 113 65 176t184 63t185.5 -63.5t66.5 -175.5q0 -113 -66.5 -175.5t-185.5 -62.5q-120 0 -184.5 62t-64.5 176zM131 1393h451l-72 -858h-307z" />
<glyph unicode="&#x22;" horiz-adv-x="1083" d="M127 1393h348l-20 -553h-308zM608 1393h348l-20 -553h-307z" />
<glyph unicode="#" horiz-adv-x="1460" d="M86 295v225h201l82 326h-166v225h223l84 322h219v-31l-74 -291h324l84 322h219v-31l-74 -291h168v-225h-225l-82 -326h191v-225h-248l-74 -295h-223v33l67 262h-323l-74 -295h-223v33l67 262h-143zM516 520h324l82 326h-324z" />
<glyph unicode="$" d="M51 952q0 185 136 310t376 145v168h101v-164q137 -3 270 -34.5t219 -76.5l-125 -374q-80 50 -178.5 84.5t-185.5 40.5v-166l141 -45q196 -62 283.5 -155.5t87.5 -231.5q0 -195 -136 -323t-376 -146v-248h-101v244q-140 4 -276.5 40.5t-214.5 79.5l104 381 q80 -56 186.5 -96t200.5 -47v182l-184 51q-171 51 -249.5 141t-78.5 240zM502 977q0 -22 13.5 -36t47.5 -26v129q-61 -15 -61 -67zM664 348q57 23 57 78q0 37 -57 63v-141z" />
<glyph unicode="%" horiz-adv-x="1953" d="M68 1016q0 170 115 283.5t290 113.5t291.5 -113.5t116.5 -283.5q0 -169 -116.5 -281t-291.5 -112t-290 112t-115 281zM338 1016q0 -57 38 -98t97 -41q58 0 95.5 41t37.5 98q0 59 -37 100t-96 41t-97 -41.5t-38 -99.5zM483 0v33l758 1360h209v-31l-754 -1362h-213z M1073 373q0 170 115.5 283.5t290.5 113.5t291 -113.5t116 -283.5q0 -169 -116 -281t-291 -112t-290.5 112t-115.5 281zM1343 373q0 -57 38.5 -98.5t97.5 -41.5q58 0 95.5 41.5t37.5 98.5q0 59 -37 100t-96 41t-97.5 -41.5t-38.5 -99.5z" />
<glyph unicode="&#x26;" horiz-adv-x="1703" d="M84 385q0 127 78.5 215t234.5 148q-72 74 -108.5 143.5t-36.5 159.5q0 62 16.5 115t54.5 99t96 78.5t145.5 51t197.5 18.5q249 0 381.5 -93.5t132.5 -258.5q0 -133 -94.5 -233t-247.5 -158l158 -142q138 124 251 291l314 -244q-142 -184 -281 -301l260 -231v-63h-456 l-105 102q-229 -102 -479 -102q-235 0 -373.5 111.5t-138.5 293.5zM547 457q0 -48 36.5 -83.5t110.5 -35.5q47 0 103 16l-195 191q-55 -44 -55 -88zM670 963q0 -50 65 -115q60 20 92.5 52.5t32.5 70.5q0 28 -24 46.5t-74 18.5q-44 0 -68 -20.5t-24 -52.5z" />
<glyph unicode="'" horiz-adv-x="602" d="M127 1393h348l-20 -553h-308z" />
<glyph unicode="(" horiz-adv-x="743" d="M82 537q0 165 34.5 321.5t89.5 273t113.5 201t116.5 135.5l248 -135q-92 -149 -151.5 -357t-59.5 -441q0 -230 59.5 -438.5t151.5 -356.5l-248 -135q-58 51 -116.5 135.5t-113.5 201.5t-89.5 273.5t-34.5 321.5z" />
<glyph unicode=")" horiz-adv-x="743" d="M59 -260q92 148 151.5 356.5t59.5 438.5q0 233 -59.5 441t-151.5 357l248 135q58 -51 116.5 -135.5t114 -201t90 -273t34.5 -321.5t-34.5 -321.5t-90 -273.5t-114 -201.5t-116.5 -135.5z" />
<glyph unicode="*" horiz-adv-x="1150" d="M86 1092q0 74 53.5 123.5t143.5 23.5q29 -8 66 -30.5t59 -39.5t61 -49q-45 100 -45 195q0 75 46 116.5t108 41.5q60 0 104.5 -42t44.5 -116q0 -61 -47 -176q36 28 61 45t67.5 35.5t84.5 23.5q47 6 83.5 -7.5t56 -38.5t29 -51.5t9.5 -51.5q0 -66 -33 -103t-88 -47 q-88 -15 -229 10q58 -36 109.5 -81.5t74.5 -86.5q30 -59 18.5 -110t-52 -86t-85.5 -35q-97 0 -139 68q-50 80 -67 219q-24 -126 -76 -199q-56 -84 -150 -84q-47 0 -82.5 25t-51 62t-9 82t36.5 81q44 56 158 123q-99 -13 -216 18q-50 15 -77 52.5t-27 89.5z" />
<glyph unicode="+" d="M100 446v349h340v340h348v-340h340v-349h-340v-340h-348v340h-340z" />
<glyph unicode="," horiz-adv-x="698" d="M102 205q0 116 64 181t180 65t181 -65.5t65 -180.5q0 -131 -56.5 -281.5t-136.5 -281.5l-245 98l82 240q-134 50 -134 225z" />
<glyph unicode="-" horiz-adv-x="1150" d="M133 446v349h885v-349h-885z" />
<glyph unicode="." horiz-adv-x="706" d="M102 207q0 113 65.5 176t184.5 63t185.5 -63.5t66.5 -175.5q0 -113 -66.5 -175.5t-185.5 -62.5q-120 0 -185 62t-65 176z" />
<glyph unicode="/" horiz-adv-x="1069" d="M51 0v33l758 1360h209v-31l-754 -1362h-213z" />
<glyph unicode="0" horiz-adv-x="1495" d="M113 694q0 342 164 530.5t468 188.5q307 0 472 -188.5t165 -530.5q0 -339 -165 -526.5t-472 -187.5q-304 0 -468 187.5t-164 526.5zM549 694q0 -66 8 -117t28.5 -95.5t61 -68.5t98.5 -24q60 0 101 24t61.5 69t28.5 95t8 117q0 54 -4.5 96.5t-18 84t-35 69t-57.5 44 t-84 16.5q-47 0 -82.5 -16.5t-56.5 -44t-34.5 -69t-18 -84t-4.5 -96.5z" />
<glyph unicode="1" horiz-adv-x="1134" d="M16 1020l613 373h325v-1393h-450v881l-316 -197z" />
<glyph unicode="2" horiz-adv-x="1394" d="M96 887q6 246 160.5 386t423.5 140q275 0 419 -129.5t144 -339.5q0 -128 -70 -236.5t-229 -211.5l-164 -107h492v-389h-1122v332l489 362q78 57 109.5 106.5t31.5 102.5q0 42 -29 71.5t-79 29.5q-168 0 -168 -197z" />
<glyph unicode="3" horiz-adv-x="1320" d="M90 1346q72 24 215 45.5t258 21.5q600 0 600 -403q0 -98 -59.5 -174t-165.5 -109q274 -76 274 -342q0 -188 -160 -296.5t-489 -108.5q-122 0 -253 25t-210 50l107 369q63 -24 164 -45t192 -21t139 27.5t48 71.5q0 48 -45 68t-142 20h-289v327h289q72 0 109 24.5t37 66.5 q0 73 -146 73q-85 0 -194.5 -23.5t-180.5 -47.5z" />
<glyph unicode="4" horiz-adv-x="1488" d="M68 213v287l526 893h606v-852h186v-328h-186v-213h-450v213h-682zM512 541h238v407z" />
<glyph unicode="5" horiz-adv-x="1316" d="M88 61l109 367q66 -27 163 -48.5t189 -21.5t141 29t49 76q0 90 -159 90h-402l-18 16l71 824h924v-389h-547l-10 -125h10q592 0 592 -406q0 -243 -162 -368t-465 -125q-245 0 -485 81z" />
<glyph unicode="6" horiz-adv-x="1445" d="M111 698q0 328 172.5 521.5t488.5 193.5q251 0 500 -82l-113 -366q-176 69 -332 69q-122 0 -180 -49t-74 -145q117 69 261 69q252 0 379.5 -109t127.5 -313q0 -234 -158.5 -370.5t-414.5 -136.5q-314 0 -485.5 194t-171.5 524zM578 545q39 -156 190 -156q63 0 94 28.5 t31 69.5q0 95 -131 95q-79 0 -184 -37z" />
<glyph unicode="7" horiz-adv-x="1243" d="M84 1004v389h1090v-308l-502 -1085h-494v41l494 963h-588z" />
<glyph unicode="8" horiz-adv-x="1474" d="M111 385q0 139 65.5 223t202.5 119q-101 29 -161 107t-60 176q0 403 579 403q580 0 580 -403q0 -98 -60 -176t-161 -107q137 -35 202.5 -119t65.5 -223q0 -188 -156.5 -296.5t-470.5 -108.5t-470 108.5t-156 296.5zM567 457q0 -48 43.5 -83.5t126.5 -35.5t126.5 35.5 t43.5 83.5q0 47 -43.5 82.5t-126.5 35.5t-126.5 -35.5t-43.5 -82.5zM606 965q0 -44 32 -71.5t99 -27.5t99 27.5t32 71.5q0 43 -32 69.5t-99 26.5t-99 -26.5t-32 -69.5z" />
<glyph unicode="9" horiz-adv-x="1445" d="M104 905q0 234 159 371t415 137q314 0 485.5 -194.5t171.5 -524.5q0 -328 -172.5 -521t-488.5 -193q-145 0 -278.5 26t-221.5 55l113 367q179 -70 331 -70q121 0 178 49.5t76 145.5q-118 -70 -260 -70q-252 0 -380 109t-128 313zM553 905q0 -94 131 -94q79 0 184 37 q-39 156 -190 156q-63 0 -94 -29t-31 -70z" />
<glyph unicode=":" horiz-adv-x="737" d="M127 197q0 108 63.5 169.5t178.5 61.5q113 0 177 -61.5t64 -169.5q0 -109 -63.5 -168.5t-177.5 -59.5q-115 0 -178.5 59.5t-63.5 168.5zM127 868q0 108 63.5 170t178.5 62q113 0 177 -62t64 -170t-63.5 -167.5t-177.5 -59.5q-116 0 -179 59t-63 168z" />
<glyph unicode=";" horiz-adv-x="692" d="M98 868q0 108 63.5 170t178.5 62q113 0 177.5 -62t64.5 -170t-64 -167.5t-178 -59.5q-116 0 -179 59t-63 168zM117 193q0 111 60.5 173t172.5 62q110 0 173 -62.5t63 -172.5q0 -124 -54 -268t-131 -269l-235 94l78 227q-127 50 -127 216z" />
<glyph unicode="&#x3c;" d="M100 440v342l998 351h30v-334l-677 -181l677 -176v-338h-30z" />
<glyph unicode="=" d="M100 164v348h1028v-348h-1028zM100 727v348h1028v-348h-1028z" />
<glyph unicode="&#x3e;" d="M100 104v338l678 176l-678 181v334h31l997 -351v-342l-997 -336h-31z" />
<glyph unicode="?" horiz-adv-x="1052" d="M82 1313q208 100 450 100q209 0 326 -105.5t117 -273.5q0 -222 -174 -307l-117 -57q-29 -14 -42 -32.5t-13 -49.5q0 -23 6 -53h-363q-34 89 -34 174q0 110 122 176l111 59q28 15 38.5 27.5t10.5 32.5q0 40 -57 40t-140.5 -27.5t-136.5 -60.5zM203 207q0 113 65.5 176 t184.5 63t185.5 -63.5t66.5 -175.5q0 -113 -66.5 -175.5t-185.5 -62.5q-120 0 -185 62t-65 176z" />
<glyph unicode="@" horiz-adv-x="1996" d="M82 539q0 197 71.5 371t194.5 297.5t295.5 194.5t368.5 71q197 0 368 -63.5t290.5 -173t188 -261t68.5 -322.5q0 -315 -143.5 -472.5t-415.5 -157.5q-197 0 -258 133q-45 -60 -113.5 -95.5t-154.5 -35.5q-189 0 -308.5 139t-119.5 356q0 220 119.5 361t308.5 141 q148 0 237 -102v86h432v-703q0 -53 15.5 -72.5t58.5 -19.5q82 0 146.5 114t64.5 324q0 151 -56 280t-157 221t-248.5 144t-322.5 52q-174 0 -323.5 -59.5t-254 -165.5t-164 -256t-59.5 -326q0 -233 101.5 -418t284.5 -289t415 -104q209 0 383 86l43 -117q-196 -94 -426 -94 q-196 0 -368.5 72t-295.5 196.5t-194.5 298t-71.5 369.5zM854 520q0 -59 31 -92t86 -33q63 0 108 31v192q-42 31 -108 31q-56 0 -86.5 -33t-30.5 -96z" />
<glyph unicode="A" horiz-adv-x="1560" d="M8 0l506 1393h533l505 -1393h-454l-72 213h-494l-69 -213h-455zM643 541h275l-138 409z" />
<glyph unicode="B" horiz-adv-x="1554" d="M172 0v1393h680q508 0 508 -383q0 -194 -174 -283q284 -74 284 -342q0 -181 -137.5 -283t-386.5 -102h-774zM623 330h254q58 0 87 28.5t29 75.5q0 46 -29.5 75.5t-86.5 29.5h-254v-209zM623 868h163q56 0 84.5 27t28.5 72q0 44 -28.5 72t-84.5 28h-163v-199z" />
<glyph unicode="C" horiz-adv-x="1482" d="M98 694q0 166 56 302.5t154 227.5t231 140t288 49q267 0 415.5 -139.5t154.5 -386.5l-412 -84q0 95 -38 145.5t-126 50.5q-116 0 -187 -80.5t-71 -224.5q0 -143 74.5 -222t200.5 -79q189 0 356 146l205 -334q-101 -96 -254.5 -160.5t-317.5 -64.5q-154 0 -287.5 49 t-231.5 139t-154 225.5t-56 300.5z" />
<glyph unicode="D" horiz-adv-x="1665" d="M172 0v1393h674q155 -1 286 -47t227.5 -132.5t151 -220t54.5 -299.5q0 -165 -54.5 -297.5t-151 -218.5t-227.5 -132t-286 -46h-674zM623 389h202q126 0 200.5 81t74.5 224q0 146 -74.5 228t-200.5 82h-202v-615z" />
<glyph unicode="E" horiz-adv-x="1443" d="M172 0v1393h1151v-389h-721v-123h572v-359h-572v-133h721v-389h-1151z" />
<glyph unicode="F" horiz-adv-x="1361" d="M172 0v1393h1110v-392h-680v-219h569v-391h-569v-391h-430z" />
<glyph unicode="G" horiz-adv-x="1566" d="M96 694q0 166 58 303t158.5 227t235.5 139.5t290 49.5q161 0 304 -48.5t253 -131.5l-203 -340q-142 106 -344 106q-128 0 -207.5 -80.5t-79.5 -224.5q0 -143 83 -222t224 -79q76 0 185 33v106h-275v291h670v-641q-99 -82 -276.5 -142t-333.5 -60q-155 0 -290 49 t-235.5 139t-158.5 226t-58 300z" />
<glyph unicode="H" horiz-adv-x="1736" d="M172 0v1393h451v-492h491v492h451v-1393h-451v512h-491v-512h-451z" />
<glyph unicode="I" horiz-adv-x="794" d="M172 0v1393h451v-1393h-451z" />
<glyph unicode="J" horiz-adv-x="1349" d="M33 559l442 41q4 -49 7 -75.5t11.5 -60.5t22 -50.5t37 -28.5t57.5 -12t58 11.5t38 30t21.5 50.5t9.5 63.5t2 79.5v785h451v-813q0 -135 -34 -243t-102.5 -188.5t-181 -124.5t-262.5 -44q-149 0 -257.5 40.5t-175 119t-101 181t-43.5 238.5z" />
<glyph unicode="K" horiz-adv-x="1669" d="M172 0v1393h451v-519h174l293 519h458v-68l-420 -653q15 -19 50.5 -70t61.5 -84t62 -72t72 -59t72 -20q80 0 129 16l41 -350q-44 -22 -118 -37.5t-146 -15.5q-81 0 -155 28t-127 68.5t-105.5 100t-85 109t-72.5 110.5t-62 89h-122v-485h-451z" />
<glyph unicode="L" horiz-adv-x="1312" d="M172 0v1393h451v-1004h639v-389h-1090z" />
<glyph unicode="M" horiz-adv-x="1982" d="M172 0v1393h369l450 -512l451 512h368v-1393h-450v686l-332 -397h-74l-331 397v-686h-451z" />
<glyph unicode="N" horiz-adv-x="1736" d="M172 0v1393h389l553 -676v676h451v-1393h-389l-553 676v-676h-451z" />
<glyph unicode="O" horiz-adv-x="1626" d="M96 694q0 152 54.5 285.5t149.5 228.5t227.5 150t283.5 55q152 0 285.5 -55t228.5 -150t150 -228.5t55 -285.5q0 -201 -93 -364.5t-258 -256.5t-368 -93q-201 0 -365 93t-257 256.5t-93 364.5zM535 694q0 -123 78 -207t198 -84q122 0 199 83.5t77 207.5q0 127 -76.5 211 t-199.5 84q-120 0 -198 -84.5t-78 -210.5z" />
<glyph unicode="P" horiz-adv-x="1507" d="M172 0v1393h743q109 0 203 -32.5t167 -96.5t115 -167t42 -235q0 -159 -73 -279.5t-191.5 -181.5t-262.5 -61h-292v-340h-451zM623 729h221q58 0 95.5 39t37.5 98q0 58 -37.5 98t-95.5 40h-221v-275z" />
<glyph unicode="Q" horiz-adv-x="1630" d="M96 694q0 152 54.5 285.5t149.5 228.5t227.5 150t283.5 55q152 0 285.5 -55t228.5 -150t150 -228.5t55 -285.5q0 -187 -81.5 -342t-223.5 -252q115 -96 209 -96q122 0 180 21l41 -355q-115 -39 -256 -39q-88 0 -171 28.5t-147.5 74t-114.5 90.5t-97.5 92t-71.5 64 q-148 2 -278.5 57.5t-223 150t-146 226t-53.5 280.5zM537 694q0 -123 77 -208t197 -85q122 0 199 84.5t77 208.5q0 127 -76.5 211t-199.5 84q-120 0 -197 -84.5t-77 -210.5z" />
<glyph unicode="R" horiz-adv-x="1624" d="M172 0v1393h756q99 0 188.5 -32t158.5 -90.5t109.5 -148.5t40.5 -198q0 -145 -85.5 -250.5t-227.5 -147.5q99 -79 171.5 -119t141.5 -40q80 0 129 16l41 -350q-104 -53 -243 -53q-88 0 -175 35t-163.5 95t-139.5 119.5t-134 130t-117 105.5v-465h-451zM623 791h229 q54 0 82.5 31.5t28.5 74.5q0 42 -28.5 74.5t-82.5 32.5h-229v-213z" />
<glyph unicode="S" horiz-adv-x="1333" d="M106 952q0 202 159.5 330.5t434.5 128.5q141 0 280.5 -32t227.5 -79l-125 -374q-87 56 -198 91.5t-205 35.5q-60 0 -91.5 -20.5t-31.5 -55.5q0 -23 17 -38t61 -28l225 -71q196 -62 283.5 -155.5t87.5 -231.5q0 -210 -157.5 -341.5t-430.5 -131.5q-145 0 -289 37.5 t-227 82.5l104 381q90 -61 206 -102t214 -41q60 0 92.5 26t32.5 62q0 50 -90 76l-252 69q-171 51 -249.5 141t-78.5 240z" />
<glyph unicode="T" horiz-adv-x="1355" d="M84 942v451h1188v-451h-369v-942h-450v942h-369z" />
<glyph unicode="U" horiz-adv-x="1669" d="M158 614v779h450v-748q0 -121 58.5 -186.5t164.5 -65.5q109 0 168.5 65.5t59.5 186.5v748h450v-779q0 -129 -46 -243.5t-130.5 -201.5t-214 -138t-287.5 -51t-285.5 47t-212 131.5t-130 201t-45.5 254.5z" />
<glyph unicode="V" horiz-adv-x="1601" d="M8 1393h496l297 -932l297 932h495l-506 -1393h-573z" />
<glyph unicode="W" horiz-adv-x="2330" d="M8 1393h488l305 -887l174 452l-148 435h492l244 -811l266 811h493l-505 -1393h-492l-154 424l-165 -424h-492z" />
<glyph unicode="X" horiz-adv-x="1603" d="M51 0v33l434 661l-434 668v31h512l240 -408l239 408h512v-31l-436 -668l436 -661v-33h-516l-235 401l-236 -401h-516z" />
<glyph unicode="Y" horiz-adv-x="1445" d="M-6 1362v31h502l227 -469l227 469h502v-31l-504 -850v-512h-450v510z" />
<glyph unicode="Z" horiz-adv-x="1398" d="M125 0v307l569 697h-569v389h1151v-308l-563 -696h563v-389h-1151z" />
<glyph unicode="[" horiz-adv-x="815" d="M154 -385v1839h567v-348h-219v-1143h219v-348h-567z" />
<glyph unicode="\" horiz-adv-x="1069" d="M51 1362v31h209l758 -1360v-33h-213z" />
<glyph unicode="]" horiz-adv-x="815" d="M94 -37h219v1143h-219v348h568v-1839h-568v348z" />
<glyph unicode="^" d="M55 745v31l391 617h328l391 -617v-31h-338l-217 367l-221 -367h-334z" />
<glyph unicode="_" horiz-adv-x="1523" d="M250 -63h1024v-267h-1024v267z" />
<glyph unicode="`" d="M328 1518h438l164 -344h-367z" />
<glyph unicode="a" horiz-adv-x="1507" d="M82 532q0 245 133.5 401.5t345.5 156.5q171 0 273 -117v98h450v-635q0 -80 51 -80q38 0 92 21l9 -357q-126 -40 -293 -40q-213 0 -277 149q-53 -67 -130.5 -107t-174.5 -40q-212 0 -345.5 154t-133.5 396zM541 532q0 -76 41 -119.5t112 -43.5q81 0 140 43v245 q-24 20 -63.5 31.5t-76.5 11.5q-72 0 -112.5 -44.5t-40.5 -123.5z" />
<glyph unicode="b" horiz-adv-x="1427" d="M141 0v1454h451v-477q113 113 274 113q212 0 346 -155t134 -398q0 -160 -60.5 -287t-170 -198.5t-249.5 -71.5q-172 0 -274 114v-94h-451zM592 410q24 -18 64.5 -29.5t76.5 -11.5q71 0 112.5 44.5t41.5 123.5q0 77 -42 120t-112 43q-85 0 -141 -41v-249z" />
<glyph unicode="c" horiz-adv-x="1224" d="M80 532q0 248 158.5 408t412.5 160q240 0 369 -118.5t137 -317.5l-397 -89q-7 70 -28.5 102t-78.5 32q-51 0 -79.5 -45.5t-28.5 -118.5q0 -72 47.5 -127.5t134.5 -55.5q57 0 130 31.5t116 69.5l170 -344q-89 -70 -211 -109t-260 -39q-148 0 -262 42t-185.5 118t-108 177 t-36.5 224z" />
<glyph unicode="d" horiz-adv-x="1509" d="M82 537q0 243 134 398t345 155q159 0 275 -113v477h450v-1018q0 -25 2.5 -40t13.5 -27.5t31 -12.5q29 0 94 21l11 -357q-131 -40 -295 -40q-212 0 -277 153q-106 -153 -305 -153q-210 0 -344.5 157t-134.5 400zM541 537q0 -79 41.5 -123.5t113.5 -44.5q35 0 74.5 11.5 t65.5 29.5v249q-56 41 -140 41q-71 0 -113 -43t-42 -120z" />
<glyph unicode="e" d="M80 532q0 248 158.5 408t414.5 160q119 0 213.5 -36t153.5 -98t90 -142t31 -171q0 -134 -23 -198h-612q10 -62 65 -105t146 -43q56 0 135 27.5t121 58.5l164 -276q-84 -68 -206.5 -107t-258.5 -39q-148 0 -262 42t-185.5 117.5t-108 177t-36.5 224.5zM510 664h289v6 q0 125 -137 125q-61 0 -103 -35.5t-49 -95.5z" />
<glyph unicode="f" horiz-adv-x="991" d="M84 690v346h166v37q0 81 24.5 152t72.5 127.5t127.5 89.5t180.5 33q62 0 146.5 -10.5t138.5 -24.5l-53 -322q-75 23 -119 23q-34 0 -51 -20.5t-17 -51.5v-33h232v-346h-232v-690h-450v690h-166z" />
<glyph unicode="g" horiz-adv-x="1425" d="M82 573q0 142 60 260t170.5 187.5t248.5 69.5q169 0 273 -101v82h450v-897q0 -115 -32 -211t-87.5 -163.5t-130.5 -114.5t-161 -69t-179 -22q-71 0 -139 8t-108 15.5t-96 26t-68 23.5t-58 24l90 311q3 -1 29 -12t33.5 -14t33 -12t39.5 -13t40.5 -10.5t47.5 -9t49 -5 t56 -2.5q191 0 191 154v69q-110 -86 -273 -86q-138 0 -248.5 69.5t-170.5 186t-60 256.5zM541 573q0 -61 40 -91.5t113 -30.5q69 0 140 49v153q-67 47 -140 47t-113 -32t-40 -95z" />
<glyph unicode="h" horiz-adv-x="1466" d="M141 0v1454h451v-473q125 109 291 109q100 0 176 -37t120.5 -103t66.5 -149.5t22 -184.5v-180q0 -80 47 -80q23 0 96 21l8 -357q-118 -40 -293 -40q-150 0 -229.5 80t-79.5 264v215q0 137 -112 137q-67 0 -113 -33v-643h-451z" />
<glyph unicode="i" horiz-adv-x="811" d="M123 1350q0 190 239 190q236 0 236 -190q0 -193 -236 -193q-239 0 -239 193zM135 324v747h451v-635q0 -25 2.5 -40t13.5 -27.5t31 -12.5q31 0 94 21l10 -357l-7 -2q-8 -1 -23 -5t-35 -8t-47 -8.5t-55 -8t-62 -6t-66 -2.5q-149 0 -228 80.5t-79 263.5z" />
<glyph unicode="j" horiz-adv-x="735" d="M8 -152q56 45 95.5 116.5t39.5 156.5v950h451v-911q0 -115 -25.5 -208t-73 -159.5t-98 -111.5t-116.5 -84zM133 1350q0 190 238 190q113 0 174 -44.5t61 -145.5q0 -193 -235 -193q-238 0 -238 193z" />
<glyph unicode="k" horiz-adv-x="1400" d="M141 0v1454h451v-706q49 1 82.5 8t65.5 26.5t52.5 55t37 93t26.5 140.5h451q-27 -374 -230 -541l258 -454v-76h-481l-180 389q-27 -2 -82 -2v-387h-451z" />
<glyph unicode="l" horiz-adv-x="806" d="M133 322v1132h451v-1018q0 -19 1 -30.5t5 -24.5t14 -19t25 -6q36 0 94 21l10 -357q-151 -40 -293 -40q-150 0 -228.5 79.5t-78.5 262.5z" />
<glyph unicode="m" horiz-adv-x="2138" d="M141 0v1071h451v-82q122 103 293 103q217 0 317 -168q133 166 350 166q100 0 176 -37t121.5 -103t67.5 -150t22 -184v-180q0 -38 9 -59t37 -21q38 0 96 21l10 -357q-48 -16 -130 -28t-165 -12q-149 0 -228 80t-79 264v215q0 137 -117 137q-57 0 -102 -25v-651h-451v541 q0 135 -114 135q-67 0 -113 -33v-643h-451z" />
<glyph unicode="n" horiz-adv-x="1466" d="M141 0v1071h451v-98q127 117 291 117q100 0 176 -37t120.5 -103t66.5 -149.5t22 -184.5v-180q0 -80 47 -80q42 0 96 21l8 -357q-106 -40 -293 -40q-150 0 -229.5 80t-79.5 264v215q0 137 -112 137q-67 0 -113 -33v-643h-451z" />
<glyph unicode="o" horiz-adv-x="1318" d="M78 532q0 244 165 406t414 162q166 0 299.5 -73.5t209 -203.5t75.5 -291q0 -159 -75.5 -287.5t-209 -201t-299.5 -72.5q-249 0 -414 160t-165 401zM510 532q0 -63 41.5 -109t105.5 -46q67 0 108.5 45.5t41.5 109.5q0 66 -41.5 112t-108.5 46q-65 0 -106 -46t-41 -112z " />
<glyph unicode="p" horiz-adv-x="1507" d="M74 1049l8 2q7 2 22 5.5t34.5 8t46 9t54.5 8t62 6t66 2.5q212 0 276 -154q110 154 305 154q212 0 347 -156.5t135 -401.5q0 -242 -135 -397t-347 -155q-162 0 -272 110v-475h-451v1018q0 26 -2.5 41t-13.5 27t-31 12q-48 -1 -96 -21zM676 410q60 -41 139 -41q72 0 114 43 t42 120q0 79 -42 123.5t-114 44.5q-36 0 -75.5 -11.5t-63.5 -29.5v-249z" />
<glyph unicode="q" horiz-adv-x="1425" d="M82 532q0 245 133.5 401.5t345.5 156.5q168 0 273 -113v94h450v-1456h-450v475q-113 -110 -273 -110q-212 0 -345.5 155t-133.5 397zM541 532q0 -77 41 -120t112 -43q80 0 140 41v249q-26 18 -65.5 29.5t-74.5 11.5q-72 0 -112.5 -44.5t-40.5 -123.5z" />
<glyph unicode="r" horiz-adv-x="1107" d="M74 1049q-1 0 14 4t43 10.5t63.5 12.5t82 10t90.5 4q213 0 278 -156q38 75 96 115.5t148 40.5q28 0 58 -4t52.5 -9t41.5 -10t28 -8t8 -2l-49 -416l-6 1q-5 2 -16.5 5t-27 7t-35 8t-40.5 7t-45 5t-47 2q-66 0 -99 -35t-36 -92v-549h-451v633q0 26 -2.5 41t-13.5 27t-31 12 q-12 0 -26.5 -2t-26.5 -5t-22.5 -6t-15.5 -4l-5 -2z" />
<glyph unicode="s" horiz-adv-x="1087" d="M88 715q0 170 136 272.5t368 102.5q105 0 223.5 -23t185.5 -53l-106 -328q-161 90 -283 90q-27 0 -46 -11.5t-19 -31.5q0 -29 37 -41l164 -49q74 -24 124.5 -57t76.5 -74t36 -81.5t10 -90.5q0 -157 -125.5 -258.5t-339.5 -101.5q-246 0 -434 92l80 315q210 -106 307 -106 q28 0 43 8.5t15 21.5q0 26 -62 49l-135 48q-132 46 -194 119.5t-62 187.5z" />
<glyph unicode="t" horiz-adv-x="1120" d="M63 725v346h197l53 272h367v-272h332v-346h-332v-254q0 -52 23.5 -75t70.5 -23q83 0 166 59l135 -338q-191 -114 -450 -114q-188 0 -292 109.5t-104 320.5v315h-166z" />
<glyph unicode="u" horiz-adv-x="1478" d="M129 455v616h451v-559q0 -123 112 -123q64 0 113 39v643h450v-635q0 -38 8.5 -59t36.5 -21q32 0 97 21l10 -357q-103 -40 -295 -40q-202 0 -270 139q-129 -139 -328 -139q-100 0 -176 37t-120.5 103.5t-66.5 150t-22 184.5z" />
<glyph unicode="v" horiz-adv-x="1370" d="M45 1049q112 41 293 41q151 0 230 -80t79 -265v-219q0 -75 15.5 -106t54.5 -31q53 0 77.5 34t24.5 118q0 139 -36 261.5t-103 268.5h479q111 -289 111 -559q0 -246 -140.5 -389t-412.5 -143q-520 0 -520 477v176q0 26 -2.5 41t-13.5 27t-31 12q-48 0 -97 -19z" />
<glyph unicode="w" horiz-adv-x="1980" d="M45 1049q144 41 305 41q152 0 224.5 -88t72.5 -246v-230q0 -75 16 -106t58 -31q43 0 62.5 34.5t19.5 121.5v526h450v-555q0 -68 13 -97.5t59 -29.5q107 0 107 162q0 75 -12 147.5t-39 148.5t-42 112t-49 112h479q111 -289 111 -559q0 -243 -136 -387.5t-386 -144.5 q-216 0 -340 145q-128 -145 -354 -145q-237 0 -352 125t-115 352v176q0 26 -2.5 41t-13.5 27t-31 12q-48 -1 -97 -21z" />
<glyph unicode="x" horiz-adv-x="1339" d="M61 0v33l295 499l-295 508v31h480l129 -289l131 289h477v-31l-297 -508l297 -499v-33h-481l-127 283l-125 -283h-484z" />
<glyph unicode="y" horiz-adv-x="1271" d="M-4 1071h498l151 -582l174 582h451l-393 -1012q-50 -130 -98.5 -214.5t-111.5 -142.5t-140.5 -83t-182.5 -25q-63 0 -133 20.5t-113 49.5l60 320q91 -41 168 -41q48 0 73.5 21.5t42.5 62.5l11 22z" />
<glyph unicode="z" horiz-adv-x="1126" d="M113 0v307l340 416h-340v348h901v-307l-334 -416h334v-348h-901z" />
<glyph unicode="{" horiz-adv-x="831" d="M59 401v254q122 0 177 33.5t55 106.5q0 59 -41 180.5t-41 200.5q0 143 96.5 210.5t292.5 67.5h137v-307h-92q-47 0 -66.5 -24t-19.5 -58q0 -43 41 -157t41 -179q0 -81 -48.5 -132.5t-144.5 -68.5q96 -17 144.5 -68.5t48.5 -131.5q0 -66 -41 -180.5t-41 -157.5 q0 -34 19.5 -58t66.5 -24h92v-307h-137q-197 0 -293 70.5t-96 226.5q0 80 41 204.5t41 188.5t-52.5 87t-179.5 23z" />
<glyph unicode="|" horiz-adv-x="655" d="M154 -385v1839h348v-1839h-348z" />
<glyph unicode="}" horiz-adv-x="831" d="M96 -92h92q47 0 66.5 24t19.5 58q0 43 -40.5 157.5t-40.5 180.5q0 81 48 132t144 68q-95 17 -143.5 68.5t-48.5 132.5q0 65 40.5 179t40.5 157q0 34 -19.5 58t-66.5 24h-92v307h137q196 0 293 -67.5t97 -210.5q0 -79 -41 -200.5t-41 -180.5q0 -73 54.5 -106.5 t176.5 -33.5v-254q-127 0 -179 -23t-52 -87t41 -188.5t41 -204.5q0 -156 -96.5 -226.5t-293.5 -70.5h-137v307z" />
<glyph unicode="~" horiz-adv-x="1146" d="M88 631q34 79 114 134.5t173 55.5q61 0 119.5 -18t95.5 -39t81 -39t81 -18q99 0 174 100l135 -219q-38 -92 -120.5 -147.5t-174.5 -55.5q-55 0 -108 18t-89 39.5t-84 39.5t-94 18q-100 0 -174 -101z" />
<glyph unicode="&#xa1;" horiz-adv-x="690" d="M92 862q0 113 66.5 175.5t185.5 62.5q120 0 185 -62t65 -176q0 -113 -65.5 -176t-184.5 -63t-185.5 63.5t-66.5 175.5zM121 -324l72 859h307l71 -859h-450z" />
<glyph unicode="&#xa2;" d="M76 532q0 248 158.5 408t412.5 160q49 0 92 -6l62 219l121 -33l-60 -213q137 -45 211 -150t80 -253l-358 -76q-6 71 -35 110l-98 -354q14 -2 47 -2q143 0 268 111l162 -334q-89 -70 -211 -109t-260 -39q-58 0 -107 6l-74 -264l-118 33l69 256q-180 56 -271 195t-91 335z M500 549q0 -93 49 -148l94 344q-63 -3 -103 -56.5t-40 -139.5z" />
<glyph unicode="&#xa3;" d="M33 240q0 103 63.5 166t161.5 63q42 0 78 -8q-2 60 -39 182h-180v125h141q-35 140 -35 236q0 87 28 160t84.5 129.5t149 88t213.5 31.5q120 0 255.5 -37t203.5 -84l-121 -389q-131 101 -243 101q-117 0 -117 -117q0 -41 10 -119h281v-125h-267q13 -132 13 -188 q0 -53 -6 -103q31 -22 69 -22q86 0 86 119q0 31 -2 47h326q10 -78 10 -136q0 -176 -80 -278t-246 -102q-71 0 -129 25.5t-131 86.5q-62 -64 -131.5 -88t-185.5 -24q-121 0 -190.5 73t-69.5 187zM205 184q0 -45 45 -45q29 0 46 26t23 56q-20 17 -53 17q-29 0 -45 -16t-16 -38 z" />
<glyph unicode="&#xa4;" horiz-adv-x="1204" d="M115 381l94 94q-25 67 -25 143t25 146l-94 96l247 248l107 -109q66 17 121 17q68 0 139 -23l113 115l248 -248l-113 -112q20 -65 20 -130q0 -61 -20 -126l113 -111l-248 -248l-113 113q-65 -21 -139 -21q-66 0 -121 15l-107 -107zM455 618q0 -57 38 -98t97 -41 q58 0 95.5 41t37.5 98q0 59 -37.5 100.5t-95.5 41.5q-59 0 -97 -42t-38 -100z" />
<glyph unicode="&#xa5;" d="M18 1362v31h461l125 -531l146 531h460v-31l-340 -758h213v-125h-254v-121h254v-125h-254v-233h-450v233h-254v125h254v121h-254v125h213z" />
<glyph unicode="&#xa6;" horiz-adv-x="671" d="M162 326h348v-711h-348v711zM162 768v686h348v-686h-348z" />
<glyph unicode="&#xa7;" horiz-adv-x="1323" d="M123 571q0 142 104 236q-104 79 -104 227q0 169 152.5 274t416.5 105q137 0 271.5 -25.5t216.5 -62.5l-119 -340q-90 45 -207 76t-219 31q-32 0 -55 -7.5t-23 -21.5q0 -21 57 -35l232 -55q356 -85 356 -316q0 -143 -112 -249q112 -82 112 -213q0 -171 -151.5 -280.5 t-411.5 -109.5q-139 0 -277.5 30.5t-218.5 66.5l101 348q90 -49 207.5 -82t218.5 -33q36 0 57 7.5t21 17.5q0 30 -86 49l-224 49q-164 36 -239.5 112.5t-75.5 200.5zM537 629q0 -22 12 -36t49 -24l125 -30q20 7 32.5 25.5t12.5 37.5q0 28 -15.5 39.5t-52.5 22.5l-129 26 q-16 -8 -25 -27t-9 -34z" />
<glyph unicode="&#xa8;" d="M141 1346q0 178 221 178q218 0 218 -178q0 -93 -58 -137t-160 -44q-103 0 -162 44t-59 137zM678 1346q0 178 221 178q215 0 215 -178q0 -181 -215 -181q-221 0 -221 181z" />
<glyph unicode="&#xa9;" horiz-adv-x="1642" d="M104 694q0 152 54.5 285.5t149.5 228.5t227.5 150t283.5 55q152 0 285.5 -55t228.5 -150t150 -228.5t55 -285.5q0 -201 -93 -364.5t-258 -256.5t-368 -93q-201 0 -365 93t-257 256.5t-93 364.5zM236 694q0 -167 74.5 -302.5t208.5 -212.5t300 -77q168 0 303 77t210 212.5 t75 302.5q0 169 -75 305t-210 213.5t-303 77.5q-125 0 -233.5 -45.5t-185 -124t-120.5 -189t-44 -237.5zM463 694q0 165 104 262t262 97q134 0 208 -69.5t77 -192.5l-233 -48q0 37 -12 55.5t-44 18.5q-41 0 -69.5 -33t-28.5 -90t30.5 -90t78.5 -33q83 0 163 66l117 -188 q-51 -48 -127.5 -80.5t-159.5 -32.5q-158 0 -262 97t-104 261z" />
<glyph unicode="&#xaa;" horiz-adv-x="1060" d="M133 842q0 56 23 100t60.5 70t89.5 43t104.5 23.5t111.5 6.5v23q0 33 -20 44t-58 11q-47 0 -108.5 -18t-95.5 -39l-50 250q132 49 308 49q97 0 160 -16.5t98 -52t48 -82t13 -115.5v-217q0 -56 35 -56q29 0 68 17l6 -228q-109 -34 -209 -34q-103 0 -156 79 q-84 -79 -213 -79q-39 0 -74.5 11.5t-68.5 35.5t-52.5 69t-19.5 105zM199 297v199h671v-199h-671zM412 881q0 -24 11.5 -38t22 -17t21.5 -3q31 0 55 21v102q-18 0 -35 -2.5t-35 -9t-29 -20.5t-11 -33z" />
<glyph unicode="&#xab;" horiz-adv-x="1249" d="M78 575v82l338 433h30l164 -68l-161 -406l161 -401l-164 -72h-30zM616 575v82l338 433h31l164 -68l-162 -406l162 -401l-164 -72h-31z" />
<glyph unicode="&#xac;" d="M100 569v349h1028l-2 -689h-348v340h-678z" />
<glyph unicode="&#xad;" horiz-adv-x="1150" d="M133 446v349h885v-349h-885z" />
<glyph unicode="&#xae;" horiz-adv-x="1642" d="M104 694q0 152 54.5 285.5t149.5 228.5t227.5 150t283.5 55q152 0 285.5 -55t228.5 -150t150 -228.5t55 -285.5q0 -201 -93 -364.5t-258 -256.5t-368 -93q-201 0 -365 93t-257 256.5t-93 364.5zM236 694q0 -167 74.5 -302.5t208.5 -212.5t300 -77q168 0 303 77t210 212.5 t75 302.5q0 169 -75 305t-210 213.5t-303 77.5q-125 0 -233.5 -45.5t-185 -124t-120.5 -189t-44 -237.5zM506 346v696h407q107 0 172.5 -66t65.5 -171q0 -140 -141 -191q82 -57 137 -57q35 0 59 6l23 -201q-54 -26 -125 -26q-33 0 -67.5 10.5t-61 25t-59.5 40t-52.5 43.5 t-51.5 49t-46 43v-201h-260zM766 758h88q31 0 31 30q0 31 -31 31h-88v-61z" />
<glyph unicode="&#xaf;" d="M350 1219v245h555v-245h-555z" />
<glyph unicode="&#xb0;" horiz-adv-x="980" d="M84 1016q0 170 115 283.5t290 113.5t291.5 -113.5t116.5 -283.5q0 -169 -116.5 -281t-291.5 -112t-290 112t-115 281zM354 1016q0 -57 38 -98t97 -41t96.5 41t37.5 98q0 58 -37.5 99.5t-96.5 41.5t-97 -41.5t-38 -99.5z" />
<glyph unicode="&#xb1;" d="M100 39v348h1028v-348h-1028zM100 682v348h340v340h348v-340h340v-348h-340v-168h-348v168h-340z" />
<glyph unicode="&#xb2;" horiz-adv-x="759" d="M61 1337q3 131 85.5 206t224.5 75q146 0 222.5 -69t76.5 -181q0 -134 -160 -238l-86 -55h260v-207h-594v176l258 193q76 55 76 111q0 23 -15 38t-42 15q-91 0 -91 -105z" />
<glyph unicode="&#xb3;" horiz-adv-x="718" d="M57 1581q39 13 114 25t136 12q320 0 320 -215q0 -51 -32 -91t-89 -59q145 -40 145 -180q0 -100 -84.5 -157.5t-259.5 -57.5q-119 0 -246 39l58 197q93 -35 188 -35q99 0 99 51q0 26 -23.5 36.5t-75.5 10.5h-151v174h151q78 0 78 47q0 39 -78 39q-81 0 -198 -37z" />
<glyph unicode="&#xb4;" d="M328 1174l164 344h438l-236 -344h-366z" />
<glyph unicode="&#xb5;" horiz-adv-x="1415" d="M160 -385v1456h450v-430q0 -55 0.5 -82.5t4 -62t10.5 -50t19.5 -31.5t31.5 -21t47 -5q73 0 113 35v647h450v-1071h-450v82q-96 -80 -226 -98v-369h-450z" />
<glyph unicode="&#xb6;" horiz-adv-x="1284" d="M61 731q0 159 98.5 248.5t254.5 91.5h331v-1456h-202v776h-129q-156 0 -254.5 89.5t-98.5 250.5zM911 -385v1456h203v-1456h-203z" />
<glyph unicode="&#xb7;" horiz-adv-x="718" d="M109 600q0 113 65 176.5t184 63.5q118 0 185 -63.5t67 -176.5t-66.5 -175.5t-185.5 -62.5q-120 0 -184.5 62t-64.5 176z" />
<glyph unicode="&#xb8;" d="M397 -385l33 131q79 -22 125 -22q86 0 86 32q0 37 -92 37q-56 0 -131 -6l-10 12l65 201h166l-33 -94q24 4 39 4q89 0 137.5 -40.5t48.5 -105.5q0 -78 -72.5 -124t-189.5 -46q-87 0 -172 21z" />
<glyph unicode="&#xb9;" horiz-adv-x="624" d="M16 1409l326 197h172v-738h-240v467l-165 -104z" />
<glyph unicode="&#xba;" horiz-adv-x="1034" d="M111 1016q0 170 115 283.5t290 113.5t291.5 -113.5t116.5 -283.5q0 -169 -116.5 -281t-291.5 -112t-290 112t-115 281zM180 297v199h672v-199h-672zM381 1016q0 -57 38 -98t97 -41q58 0 95.5 41t37.5 98q0 59 -37 100t-96 41t-97 -41.5t-38 -99.5z" />
<glyph unicode="&#xbb;" horiz-adv-x="1249" d="M100 211l162 405l-162 402l164 72h31l338 -433v-82l-338 -432h-31zM639 211l162 405l-162 402l164 72h31l337 -433v-82l-337 -432h-31z" />
<glyph unicode="&#xbc;" horiz-adv-x="1773" d="M57 1204l326 197h172v-737h-240v466l-165 -104zM360 0v33l758 1360h209v-31l-754 -1362h-213zM987 113v151l279 473h321v-450h99v-174h-99v-113h-239v113h-361zM1223 287h125v215z" />
<glyph unicode="&#xbd;" horiz-adv-x="1798" d="M57 1196l326 197h172v-738h-240v467l-165 -104zM360 0v33l758 1360h209v-31l-754 -1362h-213zM1077 469q3 131 85 206t224 75q146 0 223 -69t77 -181q0 -134 -160 -238l-86 -55h260v-207h-594v176l258 193q76 55 76 110q0 23 -15.5 38t-42.5 15q-90 0 -90 -104z" />
<glyph unicode="&#xbe;" horiz-adv-x="1816" d="M78 1376q39 13 114 25t136 12q319 0 319 -215q0 -51 -32 -90.5t-89 -58.5q146 -41 146 -181q0 -100 -84.5 -157.5t-259.5 -57.5q-119 0 -246 39l57 197q92 -35 189 -35q98 0 98 51q0 26 -23 36.5t-75 10.5h-152v174h152q78 0 78 48q0 38 -78 38q-86 0 -199 -36zM422 0v33 l758 1360h209v-31l-754 -1362h-213zM1049 113v151l278 473h322v-450h98v-174h-98v-113h-240v113h-360zM1284 287h125v215z" />
<glyph unicode="&#xbf;" horiz-adv-x="1026" d="M66 35q0 222 174 307l116 57q29 14 42.5 32.5t13.5 49.5q0 24 -6 54h362q35 -91 35 -175q0 -109 -123 -176l-111 -59q-29 -15 -39 -27t-10 -32q0 -41 58 -41q57 0 140 27t136 61l104 -357q-208 -100 -450 -100q-209 0 -325.5 105.5t-116.5 273.5zM336 862 q0 113 66.5 175.5t185.5 62.5q120 0 185 -62t65 -176q0 -113 -65.5 -176t-184.5 -63t-185.5 63.5t-66.5 175.5z" />
<glyph unicode="&#xc0;" horiz-adv-x="1560" d="M8 0l506 1393h533l505 -1393h-454l-72 213h-494l-69 -213h-455zM395 1839h439l163 -344h-366zM643 541h275l-138 409z" />
<glyph unicode="&#xc1;" horiz-adv-x="1560" d="M8 0l506 1393h533l505 -1393h-454l-72 213h-494l-69 -213h-455zM559 1495l164 344h438l-235 -344h-367zM643 541h275l-138 409z" />
<glyph unicode="&#xc2;" horiz-adv-x="1560" d="M8 0l506 1393h533l505 -1393h-454l-72 213h-494l-69 -213h-455zM365 1495l198 344h430l199 -344h-320l-94 137l-94 -137h-319zM643 541h275l-138 409z" />
<glyph unicode="&#xc3;" horiz-adv-x="1560" d="M8 0l506 1393h533l505 -1393h-454l-72 213h-494l-69 -213h-455zM358 1632q43 94 109 150.5t145 56.5q55 0 106.5 -17.5t84 -39t71.5 -39t72 -17.5q85 0 137 91l113 -115q-57 -108 -116 -157.5t-140 -49.5q-49 0 -100 17.5t-86 38t-74.5 38t-67.5 17.5q-79 0 -145 -88z M643 541h275l-138 409z" />
<glyph unicode="&#xc4;" horiz-adv-x="1560" d="M8 0l506 1393h533l505 -1393h-454l-72 213h-494l-69 -213h-455zM293 1667q0 178 221 178q217 0 217 -178q0 -180 -217 -180q-104 0 -162.5 43.5t-58.5 136.5zM643 541h275l-138 409zM829 1667q0 178 222 178q215 0 215 -178q0 -180 -215 -180q-222 0 -222 180z" />
<glyph unicode="&#xc5;" horiz-adv-x="1560" d="M8 0l506 1393h80q-16 40 -16 82q0 83 58.5 141.5t141.5 58.5t142 -58.5t59 -141.5q0 -45 -18 -82h86l505 -1393h-454l-72 213h-494l-69 -213h-455zM643 541h275l-138 409zM713 1475q0 -29 18 -47.5t47 -18.5t47.5 18.5t18.5 47.5t-18.5 47t-47.5 18t-47 -18t-18 -47z" />
<glyph unicode="&#xc6;" horiz-adv-x="2246" d="M-33 0l715 1393h1444v-392h-721v-120h571v-359h-571v-133h721v-389h-1151v213h-432l-101 -213h-475zM702 541h273v565z" />
<glyph unicode="&#xc7;" horiz-adv-x="1484" d="M98 694q0 166 56 302.5t154 227.5t231 140t288 49q267 0 415.5 -139.5t154.5 -386.5l-412 -84q0 95 -38 145.5t-126 50.5q-116 0 -187 -80.5t-71 -224.5q0 -143 74.5 -222t200.5 -79q189 0 356 146l205 -334q-101 -96 -254.5 -160.5t-317.5 -64.5h-8l-24 -74q24 4 39 4 q89 0 137.5 -40.5t48.5 -105.5q0 -78 -72.5 -124t-189.5 -46q-86 0 -172 21l32 131q79 -22 125 -22q86 0 86 32q0 37 -92 37q-56 0 -131 -6l-10 12l63 197q-253 47 -407 231.5t-154 466.5z" />
<glyph unicode="&#xc8;" horiz-adv-x="1443" d="M172 0v1393h1151v-389h-721v-123h572v-359h-572v-133h721v-389h-1151zM365 1839h438l164 -344h-367z" />
<glyph unicode="&#xc9;" horiz-adv-x="1443" d="M172 0v1393h1151v-389h-721v-123h572v-359h-572v-133h721v-389h-1151zM528 1495l164 344h438l-235 -344h-367z" />
<glyph unicode="&#xca;" horiz-adv-x="1443" d="M172 0v1393h1151v-389h-721v-123h572v-359h-572v-133h721v-389h-1151zM336 1495l199 344h430l198 -344h-319l-94 137l-95 -137h-319z" />
<glyph unicode="&#xcb;" horiz-adv-x="1443" d="M172 0v1393h1151v-389h-721v-123h572v-359h-572v-133h721v-389h-1151zM262 1667q0 178 221 178q217 0 217 -178q0 -180 -217 -180q-104 0 -162.5 43.5t-58.5 136.5zM799 1667q0 178 221 178q215 0 215 -178q0 -180 -215 -180q-221 0 -221 180z" />
<glyph unicode="&#xcc;" horiz-adv-x="794" d="M-8 1839h438l164 -344h-367zM172 0v1393h451v-1393h-451z" />
<glyph unicode="&#xcd;" horiz-adv-x="794" d="M172 0v1393h451v-1393h-451zM197 1495l163 344h439l-236 -344h-366z" />
<glyph unicode="&#xce;" horiz-adv-x="794" d="M-18 1495l198 344h430l199 -344h-320l-94 137l-94 -137h-319zM172 0v1393h451v-1393h-451z" />
<glyph unicode="&#xcf;" horiz-adv-x="794" d="M-90 1667q0 178 221 178q217 0 217 -178q0 -180 -217 -180q-104 0 -162.5 43.5t-58.5 136.5zM172 0v1393h451v-1393h-451zM446 1667q0 178 222 178q215 0 215 -178q0 -180 -215 -180q-222 0 -222 180z" />
<glyph unicode="&#xd0;" horiz-adv-x="1671" d="M55 584v211h123v598h674q155 -1 286 -47t227.5 -132.5t151 -220t54.5 -299.5q0 -165 -54.5 -297.5t-151 -218.5t-227.5 -132t-286 -46h-674v584h-123zM629 389h202q126 0 202.5 81t76.5 224q0 146 -76 228t-203 82h-202v-209h182v-211h-182v-195z" />
<glyph unicode="&#xd1;" horiz-adv-x="1736" d="M172 0v1393h389l553 -676v676h451v-1393h-389l-553 676v-676h-451zM446 1632q43 94 109 150.5t145 56.5q55 0 106.5 -17.5t84 -39t71.5 -39t72 -17.5q85 0 137 91l113 -115q-57 -108 -116 -157.5t-140 -49.5q-49 0 -100 17.5t-86 38t-74.5 38t-67.5 17.5q-79 0 -145 -88z " />
<glyph unicode="&#xd2;" horiz-adv-x="1626" d="M96 694q0 152 54.5 285.5t149.5 228.5t227.5 150t283.5 55q152 0 285.5 -55t228.5 -150t150 -228.5t55 -285.5q0 -201 -93 -364.5t-258 -256.5t-368 -93q-201 0 -365 93t-257 256.5t-93 364.5zM408 1839h438l164 -344h-367zM535 694q0 -123 78 -207t198 -84 q122 0 199 83.5t77 207.5q0 127 -76.5 211t-199.5 84q-120 0 -198 -84.5t-78 -210.5z" />
<glyph unicode="&#xd3;" horiz-adv-x="1626" d="M96 694q0 152 54.5 285.5t149.5 228.5t227.5 150t283.5 55q152 0 285.5 -55t228.5 -150t150 -228.5t55 -285.5q0 -201 -93 -364.5t-258 -256.5t-368 -93q-201 0 -365 93t-257 256.5t-93 364.5zM535 694q0 -123 78 -207t198 -84q122 0 199 83.5t77 207.5q0 127 -76.5 211 t-199.5 84q-120 0 -198 -84.5t-78 -210.5zM612 1495l164 344h438l-235 -344h-367z" />
<glyph unicode="&#xd4;" horiz-adv-x="1626" d="M96 694q0 152 54.5 285.5t149.5 228.5t227.5 150t283.5 55q152 0 285.5 -55t228.5 -150t150 -228.5t55 -285.5q0 -201 -93 -364.5t-258 -256.5t-368 -93q-201 0 -365 93t-257 256.5t-93 364.5zM397 1495l199 344h430l199 -344h-320l-94 137l-94 -137h-320zM535 694 q0 -123 78 -207t198 -84q122 0 199 83.5t77 207.5q0 127 -76.5 211t-199.5 84q-120 0 -198 -84.5t-78 -210.5z" />
<glyph unicode="&#xd5;" horiz-adv-x="1626" d="M96 694q0 152 54.5 285.5t149.5 228.5t227.5 150t283.5 55q152 0 285.5 -55t228.5 -150t150 -228.5t55 -285.5q0 -201 -93 -364.5t-258 -256.5t-368 -93q-201 0 -365 93t-257 256.5t-93 364.5zM391 1632q43 94 109 150.5t145 56.5q55 0 106.5 -17.5t84 -39t71.5 -39 t72 -17.5q85 0 137 91l113 -115q-57 -108 -116 -157.5t-140 -49.5q-49 0 -100 17.5t-86 38t-74.5 38t-67.5 17.5q-79 0 -145 -88zM535 694q0 -123 78 -207t198 -84q122 0 199 83.5t77 207.5q0 127 -76.5 211t-199.5 84q-120 0 -198 -84.5t-78 -210.5z" />
<glyph unicode="&#xd6;" horiz-adv-x="1626" d="M96 694q0 152 54.5 285.5t149.5 228.5t227.5 150t283.5 55q152 0 285.5 -55t228.5 -150t150 -228.5t55 -285.5q0 -201 -93 -364.5t-258 -256.5t-368 -93q-201 0 -365 93t-257 256.5t-93 364.5zM324 1667q0 178 221 178q217 0 217 -178q0 -180 -217 -180 q-104 0 -162.5 43.5t-58.5 136.5zM535 694q0 -123 78 -207t198 -84q122 0 199 83.5t77 207.5q0 127 -76.5 211t-199.5 84q-120 0 -198 -84.5t-78 -210.5zM860 1667q0 178 221 178q215 0 215 -178q0 -180 -215 -180q-221 0 -221 180z" />
<glyph unicode="&#xd7;" d="M127 381l242 240l-242 239l248 248l239 -242l240 242l248 -248l-242 -239l242 -240l-248 -248l-240 242l-239 -242z" />
<glyph unicode="&#xd8;" horiz-adv-x="1626" d="M96 694q0 152 54.5 285.5t149.5 228.5t227.5 150t283.5 55q218 0 389 -108l72 88h209v-31l-140 -172q90 -98 139.5 -224.5t49.5 -271.5q0 -201 -93 -364.5t-258 -256.5t-368 -93q-205 0 -375 98l-63 -78h-213v33l131 160q-93 97 -144 225.5t-51 275.5zM532 694 q0 -86 41 -157l353 432q-60 24 -115 24q-120 0 -199.5 -86.5t-79.5 -212.5zM711 416q49 -19 100 -19q122 0 201.5 86.5t79.5 210.5q0 80 -35 148z" />
<glyph unicode="&#xd9;" horiz-adv-x="1669" d="M158 614v779h450v-748q0 -121 58.5 -186.5t164.5 -65.5q109 0 168.5 65.5t59.5 186.5v748h450v-779q0 -129 -46 -243.5t-130.5 -201.5t-214 -138t-287.5 -51t-285.5 47t-212 131.5t-130 201t-45.5 254.5zM428 1839h438l164 -344h-366z" />
<glyph unicode="&#xda;" horiz-adv-x="1669" d="M158 614v779h450v-748q0 -121 58.5 -186.5t164.5 -65.5q109 0 168.5 65.5t59.5 186.5v748h450v-779q0 -129 -46 -243.5t-130.5 -201.5t-214 -138t-287.5 -51t-285.5 47t-212 131.5t-130 201t-45.5 254.5zM633 1495l164 344h438l-236 -344h-366z" />
<glyph unicode="&#xdb;" horiz-adv-x="1669" d="M158 614v779h450v-748q0 -121 58.5 -186.5t164.5 -65.5q109 0 168.5 65.5t59.5 186.5v748h450v-779q0 -129 -46 -243.5t-130.5 -201.5t-214 -138t-287.5 -51t-285.5 47t-212 131.5t-130 201t-45.5 254.5zM418 1495l198 344h431l198 -344h-319l-95 137l-94 -137h-319z" />
<glyph unicode="&#xdc;" horiz-adv-x="1669" d="M158 614v779h450v-748q0 -121 58.5 -186.5t164.5 -65.5q109 0 168.5 65.5t59.5 186.5v748h450v-779q0 -129 -46 -243.5t-130.5 -201.5t-214 -138t-287.5 -51t-285.5 47t-212 131.5t-130 201t-45.5 254.5zM344 1667q0 178 221 178q217 0 217 -178q0 -180 -217 -180 q-104 0 -162.5 43.5t-58.5 136.5zM881 1667q0 178 221 178q215 0 215 -178q0 -180 -215 -180q-221 0 -221 180z" />
<glyph unicode="&#xdd;" horiz-adv-x="1445" d="M-6 1362v31h502l227 -469l227 469h502v-31l-504 -850v-512h-450v510zM522 1495l164 344h438l-235 -344h-367z" />
<glyph unicode="&#xde;" horiz-adv-x="1521" d="M172 0v1393h451v-158h292q109 0 203 -32.5t167 -96t115 -166.5t42 -235q0 -159 -73 -280t-191.5 -182t-262.5 -61h-292v-182h-451zM623 571h225q58 0 95.5 39.5t37.5 98.5q0 58 -37.5 97.5t-95.5 39.5h-225v-275z" />
<glyph unicode="&#xdf;" horiz-adv-x="1488" d="M139 0v846q0 141 36.5 251.5t96.5 180t143.5 115t170.5 64t184 18.5q114 0 207.5 -28t153.5 -73t101 -103t58 -115.5t17 -113.5q0 -64 -17.5 -120.5t-39 -87.5t-39 -57.5t-17.5 -37.5q0 -13 22.5 -38.5t55 -60t64.5 -76t54.5 -99t22.5 -117.5q0 -186 -106 -277t-293 -91 q-68 0 -137.5 10t-92 16t-75.5 21l59 358q56 -29 102 -29q24 0 39 13.5t15 36.5q0 20 -20 47t-48 55.5t-56.5 57.5t-48.5 60.5t-20 57.5q0 39 18 78t39.5 66.5t39.5 71t18 91.5q0 45 -29.5 69.5t-87.5 24.5q-139 0 -139 -204v-881h-451z" />
<glyph unicode="&#xe0;" horiz-adv-x="1507" d="M82 532q0 245 133.5 401.5t345.5 156.5q171 0 273 -117v98h450v-635q0 -80 51 -80q38 0 92 21l9 -357q-126 -40 -293 -40q-213 0 -277 149q-53 -67 -130.5 -107t-174.5 -40q-212 0 -345.5 154t-133.5 396zM348 1518h438l164 -344h-366zM541 532q0 -76 41 -119.5 t112 -43.5q81 0 140 43v245q-24 20 -63.5 31.5t-76.5 11.5q-72 0 -112.5 -44.5t-40.5 -123.5z" />
<glyph unicode="&#xe1;" horiz-adv-x="1507" d="M82 532q0 245 133.5 401.5t345.5 156.5q171 0 273 -117v98h450v-635q0 -80 51 -80q38 0 92 21l9 -357q-126 -40 -293 -40q-213 0 -277 149q-53 -67 -130.5 -107t-174.5 -40q-212 0 -345.5 154t-133.5 396zM524 1174l164 344h438l-235 -344h-367zM541 532q0 -76 41 -119.5 t112 -43.5q81 0 140 43v245q-24 20 -63.5 31.5t-76.5 11.5q-72 0 -112.5 -44.5t-40.5 -123.5z" />
<glyph unicode="&#xe2;" horiz-adv-x="1507" d="M82 532q0 245 133.5 401.5t345.5 156.5q171 0 273 -117v98h450v-635q0 -80 51 -80q38 0 92 21l9 -357q-126 -40 -293 -40q-213 0 -277 149q-53 -67 -130.5 -107t-174.5 -40q-212 0 -345.5 154t-133.5 396zM317 1174l199 344h430l199 -344h-320l-94 137l-94 -137h-320z M541 532q0 -76 41 -119.5t112 -43.5q81 0 140 43v245q-24 20 -63.5 31.5t-76.5 11.5q-72 0 -112.5 -44.5t-40.5 -123.5z" />
<glyph unicode="&#xe3;" horiz-adv-x="1507" d="M82 532q0 245 133.5 401.5t345.5 156.5q171 0 273 -117v98h450v-635q0 -80 51 -80q38 0 92 21l9 -357q-126 -40 -293 -40q-213 0 -277 149q-53 -67 -130.5 -107t-174.5 -40q-212 0 -345.5 154t-133.5 396zM332 1311q43 94 109 150.5t145 56.5q55 0 106.5 -17.5t84 -39 t71.5 -39t72 -17.5q85 0 137 90l112 -115q-57 -108 -116 -157t-140 -49q-49 0 -100 17t-86 38t-74 38t-67 17q-80 0 -146 -88zM541 532q0 -76 41 -119.5t112 -43.5q81 0 140 43v245q-24 20 -63.5 31.5t-76.5 11.5q-72 0 -112.5 -44.5t-40.5 -123.5z" />
<glyph unicode="&#xe4;" horiz-adv-x="1507" d="M82 532q0 245 133.5 401.5t345.5 156.5q171 0 273 -117v98h450v-635q0 -80 51 -80q38 0 92 21l9 -357q-126 -40 -293 -40q-213 0 -277 149q-53 -67 -130.5 -107t-174.5 -40q-212 0 -345.5 154t-133.5 396zM256 1346q0 178 221 178q217 0 217 -178q0 -93 -57.5 -137 t-159.5 -44q-103 0 -162 44t-59 137zM541 532q0 -76 41 -119.5t112 -43.5q81 0 140 43v245q-24 20 -63.5 31.5t-76.5 11.5q-72 0 -112.5 -44.5t-40.5 -123.5zM793 1346q0 178 221 178q215 0 215 -178q0 -181 -215 -181q-221 0 -221 181z" />
<glyph unicode="&#xe5;" horiz-adv-x="1507" d="M82 532q0 245 133.5 401.5t345.5 156.5q171 0 273 -117v98h450v-635q0 -80 51 -80q38 0 92 21l9 -357q-126 -40 -293 -40q-213 0 -277 149q-53 -67 -130.5 -107t-174.5 -40q-212 0 -345.5 154t-133.5 396zM530 1372q0 83 59 142t142 59t142 -59t59 -142t-59 -142 t-142 -59t-142 59t-59 142zM541 532q0 -76 41 -119.5t112 -43.5q81 0 140 43v245q-24 20 -63.5 31.5t-76.5 11.5q-72 0 -112.5 -44.5t-40.5 -123.5zM666 1372q0 -29 18 -47t47 -18t47.5 18t18.5 47t-18.5 47.5t-47.5 18.5t-47 -18.5t-18 -47.5z" />
<glyph unicode="&#xe6;" horiz-adv-x="1835" d="M74 293q0 149 106.5 239.5t319.5 116.5q63 8 155 8q0 51 -28.5 71t-83.5 20q-68 0 -170 -25t-146 -53l-73 360q235 70 473 70q228 0 329 -90q120 90 304 90q119 0 213 -36t153 -98t90 -142t31 -171q0 -132 -23 -196h-612q10 -63 65.5 -106.5t145.5 -43.5q56 0 135 27.5 t121 58.5l164 -276q-84 -68 -206.5 -107t-258.5 -39q-278 0 -401 152q-91 -71 -192.5 -112.5t-238.5 -41.5q-175 0 -273.5 89.5t-98.5 234.5zM526 334q0 -24 13 -38.5t25.5 -18t25.5 -3.5q34 0 65 27v121l-43 -6q-46 -9 -66 -29t-20 -53zM1116 662h289v6q0 57 -32 92 t-101 35q-63 0 -105.5 -36.5t-50.5 -96.5z" />
<glyph unicode="&#xe7;" horiz-adv-x="1224" d="M80 532q0 248 158.5 408t412.5 160q240 0 369 -118.5t137 -317.5l-397 -89q-7 70 -28.5 102t-78.5 32q-51 0 -79.5 -45.5t-28.5 -118.5q0 -72 47.5 -127.5t134.5 -55.5q57 0 130 31.5t116 69.5l170 -344q-87 -68 -205 -106.5t-252 -41.5l-22 -65q24 4 38 4 q90 0 138.5 -40.5t48.5 -105.5q0 -78 -72.5 -124t-189.5 -46q-87 0 -172 21l32 131q79 -22 125 -22q86 0 86 32q0 37 -92 37q-56 0 -131 -6l-10 12l59 185q-220 37 -332 183t-112 365z" />
<glyph unicode="&#xe8;" d="M80 532q0 248 158.5 408t414.5 160q119 0 213.5 -36t153.5 -98t90 -142t31 -171q0 -134 -23 -198h-612q10 -62 65 -105t146 -43q56 0 135 27.5t121 58.5l164 -276q-84 -68 -206.5 -107t-258.5 -39q-148 0 -262 42t-185.5 117.5t-108 177t-36.5 224.5zM285 1518h438 l164 -344h-367zM510 664h289v6q0 125 -137 125q-61 0 -103 -35.5t-49 -95.5z" />
<glyph unicode="&#xe9;" d="M80 532q0 248 158.5 408t414.5 160q119 0 213.5 -36t153.5 -98t90 -142t31 -171q0 -134 -23 -198h-612q10 -62 65 -105t146 -43q56 0 135 27.5t121 58.5l164 -276q-84 -68 -206.5 -107t-258.5 -39q-148 0 -262 42t-185.5 117.5t-108 177t-36.5 224.5zM451 1174l163 344 h439l-236 -344h-366zM510 664h289v6q0 125 -137 125q-61 0 -103 -35.5t-49 -95.5z" />
<glyph unicode="&#xea;" d="M80 532q0 248 158.5 408t414.5 160q119 0 213.5 -36t153.5 -98t90 -142t31 -171q0 -134 -23 -198h-612q10 -62 65 -105t146 -43q56 0 135 27.5t121 58.5l164 -276q-84 -68 -206.5 -107t-258.5 -39q-148 0 -262 42t-185.5 117.5t-108 177t-36.5 224.5zM244 1174l198 344 h430l199 -344h-319l-95 137l-94 -137h-319zM510 664h289v6q0 125 -137 125q-61 0 -103 -35.5t-49 -95.5z" />
<glyph unicode="&#xeb;" d="M80 532q0 248 158.5 408t414.5 160q119 0 213.5 -36t153.5 -98t90 -142t31 -171q0 -134 -23 -198h-612q10 -62 65 -105t146 -43q56 0 135 27.5t121 58.5l164 -276q-84 -68 -206.5 -107t-258.5 -39q-148 0 -262 42t-185.5 117.5t-108 177t-36.5 224.5zM170 1346 q0 178 221 178q217 0 217 -178q0 -93 -57.5 -137t-159.5 -44q-103 0 -162 44t-59 137zM510 664h289v6q0 125 -137 125q-61 0 -103 -35.5t-49 -95.5zM707 1346q0 178 221 178q215 0 215 -178q0 -181 -215 -181q-221 0 -221 181z" />
<glyph unicode="&#xec;" horiz-adv-x="811" d="M-18 1518h438l164 -344h-367zM135 324v747h451v-635q0 -25 2.5 -40t13.5 -27.5t31 -12.5q31 0 94 21l10 -357l-7 -2q-8 -1 -23 -5t-35 -8t-47 -8.5t-55 -8t-62 -6t-66 -2.5q-149 0 -228 80.5t-79 263.5z" />
<glyph unicode="&#xed;" horiz-adv-x="811" d="M135 324v747h451v-635q0 -25 2.5 -40t13.5 -27.5t31 -12.5q31 0 94 21l10 -357l-7 -2q-8 -1 -23 -5t-35 -8t-47 -8.5t-55 -8t-62 -6t-66 -2.5q-149 0 -228 80.5t-79 263.5zM145 1174l164 344h439l-236 -344h-367z" />
<glyph unicode="&#xee;" horiz-adv-x="811" d="M-55 1174l198 344h430l199 -344h-319l-95 137l-94 -137h-319zM135 324v747h451v-635q0 -25 2.5 -40t13.5 -27.5t31 -12.5q31 0 94 21l10 -357l-7 -2q-8 -1 -23 -5t-35 -8t-47 -8.5t-55 -8t-62 -6t-66 -2.5q-149 0 -228 80.5t-79 263.5z" />
<glyph unicode="&#xef;" horiz-adv-x="811" d="M-123 1346q0 178 221 178q217 0 217 -178q0 -93 -57.5 -137t-159.5 -44q-103 0 -162 44t-59 137zM135 324v747h451v-635q0 -25 2.5 -40t13.5 -27.5t31 -12.5q31 0 94 21l10 -357l-7 -2q-8 -1 -23 -5t-35 -8t-47 -8.5t-55 -8t-62 -6t-66 -2.5q-149 0 -228 80.5t-79 263.5z M414 1346q0 178 221 178q215 0 215 -178q0 -181 -215 -181q-221 0 -221 181z" />
<glyph unicode="&#xf0;" horiz-adv-x="1288" d="M63 487q0 182 112 302t312 120q113 0 222 -61q-37 123 -134 217l-73 -80l-109 88l72 76q-56 32 -103 49l179 277q92 -15 176 -52l80 86l108 -88l-61 -65q154 -104 246 -275.5t92 -382.5q0 -331 -155 -524.5t-441 -193.5q-234 0 -378.5 136.5t-144.5 370.5zM512 483 q0 -38 20 -66t70 -28q59 0 86 41t35 119q-71 33 -121 33q-44 0 -67 -28.5t-23 -70.5z" />
<glyph unicode="&#xf1;" horiz-adv-x="1466" d="M141 0v1071h451v-98q127 117 291 117q100 0 176 -37t120.5 -103t66.5 -149.5t22 -184.5v-180q0 -80 47 -80q42 0 96 21l8 -357q-106 -40 -293 -40q-150 0 -229.5 80t-79.5 264v215q0 137 -112 137q-67 0 -113 -33v-643h-451zM299 1311q43 94 109 150.5t145 56.5 q55 0 106.5 -17.5t84 -39t71.5 -39t72 -17.5q85 0 137 90l113 -115q-57 -108 -116 -157t-140 -49q-62 0 -125.5 27.5t-116 55t-86.5 27.5q-79 0 -145 -88z" />
<glyph unicode="&#xf2;" horiz-adv-x="1318" d="M78 532q0 244 165 406t414 162q166 0 299.5 -73.5t209 -203.5t75.5 -291q0 -159 -75.5 -287.5t-209 -201t-299.5 -72.5q-249 0 -414 160t-165 401zM254 1518h438l164 -344h-367zM510 532q0 -63 41.5 -109t105.5 -46q67 0 108.5 45.5t41.5 109.5q0 66 -41.5 112t-108.5 46 q-65 0 -106 -46t-41 -112z" />
<glyph unicode="&#xf3;" horiz-adv-x="1318" d="M78 532q0 244 165 406t414 162q166 0 299.5 -73.5t209 -203.5t75.5 -291q0 -159 -75.5 -287.5t-209 -201t-299.5 -72.5q-249 0 -414 160t-165 401zM459 1174l164 344h438l-236 -344h-366zM510 532q0 -63 41.5 -109t105.5 -46q67 0 108.5 45.5t41.5 109.5q0 66 -41.5 112 t-108.5 46q-65 0 -106 -46t-41 -112z" />
<glyph unicode="&#xf4;" horiz-adv-x="1318" d="M78 532q0 244 165 406t414 162q166 0 299.5 -73.5t209 -203.5t75.5 -291q0 -159 -75.5 -287.5t-209 -201t-299.5 -72.5q-249 0 -414 160t-165 401zM244 1174l198 344h430l199 -344h-319l-95 137l-94 -137h-319zM510 532q0 -63 41.5 -109t105.5 -46q67 0 108.5 45.5 t41.5 109.5q0 66 -41.5 112t-108.5 46q-65 0 -106 -46t-41 -112z" />
<glyph unicode="&#xf5;" horiz-adv-x="1318" d="M78 532q0 244 165 406t414 162q166 0 299.5 -73.5t209 -203.5t75.5 -291q0 -159 -75.5 -287.5t-209 -201t-299.5 -72.5q-249 0 -414 160t-165 401zM238 1311q43 94 109 150.5t145 56.5q55 0 106.5 -17.5t83.5 -39t71 -39t72 -17.5q86 0 138 90l112 -115 q-57 -108 -116 -157t-140 -49q-49 0 -100 17t-86 38t-74 38t-67 17q-80 0 -146 -88zM510 532q0 -63 41.5 -109t105.5 -46q67 0 108.5 45.5t41.5 109.5q0 66 -41.5 112t-108.5 46q-65 0 -106 -46t-41 -112z" />
<glyph unicode="&#xf6;" horiz-adv-x="1318" d="M78 532q0 244 165 406t414 162q166 0 299.5 -73.5t209 -203.5t75.5 -291q0 -159 -75.5 -287.5t-209 -201t-299.5 -72.5q-249 0 -414 160t-165 401zM170 1346q0 178 221 178q217 0 217 -178q0 -93 -57.5 -137t-159.5 -44q-103 0 -162 44t-59 137zM510 532q0 -63 41.5 -109 t105.5 -46q67 0 108.5 45.5t41.5 109.5q0 66 -41.5 112t-108.5 46q-65 0 -106 -46t-41 -112zM707 1346q0 178 221 178q215 0 215 -178q0 -181 -215 -181q-221 0 -221 181z" />
<glyph unicode="&#xf7;" d="M100 446v349h1028v-349h-1028zM408 178q0 97 56.5 152t158.5 55q101 0 159 -55t58 -152q0 -98 -57.5 -151.5t-159.5 -53.5q-103 0 -159 53.5t-56 151.5zM408 1057q0 97 56.5 152t158.5 55q101 0 159 -55t58 -152q0 -98 -57.5 -151.5t-159.5 -53.5q-103 0 -159 53.5 t-56 151.5z" />
<glyph unicode="&#xf8;" horiz-adv-x="1318" d="M78 532q0 244 165 406t414 162q182 0 324 -90l51 61h139v-31l-92 -108q77 -77 119.5 -179.5t42.5 -220.5q0 -159 -75.5 -287.5t-209 -201t-299.5 -72.5q-174 0 -313 82l-43 -53h-143v33l84 100q-164 161 -164 399zM510 532q0 -35 12 -65l183 215q-19 8 -48 8 q-65 0 -106 -46t-41 -112zM618 381q24 -4 39 -4q67 0 108.5 45.5t41.5 109.5q0 32 -10 62z" />
<glyph unicode="&#xf9;" horiz-adv-x="1478" d="M129 455v616h451v-559q0 -123 112 -123q64 0 113 39v643h450v-635q0 -38 8.5 -59t36.5 -21q32 0 97 21l10 -357q-103 -40 -295 -40q-202 0 -270 139q-129 -139 -328 -139q-100 0 -176 37t-120.5 103.5t-66.5 150t-22 184.5zM272 1518h439l163 -344h-366z" />
<glyph unicode="&#xfa;" horiz-adv-x="1478" d="M129 455v616h451v-559q0 -123 112 -123q64 0 113 39v643h450v-635q0 -38 8.5 -59t36.5 -21q32 0 97 21l10 -357q-103 -40 -295 -40q-202 0 -270 139q-129 -139 -328 -139q-100 0 -176 37t-120.5 103.5t-66.5 150t-22 184.5zM518 1174l164 344h438l-235 -344h-367z" />
<glyph unicode="&#xfb;" horiz-adv-x="1478" d="M129 455v616h451v-559q0 -123 112 -123q64 0 113 39v643h450v-635q0 -38 8.5 -59t36.5 -21q32 0 97 21l10 -357q-103 -40 -295 -40q-202 0 -270 139q-129 -139 -328 -139q-100 0 -176 37t-120.5 103.5t-66.5 150t-22 184.5zM279 1174l198 344h430l199 -344h-320l-94 137 l-94 -137h-319z" />
<glyph unicode="&#xfc;" horiz-adv-x="1478" d="M129 455v616h451v-559q0 -123 112 -123q64 0 113 39v643h450v-635q0 -38 8.5 -59t36.5 -21q32 0 97 21l10 -357q-103 -40 -295 -40q-202 0 -270 139q-129 -139 -328 -139q-100 0 -176 37t-120.5 103.5t-66.5 150t-22 184.5zM213 1346q0 178 221 178q217 0 217 -178 q0 -93 -57.5 -137t-159.5 -44q-103 0 -162 44t-59 137zM750 1346q0 178 221 178q215 0 215 -178q0 -181 -215 -181q-221 0 -221 181z" />
<glyph unicode="&#xfd;" horiz-adv-x="1271" d="M-4 1071h498l151 -582l174 582h451l-393 -1012q-50 -130 -98.5 -214.5t-111.5 -142.5t-140.5 -83t-182.5 -25q-63 0 -133 20.5t-113 49.5l60 320q91 -41 168 -41q48 0 73.5 21.5t42.5 62.5l11 22zM444 1174l164 344h439l-236 -344h-367z" />
<glyph unicode="&#xfe;" horiz-adv-x="1427" d="M141 -385v1839h451v-477q113 113 274 113q212 0 346 -155t134 -398q0 -160 -60.5 -287t-170 -198.5t-249.5 -71.5q-172 0 -274 114v-479h-451zM594 412q25 -19 64.5 -31t74.5 -12q71 0 112.5 44.5t41.5 123.5q0 77 -42 120t-112 43q-84 0 -139 -43v-245z" />
<glyph unicode="&#xff;" horiz-adv-x="1271" d="M-4 1071h498l151 -582l174 582h451l-393 -1012q-50 -130 -98.5 -214.5t-111.5 -142.5t-140.5 -83t-182.5 -25q-63 0 -133 20.5t-113 49.5l60 320q91 -41 168 -41q48 0 73.5 21.5t42.5 62.5l11 22zM162 1346q0 178 221 178q217 0 217 -178q0 -93 -57.5 -137t-159.5 -44 q-103 0 -162 44t-59 137zM698 1346q0 178 222 178q215 0 215 -178q0 -181 -215 -181q-222 0 -222 181z" />
<glyph unicode="&#x152;" horiz-adv-x="2336" d="M96 692q0 204 90.5 368t252 257.5t362.5 93.5q145 0 264 -61v43h1151v-392h-721v-120h571v-359h-571v-133h721v-389h-1151v43q-132 -66 -264 -66q-151 0 -282 54.5t-224 149.5t-146 227.5t-53 283.5zM532 692q0 -125 83 -211t216 -86q70 0 132 24t102 64v422 q-41 38 -104 62t-134 24q-131 0 -213 -86t-82 -213z" />
<glyph unicode="&#x153;" horiz-adv-x="2058" d="M78 532q0 244 165 406t414 162q122 0 228 -41.5t184 -116.5q77 75 183 116.5t231 41.5q119 0 213.5 -36t153.5 -98t89.5 -141.5t30.5 -171.5q0 -135 -22 -196h-613q10 -62 65 -106t146 -44q56 0 135 27.5t121 58.5l164 -276q-84 -68 -206.5 -107t-258.5 -39 q-282 0 -438 150q-163 -150 -406 -150q-249 0 -414 160t-165 401zM510 532q0 -63 41.5 -109t105.5 -46q67 0 108.5 45.5t41.5 109.5q0 66 -41.5 112t-108.5 46q-65 0 -106 -46t-41 -112zM1339 662h289q0 18 -2 26q-28 107 -143 107q-55 0 -96 -37t-48 -96z" />
<glyph unicode="&#x178;" horiz-adv-x="1445" d="M-6 1362v31h502l227 -469l227 469h502v-31l-504 -850v-512h-450v510zM233 1667q0 178 222 178q217 0 217 -178q0 -180 -217 -180q-104 0 -163 43.5t-59 136.5zM770 1667q0 178 221 178q215 0 215 -178q0 -180 -215 -180q-221 0 -221 180z" />
<glyph unicode="&#x2c6;" d="M215 1174l199 344h430l198 -344h-319l-94 137l-94 -137h-320z" />
<glyph unicode="&#x2dc;" d="M209 1311q43 94 109 150.5t145 56.5q55 0 106.5 -17.5t84 -39t71.5 -39t72 -17.5q85 0 137 90l113 -115q-57 -108 -116 -157t-140 -49q-62 0 -125.5 27.5t-116 55t-86.5 27.5q-80 0 -146 -88z" />
<glyph unicode="&#x2000;" horiz-adv-x="922" />
<glyph unicode="&#x2001;" horiz-adv-x="1845" />
<glyph unicode="&#x2002;" horiz-adv-x="922" />
<glyph unicode="&#x2003;" horiz-adv-x="1845" />
<glyph unicode="&#x2004;" horiz-adv-x="615" />
<glyph unicode="&#x2005;" horiz-adv-x="461" />
<glyph unicode="&#x2006;" horiz-adv-x="307" />
<glyph unicode="&#x2007;" horiz-adv-x="307" />
<glyph unicode="&#x2008;" horiz-adv-x="230" />
<glyph unicode="&#x2009;" horiz-adv-x="369" />
<glyph unicode="&#x200a;" horiz-adv-x="102" />
<glyph unicode="&#x2010;" horiz-adv-x="1150" d="M133 446v349h885v-349h-885z" />
<glyph unicode="&#x2011;" horiz-adv-x="1150" d="M133 446v349h885v-349h-885z" />
<glyph unicode="&#x2012;" horiz-adv-x="1150" d="M133 446v349h885v-349h-885z" />
<glyph unicode="&#x2013;" horiz-adv-x="1355" d="M133 446v349h1090v-349h-1090z" />
<glyph unicode="&#x2014;" horiz-adv-x="1900" d="M133 446v349h1634v-349h-1634z" />
<glyph unicode="&#x2018;" horiz-adv-x="679" d="M94 850q0 133 56 282t137 281l245 -98l-81 -240q133 -50 133 -225q0 -116 -64 -181t-180 -65t-181 65t-65 181z" />
<glyph unicode="&#x2019;" horiz-adv-x="673" d="M96 1167q0 116 64 181t180 65t181 -65.5t65 -180.5q0 -131 -56.5 -281.5t-136.5 -281.5l-246 98l82 240q-133 50 -133 225z" />
<glyph unicode="&#x201a;" horiz-adv-x="698" d="M102 205q0 116 64 181t180 65t181 -65.5t65 -180.5q0 -131 -56.5 -281.5t-136.5 -281.5l-245 98l82 240q-134 50 -134 225z" />
<glyph unicode="&#x201c;" horiz-adv-x="1146" d="M98 926q0 115 49 244.5t119 242.5l211 -84l-69 -209q114 -40 114 -194q0 -99 -55 -155t-156 -56q-100 0 -156.5 56.5t-56.5 154.5zM625 926q0 215 166 487l210 -84l-69 -209q115 -41 115 -194q0 -99 -55 -155t-156 -56q-99 0 -155 56t-56 155z" />
<glyph unicode="&#x201d;" horiz-adv-x="1136" d="M98 1202q0 99 55 155t156 56q99 0 155 -56t56 -155q0 -115 -48.5 -245t-117.5 -242l-211 84l70 209q-115 41 -115 194zM623 1202q0 99 55 155t156 56q100 0 156.5 -56.5t56.5 -154.5q0 -114 -49 -244t-119 -243l-211 84l69 209q-114 40 -114 194z" />
<glyph unicode="&#x201e;" horiz-adv-x="1157" d="M104 129q0 99 55 155t156 56q99 0 155 -56t56 -155q0 -115 -48.5 -245t-117.5 -242l-210 84l69 208q-115 41 -115 195zM629 129q0 99 55 155t156 56q100 0 156.5 -56.5t56.5 -154.5q0 -114 -49 -244t-119 -243l-211 84l69 208q-114 40 -114 195z" />
<glyph unicode="&#x2022;" horiz-adv-x="866" d="M98 618q0 159 87.5 247.5t246.5 88.5q158 0 247 -89t89 -247q0 -159 -88.5 -246t-247.5 -87q-160 0 -247 86.5t-87 246.5z" />
<glyph unicode="&#x2026;" horiz-adv-x="1888" d="M104 182q0 101 59.5 158t166.5 57q106 0 166.5 -57t60.5 -158q0 -102 -60 -157.5t-167 -55.5q-108 0 -167 55.5t-59 157.5zM719 182q0 102 59 158.5t166 56.5q106 0 166.5 -57t60.5 -158q0 -102 -60 -157.5t-167 -55.5q-108 0 -166.5 55.5t-58.5 157.5zM1333 182 q0 101 59.5 158t166.5 57q106 0 166.5 -57t60.5 -158q0 -102 -60 -157.5t-167 -55.5q-108 0 -167 55.5t-59 157.5z" />
<glyph unicode="&#x202f;" horiz-adv-x="369" />
<glyph unicode="&#x2039;" horiz-adv-x="710" d="M78 575v82l338 433h30l164 -68l-161 -406l161 -401l-164 -72h-30z" />
<glyph unicode="&#x203a;" horiz-adv-x="710" d="M100 211l162 405l-162 402l164 72h31l338 -433v-82l-338 -432h-31z" />
<glyph unicode="&#x205f;" horiz-adv-x="461" />
<glyph unicode="&#x20ac;" d="M53 512v125h90v57v19h-90v125h99q32 275 189.5 425t416.5 150q120 0 229.5 -47.5t186.5 -132.5l-156 -336q-40 45 -103 76t-116 31q-144 0 -183 -166h375l-59 -125h-328v-19v-57h293l-59 -125h-213q20 -66 59 -94.5t100 -28.5q114 0 228 84l162 -371q-178 -122 -426 -122 q-244 0 -397 139t-193 393h-105z" />
<glyph unicode="&#x2122;" horiz-adv-x="1740" d="M150 1126v232h534v-232h-154v-395h-231v395h-149zM823 731v627h191l184 -207l186 207h191v-627h-232v262l-126 -147h-37l-125 147v-262h-232z" />
<glyph unicode="&#x25fc;" horiz-adv-x="1075" d="M0 0v1075h1075v-1075h-1075z" />
<glyph unicode="&#xfb01;" horiz-adv-x="1779" d="M84 690v346h166v37q0 81 24.5 152t72.5 127.5t127.5 89.5t180.5 33q62 0 146.5 -10.5t138.5 -24.5l-53 -322q-75 23 -119 23q-34 0 -51 -20.5t-17 -51.5v-33h232v-346h-232v-690h-450v690h-166zM1092 1350q0 190 239 190q236 0 236 -190q0 -193 -236 -193 q-239 0 -239 193zM1104 324v747h450v-635q0 -38 9.5 -59t38.5 -21q31 0 94 21l10 -357l-8 -2q-7 -1 -22 -5t-35 -8t-47 -8.5t-55 -8t-62 -6t-66 -2.5q-149 0 -228 80.5t-79 263.5z" />
<glyph unicode="&#xfb02;" horiz-adv-x="1775" d="M84 690v346h166v37q0 81 24.5 152t72.5 127.5t127.5 89.5t180.5 33q62 0 146.5 -10.5t138.5 -24.5l-53 -322q-75 23 -119 23q-34 0 -51 -20.5t-17 -51.5v-33h232v-346h-232v-690h-450v690h-166zM1102 322v1132h450v-1018q0 -19 1 -30.5t5 -24.5t14 -19t25 -6q37 0 95 21 l10 -357q-151 -40 -293 -40q-150 0 -228.5 79.5t-78.5 262.5z" />
</font>
</defs>
</svg>
